<?xml version="1.0" encoding="utf-8"?>
<!-- Generator: Adobe Illustrator 19.1.0, SVG Export Plug-In . SVG Version: 6.00 Build 0)  -->
<svg version="1.1" xmlns="http://www.w3.org/2000/svg" xmlns:xlink="http://www.w3.org/1999/xlink" x="0px" y="0px"
	 viewBox="0 0 125 951.5" style="enable-background:new 0 0 125 951.5;" xml:space="preserve">
<style type="text/css">
	.st0{display:none;}
	.st1{display:inline;fill:#B3B3B3;}
	.st2{fill:#FFFFFF;}
	.st3{fill:#010000;}
	.st4{display:inline;fill:#010101;}
	.st5{opacity:0.65;}
	.st6{opacity:0.65;fill:#4B4A4B;}
	.st7{fill:none;stroke:#000000;stroke-width:1.6;stroke-miterlimit:10;}
	.st8{fill:#4B4A4B;}
	.st9{fill:#4B4A4B;stroke:#4B4A4B;stroke-width:1.6;stroke-miterlimit:10;}
	.st10{clip-path:url(#SVGID_2_);fill:#FFFFFF;}
</style>
<g id="See_the_white" class="st0">
	<rect x="-6.2" y="-4.8" class="st1" width="135.7" height="997.2"/>
</g>
<g id="Layer_1">
	<path class="st2" d="M38,292c-1.6,0-3.1-0.7-4.2-1.4c-2.5-1.5-5.5-5.8-4.4-10.2c0.1-0.3,0.3-0.4,0.6-0.4c0.3,0.1,0.4,0.3,0.4,0.6
		c-1,4.2,2.1,8,4,9.1c1.1,0.6,2.4,1.3,3.9,1.2c1.7-0.1,3-1.1,4.2-3.1c2.4-4.1,1.8-12.5,1.6-14.9c-1.4,0.6-4.8,2.3-7.8,4.5
		c-0.2,0.2-0.5,0.1-0.7-0.1c-0.2-0.2-0.1-0.5,0.1-0.7c3.9-2.8,8.6-4.9,8.6-4.9c0.1-0.1,0.3-0.1,0.4,0c0.1,0.1,0.2,0.2,0.2,0.4
		c0.1,0.5,1.2,11.1-1.7,16.2c-1.3,2.3-3,3.6-5,3.6C38.1,292,38.1,292,38,292"/>
	<path class="st2" d="M22.6,269.3c-0.2,2.7-1,13.2,1.9,18.2c1.5,2.6,3.3,3.8,5.4,3.8c1.7,0,3.3-0.8,4.5-1.5c3-1.7,6-4.4,2.9-9.8
		C34.5,275,25.1,270.4,22.6,269.3 M30,292.3c-2.5,0-4.6-1.5-6.2-4.3c-3.5-6.1-2.1-18.9-2-19.5c0-0.2,0.1-0.3,0.2-0.4
		c0.1-0.1,0.3-0.1,0.4,0c0.5,0.2,12.4,5.4,15.9,11.5c4,6.9-1.5,10.1-3.3,11.1C33.7,291.4,31.9,292.3,30,292.3"/>
	<path class="st3" d="M100,292c-1.6,0-3.1-0.7-4.2-1.4c-2.5-1.5-5.5-5.8-4.4-10.2c0.1-0.3,0.3-0.4,0.6-0.4c0.3,0.1,0.4,0.3,0.4,0.6
		c-1,4.2,2.1,8,4,9.1c1.1,0.6,2.4,1.3,3.9,1.2c1.7-0.1,3-1.1,4.2-3.1c2.4-4.1,1.8-12.5,1.6-14.9c-1.4,0.6-4.8,2.3-7.8,4.5
		c-0.2,0.2-0.5,0.1-0.7-0.1c-0.2-0.2-0.1-0.5,0.1-0.7c3.9-2.8,8.6-4.9,8.6-4.9c0.1-0.1,0.3-0.1,0.4,0c0.1,0.1,0.2,0.2,0.2,0.4
		c0.1,0.5,1.2,11.1-1.7,16.2c-1.3,2.3-3,3.6-5,3.6C100.1,292,100.1,292,100,292"/>
	<path class="st3" d="M84.6,269.3c-0.2,2.7-1,13.2,1.9,18.2c1.5,2.6,3.3,3.8,5.4,3.8c1.7,0,3.3-0.8,4.5-1.5c3-1.7,6-4.4,2.9-9.8
		C96.5,275,87.1,270.4,84.6,269.3 M92,292.3c-2.5,0-4.6-1.5-6.2-4.3c-3.5-6.1-2.1-18.9-2-19.5c0-0.2,0.1-0.3,0.2-0.4
		c0.1-0.1,0.3-0.1,0.4,0c0.5,0.2,12.4,5.4,15.9,11.5c4,6.9-1.5,10.1-3.3,11.1C95.7,291.4,93.9,292.3,92,292.3"/>
	<path class="st2" d="M33,582.1c-0.9,3-2.3,5.2-3.5,7.1c-1.6,2.4-2.9,4.5-2.9,7.7c0,3.4,2.7,7.1,6.5,7.1c3.7,0,6.5-3.7,6.5-7.1
		c0-3.2-1.4-5.3-2.9-7.7C35.3,587.3,33.9,585.1,33,582.1 M33,605c-4,0-7.5-3.8-7.5-8.1c0-3.5,1.5-5.8,3.1-8.3
		c1.5-2.2,3.1-4.7,3.9-8.7c0-0.2,0.2-0.3,0.5-0.3h0c0.2,0,0.4,0.1,0.5,0.3c0.7,4,2.3,6.4,3.9,8.7c1.6,2.4,3.1,4.7,3.1,8.2
		C40.5,600.8,37.3,605,33,605"/>
	<path class="st2" d="M33.6,601.4c-0.2,0-0.4-0.2-0.5-0.4c0-0.3,0.1-0.5,0.4-0.6c1.8-0.3,2.6-2.1,2.6-3.7c0-0.3,0.2-0.5,0.5-0.5
		c0.3,0,0.5,0.2,0.5,0.5C37.1,598.8,36,601,33.6,601.4C33.7,601.4,33.7,601.4,33.6,601.4"/>
	<path class="st3" d="M95,582.1c-0.9,3-2.3,5.2-3.5,7.1c-1.6,2.4-2.9,4.5-2.9,7.7c0,3.4,2.7,7.1,6.5,7.1c3.7,0,6.5-3.7,6.5-7.1
		c0-3.2-1.4-5.3-2.9-7.7C97.3,587.3,95.9,585.1,95,582.1 M95,605c-4,0-7.5-3.8-7.5-8.1c0-3.5,1.5-5.8,3.1-8.3
		c1.5-2.2,3.1-4.7,3.9-8.7c0-0.2,0.2-0.3,0.5-0.3h0c0.2,0,0.4,0.1,0.5,0.3c0.7,4,2.3,6.4,3.9,8.7c1.6,2.4,3.1,4.7,3.1,8.2
		C102.5,600.8,99.3,605,95,605"/>
	<path class="st3" d="M95.6,601.4c-0.2,0-0.4-0.2-0.5-0.4c0-0.3,0.1-0.5,0.4-0.6c1.8-0.3,2.6-2.1,2.6-3.7c0-0.3,0.2-0.5,0.5-0.5
		c0.3,0,0.5,0.2,0.5,0.5C99.1,598.8,98,601,95.6,601.4C95.7,601.4,95.7,601.4,95.6,601.4"/>
	<path class="st2" d="M38,292c-1.6,0-3.1-0.7-4.2-1.4c-2.5-1.5-5.5-5.8-4.4-10.2c0.1-0.3,0.3-0.4,0.6-0.4c0.3,0.1,0.4,0.3,0.4,0.6
		c-1,4.2,2.1,8,4,9.1c1.1,0.6,2.4,1.3,3.9,1.2c1.7-0.1,3-1.1,4.2-3.1c2.4-4.1,1.8-12.5,1.6-14.9c-1.4,0.6-4.8,2.3-7.8,4.5
		c-0.2,0.2-0.5,0.1-0.7-0.1c-0.2-0.2-0.1-0.5,0.1-0.7c3.9-2.8,8.6-4.9,8.6-4.9c0.1-0.1,0.3-0.1,0.4,0c0.1,0.1,0.2,0.2,0.2,0.4
		c0.1,0.5,1.2,11.1-1.7,16.2c-1.3,2.3-3,3.6-5,3.6C38.1,292,38.1,292,38,292"/>
	<path class="st2" d="M22.6,269.3c-0.2,2.7-1,13.2,1.9,18.2c1.5,2.6,3.3,3.8,5.4,3.8c1.7,0,3.3-0.8,4.5-1.5c3-1.7,6-4.4,2.9-9.8
		C34.5,275,25.1,270.4,22.6,269.3 M30,292.3c-2.5,0-4.6-1.5-6.2-4.3c-3.5-6.1-2.1-18.9-2-19.5c0-0.2,0.1-0.3,0.2-0.4
		c0.1-0.1,0.3-0.1,0.4,0c0.5,0.2,12.4,5.4,15.9,11.5c4,6.9-1.5,10.1-3.3,11.1C33.7,291.4,31.9,292.3,30,292.3"/>
	<path class="st3" d="M100,292c-1.6,0-3.1-0.7-4.2-1.4c-2.5-1.5-5.5-5.8-4.4-10.2c0.1-0.3,0.3-0.4,0.6-0.4c0.3,0.1,0.4,0.3,0.4,0.6
		c-1,4.2,2.1,8,4,9.1c1.1,0.6,2.4,1.3,3.9,1.2c1.7-0.1,3-1.1,4.2-3.1c2.4-4.1,1.8-12.5,1.6-14.9c-1.4,0.6-4.8,2.3-7.8,4.5
		c-0.2,0.2-0.5,0.1-0.7-0.1c-0.2-0.2-0.1-0.5,0.1-0.7c3.9-2.8,8.6-4.9,8.6-4.9c0.1-0.1,0.3-0.1,0.4,0c0.1,0.1,0.2,0.2,0.2,0.4
		c0.1,0.5,1.2,11.1-1.7,16.2c-1.3,2.3-3,3.6-5,3.6C100.1,292,100.1,292,100,292"/>
	<path class="st3" d="M84.6,269.3c-0.2,2.7-1,13.2,1.9,18.2c1.5,2.6,3.3,3.8,5.4,3.8c1.7,0,3.3-0.8,4.5-1.5c3-1.7,6-4.4,2.9-9.8
		C96.5,275,87.1,270.4,84.6,269.3 M92,292.3c-2.5,0-4.6-1.5-6.2-4.3c-3.5-6.1-2.1-18.9-2-19.5c0-0.2,0.1-0.3,0.2-0.4
		c0.1-0.1,0.3-0.1,0.4,0c0.5,0.2,12.4,5.4,15.9,11.5c4,6.9-1.5,10.1-3.3,11.1C95.7,291.4,93.9,292.3,92,292.3"/>
	<path class="st2" d="M33.5,463.1c-1.7,0-3.1,1.4-3.1,3.1c0,1.7,1.4,3.1,3.1,3.1c1.7,0,3.1-1.4,3.1-3.1
		C36.6,464.4,35.3,463.1,33.5,463.1 M33.5,470.1c-2.2,0-4-1.8-4-4s1.8-4,4-4c2.2,0,4,1.8,4,4S35.7,470.1,33.5,470.1"/>
	<path class="st3" d="M95.5,463.1c-1.7,0-3.1,1.4-3.1,3.1c0,1.7,1.4,3.1,3.1,3.1c1.7,0,3.1-1.4,3.1-3.1
		C98.6,464.4,97.3,463.1,95.5,463.1 M95.5,470.1c-2.2,0-4-1.8-4-4s1.8-4,4-4c2.2,0,4,1.8,4,4S97.7,470.1,95.5,470.1"/>
	<path class="st2" d="M26.9,476.6c0.9,0.6,1.9,1,2.9,1.4l3.4-4.1c0.2-0.2,0.5-0.2,0.7,0l3.4,4.1c1-0.3,2-0.8,2.9-1.4l-1.1-5.3
		c0-0.1,0-0.3,0.1-0.4c0.1-0.1,0.2-0.2,0.3-0.2l5.5-0.1c0.4-1,0.6-2,0.8-3l-5-2.5c-0.1-0.1-0.2-0.2-0.2-0.3c0-0.1,0-0.3,0.1-0.4
		l3.5-4.6c-0.5-0.9-1.1-1.7-1.8-2.4l-5.3,2.4c-0.1,0.1-0.3,0.1-0.4,0c-0.1-0.1-0.2-0.2-0.2-0.3l-1.4-5.7c-1-0.1-2-0.1-3,0l-1.4,5.7
		c0,0.1-0.1,0.2-0.2,0.3c-0.1,0.1-0.3,0.1-0.4,0l-5.3-2.4c-0.7,0.7-1.3,1.5-1.8,2.4l3.5,4.6c0.1,0.1,0.1,0.2,0.1,0.4
		c0,0.1-0.1,0.2-0.2,0.3l-5,2.5c0.1,1,0.4,2.1,0.8,3l5.5,0.1c0.1,0,0.3,0.1,0.3,0.2c0.1,0.1,0.1,0.2,0.1,0.4L26.9,476.6z
		 M37.2,478.9c-0.1,0-0.3-0.1-0.3-0.2l-3.3-3.9l-3.3,3.9c-0.1,0.1-0.3,0.2-0.5,0.1c-1.3-0.4-2.6-1-3.7-1.7c-0.1-0.1-0.2-0.3-0.2-0.5
		l1-5l-5.3-0.1c-0.2,0-0.3-0.1-0.4-0.3c-0.5-1.2-0.8-2.5-1-3.9c0-0.2,0.1-0.4,0.2-0.4l4.8-2.4l-3.3-4.4c-0.1-0.1-0.1-0.3,0-0.5
		c0.6-1.1,1.4-2.2,2.4-3.1c0.1-0.1,0.3-0.2,0.5-0.1l5.1,2.3l1.4-5.5c0-0.2,0.2-0.3,0.4-0.3c1.3-0.2,2.5-0.2,3.8,0
		c0.2,0,0.3,0.2,0.4,0.3l1.4,5.5l5.1-2.3c0.2-0.1,0.4,0,0.5,0.1c0.9,0.9,1.7,1.9,2.4,3.1c0.1,0.2,0.1,0.3,0,0.5l-3.3,4.4l4.8,2.4
		c0.2,0.1,0.3,0.3,0.2,0.4c-0.1,1.3-0.4,2.6-1,3.9c-0.1,0.2-0.2,0.3-0.4,0.3l-5.3,0.1l1,5c0,0.2,0,0.4-0.2,0.5
		c-1.1,0.8-2.4,1.3-3.7,1.7C37.3,478.9,37.2,478.9,37.2,478.9"/>
	<path class="st3" d="M88.9,476.6c0.9,0.6,1.9,1,2.9,1.4l3.4-4.1c0.2-0.2,0.5-0.2,0.7,0l3.4,4.1c1-0.3,2-0.8,2.9-1.4l-1.1-5.3
		c0-0.1,0-0.3,0.1-0.4c0.1-0.1,0.2-0.2,0.3-0.2l5.5-0.1c0.4-1,0.6-2,0.8-3l-5-2.5c-0.1-0.1-0.2-0.2-0.2-0.3c0-0.1,0-0.3,0.1-0.4
		l3.5-4.6c-0.5-0.9-1.1-1.7-1.8-2.4l-5.3,2.4c-0.1,0.1-0.3,0.1-0.4,0c-0.1-0.1-0.2-0.2-0.2-0.3l-1.4-5.7c-1-0.1-2-0.1-3,0l-1.4,5.7
		c0,0.1-0.1,0.2-0.2,0.3c-0.1,0.1-0.3,0.1-0.4,0l-5.3-2.4c-0.7,0.7-1.3,1.5-1.8,2.4l3.5,4.6c0.1,0.1,0.1,0.2,0.1,0.4
		c0,0.1-0.1,0.2-0.2,0.3l-5,2.5c0.1,1,0.4,2.1,0.8,3l5.5,0.1c0.1,0,0.3,0.1,0.3,0.2c0.1,0.1,0.1,0.2,0.1,0.4L88.9,476.6z
		 M99.2,478.9c-0.1,0-0.3-0.1-0.3-0.2l-3.3-3.9l-3.3,3.9c-0.1,0.1-0.3,0.2-0.5,0.1c-1.3-0.4-2.6-1-3.7-1.7c-0.1-0.1-0.2-0.3-0.2-0.5
		l1-5l-5.3-0.1c-0.2,0-0.3-0.1-0.4-0.3c-0.5-1.2-0.8-2.5-1-3.9c0-0.2,0.1-0.4,0.2-0.4l4.8-2.4l-3.3-4.4c-0.1-0.1-0.1-0.3,0-0.5
		c0.6-1.1,1.4-2.2,2.4-3.1c0.1-0.1,0.3-0.2,0.5-0.1l5.1,2.3l1.4-5.5c0-0.2,0.2-0.3,0.4-0.3c1.3-0.2,2.5-0.2,3.8,0
		c0.2,0,0.3,0.2,0.4,0.3l1.4,5.5l5.1-2.3c0.2-0.1,0.4,0,0.5,0.1c0.9,0.9,1.7,1.9,2.4,3.1c0.1,0.2,0.1,0.3,0,0.5l-3.3,4.4l4.8,2.4
		c0.2,0.1,0.3,0.3,0.2,0.4c-0.1,1.3-0.4,2.6-1,3.9c-0.1,0.2-0.2,0.3-0.4,0.3l-5.3,0.1l1,5c0,0.2,0,0.4-0.2,0.5
		c-1.1,0.8-2.4,1.3-3.7,1.7C99.3,478.9,99.2,478.9,99.2,478.9"/>
	<path class="st2" d="M29.3,355.1c-0.3,0-0.8-0.1-1.3-0.6c-1.1-1.1-0.3-3.4,0.2-5.1c0.1-0.3,0.2-0.6,0.2-0.8c0.5-1.8,0.6-3.6,0.3-5
		c-0.3-1.3-0.8-2.3-1.5-3.1c-0.8-0.7-2-1-2.8-1.1c-0.1,0-0.4,0-0.8-0.1l-0.4,0c-1.7-0.1-1.7-0.1-1.9-0.4c-0.1-0.2-0.1-0.4,0-0.5
		c0.3-0.5,1.4-1.3,3.8-2.7c0.4-0.2,0.7-0.4,1-0.6c0.3-0.2,0.5-0.4,0.8-0.6c1.2-0.9,2.9-2.1,5.3-2.1c3.2-0.1,4.7,1.3,5.9,3.5
		c1.2,2.2,5.5,8.4,8.7,9.1c0.3,0.1,0.5,0.4,0.4,0.7s-0.4,0.5-0.7,0.4c-3.9-0.9-8.5-7.9-9.5-9.7c-1.2-2.2-2.5-3-4.8-2.9
		c-2,0.1-3.5,1.1-4.7,1.9c-0.3,0.2-0.6,0.4-0.9,0.6c-0.3,0.2-0.6,0.4-1,0.6c-0.6,0.4-1.7,1-2.5,1.5c0,0,0.1,0,0.1,0l0.4,0
		c0.5,0,0.7,0.1,0.8,0.1c1,0.1,2.4,0.5,3.4,1.4c0,0,0,0,0,0c0.9,1,1.5,2.2,1.8,3.7c0.3,1.5,0.2,3.5-0.3,5.5
		c-0.1,0.2-0.2,0.5-0.3,0.9c-0.4,1.1-1.1,3.3-0.5,3.9c0.2,0.2,0.4,0.2,0.5,0.2c0.3,0,0.6-0.3,0.9-0.7c0.3-0.4,0.5-0.8,0.6-1.2
		c0-0.1,0.1-0.3,0.1-0.5c0-0.2,0.1-0.4,0.1-0.6c0,0,0-0.1,0-0.2c0-0.3,0.1-0.5,0.3-0.8c0.1-0.2,0.3-0.2,0.5-0.2
		c0.2,0,0.4,0.1,0.5,0.3c0.1,0.2,0.1,0.3,0.2,0.5c0.1,0.4,0.3,0.7,0.5,1c0.6,0.8,1.8,1,2.6,0.5c1.2-0.7,1.6-3,1.1-4.4c0,0,0,0,0,0
		c0,0,0,0,0,0c0,0,0,0,0,0c-0.1-0.3,0.1-0.6,0.4-0.7c0.3-0.1,0.6,0.1,0.7,0.3c0,0,0,0,0,0l0,0c0,0,0,0,0,0c0.3,0.8,1.1,1.8,2.2,1.6
		c0.3,0,0.5-0.2,0.7-0.5c0.3-0.5,0.4-1.3,0.1-1.9c-0.1-0.3,0-0.6,0.3-0.7c0.3-0.1,0.6,0,0.8,0.3c0.4,0.8,0.3,2-0.2,2.8
		c-0.3,0.6-0.9,1-1.5,1.1c-0.8,0.1-1.5-0.1-2.2-0.5c-0.1,1.4-0.7,2.9-1.8,3.6c-1.4,0.8-3.2,0.4-4.2-0.8c0-0.1-0.1-0.1-0.1-0.2
		c0,0.1,0,0.2-0.1,0.3c-0.2,0.6-0.6,1.2-0.8,1.5c-0.3,0.4-0.9,1.1-1.8,1.1C29.4,355.1,29.4,355.1,29.3,355.1"/>
	<path class="st3" d="M91.3,355.1c-0.3,0-0.8-0.1-1.3-0.6c-1.1-1.1-0.3-3.4,0.2-5.1c0.1-0.3,0.2-0.6,0.2-0.8c0.5-1.8,0.6-3.6,0.3-5
		c-0.3-1.3-0.8-2.3-1.5-3.1c-0.8-0.7-2-1-2.8-1.1c-0.1,0-0.4,0-0.8-0.1l-0.4,0c-1.7-0.1-1.7-0.1-1.9-0.4c-0.1-0.2-0.1-0.4,0-0.5
		c0.3-0.5,1.4-1.3,3.8-2.7c0.4-0.2,0.7-0.4,1-0.6c0.3-0.2,0.5-0.4,0.8-0.6c1.2-0.9,2.9-2.1,5.3-2.1c3.2-0.1,4.7,1.3,5.9,3.5
		c1.2,2.2,5.5,8.4,8.7,9.1c0.3,0.1,0.5,0.4,0.4,0.7c-0.1,0.3-0.4,0.5-0.7,0.4c-3.9-0.9-8.5-7.9-9.5-9.7c-1.2-2.2-2.5-3-4.8-2.9
		c-2,0.1-3.5,1.1-4.7,1.9c-0.3,0.2-0.6,0.4-0.9,0.6c-0.3,0.2-0.6,0.4-1,0.6c-0.6,0.4-1.7,1-2.5,1.5c0,0,0.1,0,0.1,0l0.4,0
		c0.5,0,0.7,0.1,0.8,0.1c1,0.1,2.4,0.5,3.4,1.4c0,0,0,0,0,0c0.9,1,1.5,2.2,1.8,3.7c0.3,1.5,0.2,3.5-0.3,5.5
		c-0.1,0.2-0.2,0.5-0.3,0.9c-0.4,1.1-1.1,3.3-0.5,3.9c0.2,0.2,0.4,0.2,0.5,0.2c0.3,0,0.6-0.3,0.9-0.7c0.3-0.4,0.5-0.8,0.6-1.2
		c0-0.1,0.1-0.3,0.1-0.5c0-0.2,0.1-0.4,0.1-0.6c0,0,0-0.1,0-0.2c0-0.3,0.1-0.5,0.3-0.8c0.1-0.2,0.3-0.2,0.5-0.2
		c0.2,0,0.4,0.1,0.5,0.3c0.1,0.2,0.1,0.3,0.2,0.5c0.1,0.4,0.3,0.7,0.5,1c0.6,0.8,1.8,1,2.6,0.5c1.2-0.7,1.6-3,1.1-4.4c0,0,0,0,0,0
		c0,0,0,0,0,0c0,0,0,0,0,0c-0.1-0.3,0.1-0.6,0.4-0.7s0.6,0.1,0.7,0.3c0,0,0,0,0,0l0,0c0,0,0,0,0,0c0.3,0.8,1.1,1.8,2.2,1.6
		c0.3,0,0.5-0.2,0.7-0.5c0.3-0.5,0.4-1.3,0.1-1.9c-0.1-0.3,0-0.6,0.3-0.7c0.3-0.1,0.6,0,0.8,0.3c0.4,0.8,0.3,2-0.2,2.8
		c-0.3,0.6-0.9,1-1.5,1.1c-0.8,0.1-1.5-0.1-2.2-0.5c-0.1,1.4-0.7,2.9-1.8,3.6c-1.4,0.8-3.2,0.4-4.2-0.8c0-0.1-0.1-0.1-0.1-0.2
		c0,0.1,0,0.2-0.1,0.3c-0.2,0.6-0.6,1.2-0.8,1.5c-0.3,0.4-0.9,1.1-1.8,1.1C91.4,355.1,91.4,355.1,91.3,355.1"/>
	<path class="st2" d="M30.5,338.1c-0.5,0.5-1.3,0.5-1.8,0c-0.5-0.5-0.5-1.3,0-1.8c0.5-0.5,1.3-0.5,1.8,0
		C31,336.9,31,337.7,30.5,338.1"/>
	<path class="st3" d="M92.5,338.1c-0.5,0.5-1.3,0.5-1.8,0c-0.5-0.5-0.5-1.3,0-1.8s1.3-0.5,1.8,0C93,336.9,93,337.7,92.5,338.1"/>
	<path class="st2" d="M33,582.1c-0.9,3-2.3,5.2-3.5,7.1c-1.6,2.4-2.9,4.5-2.9,7.7c0,3.4,2.7,7.1,6.5,7.1c3.7,0,6.5-3.7,6.5-7.1
		c0-3.2-1.4-5.3-2.9-7.7C35.3,587.3,33.9,585.1,33,582.1 M33,605c-4,0-7.5-3.8-7.5-8.1c0-3.5,1.5-5.8,3.1-8.3
		c1.5-2.2,3.1-4.7,3.9-8.7c0-0.2,0.2-0.3,0.5-0.3h0c0.2,0,0.4,0.1,0.5,0.3c0.7,4,2.3,6.4,3.9,8.7c1.6,2.4,3.1,4.7,3.1,8.2
		C40.5,600.8,37.3,605,33,605"/>
	<path class="st2" d="M33.6,601.4c-0.2,0-0.4-0.2-0.5-0.4c0-0.3,0.1-0.5,0.4-0.6c1.8-0.3,2.6-2.1,2.6-3.7c0-0.3,0.2-0.5,0.5-0.5
		c0.3,0,0.5,0.2,0.5,0.5C37.1,598.8,36,601,33.6,601.4C33.7,601.4,33.7,601.4,33.6,601.4"/>
	<path class="st3" d="M95,582.1c-0.9,3-2.3,5.2-3.5,7.1c-1.6,2.4-2.9,4.5-2.9,7.7c0,3.4,2.7,7.1,6.5,7.1c3.7,0,6.5-3.7,6.5-7.1
		c0-3.2-1.4-5.3-2.9-7.7C97.3,587.3,95.9,585.1,95,582.1 M95,605c-4,0-7.5-3.8-7.5-8.1c0-3.5,1.5-5.8,3.1-8.3
		c1.5-2.2,3.1-4.7,3.9-8.7c0-0.2,0.2-0.3,0.5-0.3h0c0.2,0,0.4,0.1,0.5,0.3c0.7,4,2.3,6.4,3.9,8.7c1.6,2.4,3.1,4.7,3.1,8.2
		C102.5,600.8,99.3,605,95,605"/>
	<path class="st3" d="M95.6,601.4c-0.2,0-0.4-0.2-0.5-0.4c0-0.3,0.1-0.5,0.4-0.6c1.8-0.3,2.6-2.1,2.6-3.7c0-0.3,0.2-0.5,0.5-0.5
		c0.3,0,0.5,0.2,0.5,0.5C99.1,598.8,98,601,95.6,601.4C95.7,601.4,95.7,601.4,95.6,601.4"/>
	<path class="st2" d="M33.5,463.1c-1.7,0-3.1,1.4-3.1,3.1c0,1.7,1.4,3.1,3.1,3.1c1.7,0,3.1-1.4,3.1-3.1
		C36.6,464.4,35.3,463.1,33.5,463.1 M33.5,470.1c-2.2,0-4-1.8-4-4s1.8-4,4-4c2.2,0,4,1.8,4,4S35.7,470.1,33.5,470.1"/>
	<path class="st3" d="M95.5,463.1c-1.7,0-3.1,1.4-3.1,3.1c0,1.7,1.4,3.1,3.1,3.1c1.7,0,3.1-1.4,3.1-3.1
		C98.6,464.4,97.3,463.1,95.5,463.1 M95.5,470.1c-2.2,0-4-1.8-4-4s1.8-4,4-4c2.2,0,4,1.8,4,4S97.7,470.1,95.5,470.1"/>
	<path class="st2" d="M26.9,476.6c0.9,0.6,1.9,1,2.9,1.4l3.4-4.1c0.2-0.2,0.5-0.2,0.7,0l3.4,4.1c1-0.3,2-0.8,2.9-1.4l-1.1-5.3
		c0-0.1,0-0.3,0.1-0.4c0.1-0.1,0.2-0.2,0.3-0.2l5.5-0.1c0.4-1,0.6-2,0.8-3l-5-2.5c-0.1-0.1-0.2-0.2-0.2-0.3c0-0.1,0-0.3,0.1-0.4
		l3.5-4.6c-0.5-0.9-1.1-1.7-1.8-2.4l-5.3,2.4c-0.1,0.1-0.3,0.1-0.4,0c-0.1-0.1-0.2-0.2-0.2-0.3l-1.4-5.7c-1-0.1-2-0.1-3,0l-1.4,5.7
		c0,0.1-0.1,0.2-0.2,0.3c-0.1,0.1-0.3,0.1-0.4,0l-5.3-2.4c-0.7,0.7-1.3,1.5-1.8,2.4l3.5,4.6c0.1,0.1,0.1,0.2,0.1,0.4
		c0,0.1-0.1,0.2-0.2,0.3l-5,2.5c0.1,1,0.4,2.1,0.8,3l5.5,0.1c0.1,0,0.3,0.1,0.3,0.2c0.1,0.1,0.1,0.2,0.1,0.4L26.9,476.6z
		 M37.2,478.9c-0.1,0-0.3-0.1-0.3-0.2l-3.3-3.9l-3.3,3.9c-0.1,0.1-0.3,0.2-0.5,0.1c-1.3-0.4-2.6-1-3.7-1.7c-0.1-0.1-0.2-0.3-0.2-0.5
		l1-5l-5.3-0.1c-0.2,0-0.3-0.1-0.4-0.3c-0.5-1.2-0.8-2.5-1-3.9c0-0.2,0.1-0.4,0.2-0.4l4.8-2.4l-3.3-4.4c-0.1-0.1-0.1-0.3,0-0.5
		c0.6-1.1,1.4-2.2,2.4-3.1c0.1-0.1,0.3-0.2,0.5-0.1l5.1,2.3l1.4-5.5c0-0.2,0.2-0.3,0.4-0.3c1.3-0.2,2.5-0.2,3.8,0
		c0.2,0,0.3,0.2,0.4,0.3l1.4,5.5l5.1-2.3c0.2-0.1,0.4,0,0.5,0.1c0.9,0.9,1.7,1.9,2.4,3.1c0.1,0.2,0.1,0.3,0,0.5l-3.3,4.4l4.8,2.4
		c0.2,0.1,0.3,0.3,0.2,0.4c-0.1,1.3-0.4,2.6-1,3.9c-0.1,0.2-0.2,0.3-0.4,0.3l-5.3,0.1l1,5c0,0.2,0,0.4-0.2,0.5
		c-1.1,0.8-2.4,1.3-3.7,1.7C37.3,478.9,37.2,478.9,37.2,478.9"/>
	<path class="st3" d="M88.9,476.6c0.9,0.6,1.9,1,2.9,1.4l3.4-4.1c0.2-0.2,0.5-0.2,0.7,0l3.4,4.1c1-0.3,2-0.8,2.9-1.4l-1.1-5.3
		c0-0.1,0-0.3,0.1-0.4c0.1-0.1,0.2-0.2,0.3-0.2l5.5-0.1c0.4-1,0.6-2,0.8-3l-5-2.5c-0.1-0.1-0.2-0.2-0.2-0.3c0-0.1,0-0.3,0.1-0.4
		l3.5-4.6c-0.5-0.9-1.1-1.7-1.8-2.4l-5.3,2.4c-0.1,0.1-0.3,0.1-0.4,0c-0.1-0.1-0.2-0.2-0.2-0.3l-1.4-5.7c-1-0.1-2-0.1-3,0l-1.4,5.7
		c0,0.1-0.1,0.2-0.2,0.3c-0.1,0.1-0.3,0.1-0.4,0l-5.3-2.4c-0.7,0.7-1.3,1.5-1.8,2.4l3.5,4.6c0.1,0.1,0.1,0.2,0.1,0.4
		c0,0.1-0.1,0.2-0.2,0.3l-5,2.5c0.1,1,0.4,2.1,0.8,3l5.5,0.1c0.1,0,0.3,0.1,0.3,0.2c0.1,0.1,0.1,0.2,0.1,0.4L88.9,476.6z
		 M99.2,478.9c-0.1,0-0.3-0.1-0.3-0.2l-3.3-3.9l-3.3,3.9c-0.1,0.1-0.3,0.2-0.5,0.1c-1.3-0.4-2.6-1-3.7-1.7c-0.1-0.1-0.2-0.3-0.2-0.5
		l1-5l-5.3-0.1c-0.2,0-0.3-0.1-0.4-0.3c-0.5-1.2-0.8-2.5-1-3.9c0-0.2,0.1-0.4,0.2-0.4l4.8-2.4l-3.3-4.4c-0.1-0.1-0.1-0.3,0-0.5
		c0.6-1.1,1.4-2.2,2.4-3.1c0.1-0.1,0.3-0.2,0.5-0.1l5.1,2.3l1.4-5.5c0-0.2,0.2-0.3,0.4-0.3c1.3-0.2,2.5-0.2,3.8,0
		c0.2,0,0.3,0.2,0.4,0.3l1.4,5.5l5.1-2.3c0.2-0.1,0.4,0,0.5,0.1c0.9,0.9,1.7,1.9,2.4,3.1c0.1,0.2,0.1,0.3,0,0.5l-3.3,4.4l4.8,2.4
		c0.2,0.1,0.3,0.3,0.2,0.4c-0.1,1.3-0.4,2.6-1,3.9c-0.1,0.2-0.2,0.3-0.4,0.3l-5.3,0.1l1,5c0,0.2,0,0.4-0.2,0.5
		c-1.1,0.8-2.4,1.3-3.7,1.7C99.3,478.9,99.2,478.9,99.2,478.9"/>
	<path class="st2" d="M29.3,355.1c-0.3,0-0.8-0.1-1.3-0.6c-1.1-1.1-0.3-3.4,0.2-5.1c0.1-0.3,0.2-0.6,0.2-0.8c0.5-1.8,0.6-3.6,0.3-5
		c-0.3-1.3-0.8-2.3-1.5-3.1c-0.8-0.7-2-1-2.8-1.1c-0.1,0-0.4,0-0.8-0.1l-0.4,0c-1.7-0.1-1.7-0.1-1.9-0.4c-0.1-0.2-0.1-0.4,0-0.5
		c0.3-0.5,1.4-1.3,3.8-2.7c0.4-0.2,0.7-0.4,1-0.6c0.3-0.2,0.5-0.4,0.8-0.6c1.2-0.9,2.9-2.1,5.3-2.1c3.2-0.1,4.7,1.3,5.9,3.5
		c1.2,2.2,5.5,8.4,8.7,9.1c0.3,0.1,0.5,0.4,0.4,0.7s-0.4,0.5-0.7,0.4c-3.9-0.9-8.5-7.9-9.5-9.7c-1.2-2.2-2.5-3-4.8-2.9
		c-2,0.1-3.5,1.1-4.7,1.9c-0.3,0.2-0.6,0.4-0.9,0.6c-0.3,0.2-0.6,0.4-1,0.6c-0.6,0.4-1.7,1-2.5,1.5c0,0,0.1,0,0.1,0l0.4,0
		c0.5,0,0.7,0.1,0.8,0.1c1,0.1,2.4,0.5,3.4,1.4c0,0,0,0,0,0c0.9,1,1.5,2.2,1.8,3.7c0.3,1.5,0.2,3.5-0.3,5.5
		c-0.1,0.2-0.2,0.5-0.3,0.9c-0.4,1.1-1.1,3.3-0.5,3.9c0.2,0.2,0.4,0.2,0.5,0.2c0.3,0,0.6-0.3,0.9-0.7c0.3-0.4,0.5-0.8,0.6-1.2
		c0-0.1,0.1-0.3,0.1-0.5c0-0.2,0.1-0.4,0.1-0.6c0,0,0-0.1,0-0.2c0-0.3,0.1-0.5,0.3-0.8c0.1-0.2,0.3-0.2,0.5-0.2
		c0.2,0,0.4,0.1,0.5,0.3c0.1,0.2,0.1,0.3,0.2,0.5c0.1,0.4,0.3,0.7,0.5,1c0.6,0.8,1.8,1,2.6,0.5c1.2-0.7,1.6-3,1.1-4.4c0,0,0,0,0,0
		c0,0,0,0,0,0c0,0,0,0,0,0c-0.1-0.3,0.1-0.6,0.4-0.7c0.3-0.1,0.6,0.1,0.7,0.3c0,0,0,0,0,0l0,0c0,0,0,0,0,0c0.3,0.8,1.1,1.8,2.2,1.6
		c0.3,0,0.5-0.2,0.7-0.5c0.3-0.5,0.4-1.3,0.1-1.9c-0.1-0.3,0-0.6,0.3-0.7c0.3-0.1,0.6,0,0.8,0.3c0.4,0.8,0.3,2-0.2,2.8
		c-0.3,0.6-0.9,1-1.5,1.1c-0.8,0.1-1.5-0.1-2.2-0.5c-0.1,1.4-0.7,2.9-1.8,3.6c-1.4,0.8-3.2,0.4-4.2-0.8c0-0.1-0.1-0.1-0.1-0.2
		c0,0.1,0,0.2-0.1,0.3c-0.2,0.6-0.6,1.2-0.8,1.5c-0.3,0.4-0.9,1.1-1.8,1.1C29.4,355.1,29.4,355.1,29.3,355.1"/>
	<path class="st3" d="M91.3,355.1c-0.3,0-0.8-0.1-1.3-0.6c-1.1-1.1-0.3-3.4,0.2-5.1c0.1-0.3,0.2-0.6,0.2-0.8c0.5-1.8,0.6-3.6,0.3-5
		c-0.3-1.3-0.8-2.3-1.5-3.1c-0.8-0.7-2-1-2.8-1.1c-0.1,0-0.4,0-0.8-0.1l-0.4,0c-1.7-0.1-1.7-0.1-1.9-0.4c-0.1-0.2-0.1-0.4,0-0.5
		c0.3-0.5,1.4-1.3,3.8-2.7c0.4-0.2,0.7-0.4,1-0.6c0.3-0.2,0.5-0.4,0.8-0.6c1.2-0.9,2.9-2.1,5.3-2.1c3.2-0.1,4.7,1.3,5.9,3.5
		c1.2,2.2,5.5,8.4,8.7,9.1c0.3,0.1,0.5,0.4,0.4,0.7c-0.1,0.3-0.4,0.5-0.7,0.4c-3.9-0.9-8.5-7.9-9.5-9.7c-1.2-2.2-2.5-3-4.8-2.9
		c-2,0.1-3.5,1.1-4.7,1.9c-0.3,0.2-0.6,0.4-0.9,0.6c-0.3,0.2-0.6,0.4-1,0.6c-0.6,0.4-1.7,1-2.5,1.5c0,0,0.1,0,0.1,0l0.4,0
		c0.5,0,0.7,0.1,0.8,0.1c1,0.1,2.4,0.5,3.4,1.4c0,0,0,0,0,0c0.9,1,1.5,2.2,1.8,3.7c0.3,1.5,0.2,3.5-0.3,5.5
		c-0.1,0.2-0.2,0.5-0.3,0.9c-0.4,1.1-1.1,3.3-0.5,3.9c0.2,0.2,0.4,0.2,0.5,0.2c0.3,0,0.6-0.3,0.9-0.7c0.3-0.4,0.5-0.8,0.6-1.2
		c0-0.1,0.1-0.3,0.1-0.5c0-0.2,0.1-0.4,0.1-0.6c0,0,0-0.1,0-0.2c0-0.3,0.1-0.5,0.3-0.8c0.1-0.2,0.3-0.2,0.5-0.2
		c0.2,0,0.4,0.1,0.5,0.3c0.1,0.2,0.1,0.3,0.2,0.5c0.1,0.4,0.3,0.7,0.5,1c0.6,0.8,1.8,1,2.6,0.5c1.2-0.7,1.6-3,1.1-4.4c0,0,0,0,0,0
		c0,0,0,0,0,0c0,0,0,0,0,0c-0.1-0.3,0.1-0.6,0.4-0.7s0.6,0.1,0.7,0.3c0,0,0,0,0,0l0,0c0,0,0,0,0,0c0.3,0.8,1.1,1.8,2.2,1.6
		c0.3,0,0.5-0.2,0.7-0.5c0.3-0.5,0.4-1.3,0.1-1.9c-0.1-0.3,0-0.6,0.3-0.7c0.3-0.1,0.6,0,0.8,0.3c0.4,0.8,0.3,2-0.2,2.8
		c-0.3,0.6-0.9,1-1.5,1.1c-0.8,0.1-1.5-0.1-2.2-0.5c-0.1,1.4-0.7,2.9-1.8,3.6c-1.4,0.8-3.2,0.4-4.2-0.8c0-0.1-0.1-0.1-0.1-0.2
		c0,0.1,0,0.2-0.1,0.3c-0.2,0.6-0.6,1.2-0.8,1.5c-0.3,0.4-0.9,1.1-1.8,1.1C91.4,355.1,91.4,355.1,91.3,355.1"/>
	<path class="st2" d="M30.5,338.1c-0.5,0.5-1.3,0.5-1.8,0c-0.5-0.5-0.5-1.3,0-1.8c0.5-0.5,1.3-0.5,1.8,0
		C31,336.9,31,337.7,30.5,338.1"/>
	<path class="st3" d="M92.5,338.1c-0.5,0.5-1.3,0.5-1.8,0c-0.5-0.5-0.5-1.3,0-1.8s1.3-0.5,1.8,0C93,336.9,93,337.7,92.5,338.1"/>
	<path class="st2" d="M46.8,92.4l-9.7,0c0.1,0.3,0.2,0.6,0.2,0.9l9.1,0l2.6,2.6l-2.4,2.6l-3-2.3l-3,2.3l-3-2.3l-3.2,2.3h-4.1
		l-0.1,0.2c-0.3,0.5-0.6,1-1,1.4c-2.3,2.3-6.1,2.3-8.4,0c-2.3-2.3-2.3-6.1,0-8.4c2.3-2.3,6.1-2.3,8.4,0c0.4,0.4,0.8,0.9,1,1.4
		l0.1,0.2h3.9H35c-0.1-0.3-0.1-0.6-0.2-0.9c-0.5-1.4-1.3-2.8-2.4-3.9c-4.1-4.1-10.7-4.1-14.7,0c-4.1,4.1-4.1,10.7,0,14.7
		c4.1,4.1,10.7,4.1,14.7,0c0.6-0.6,1.2-1.4,1.6-2.1h-1c-0.3,0.5-0.7,1-1.2,1.5c-3.7,3.7-9.8,3.7-13.5,0c-3.7-3.7-3.7-9.8,0-13.5
		c3.7-3.7,9.8-3.7,13.5,0c1,1,1.7,2.1,2.1,3.3h-3.1c-0.3-0.5-0.7-1-1.1-1.4c-2.7-2.7-7-2.7-9.6,0c-2.7,2.7-2.7,7,0,9.6
		c2.7,2.7,7,2.7,9.6,0c0.4-0.4,0.8-0.9,1.1-1.4h3.1h0.8h0.1l2.8-2.1l3,2.3l3-2.3l3,2.3l3.6-3.6L46.8,92.4z"/>
	<path class="st3" d="M108.8,92.4l-9.7,0c0.1,0.3,0.2,0.6,0.2,0.9l9.1,0l2.6,2.6l-2.4,2.6l-3-2.3l-3,2.3l-3-2.3l-3.2,2.3h-4.1
		l-0.1,0.2c-0.3,0.5-0.6,1-1,1.4c-2.3,2.3-6.1,2.3-8.4,0c-2.3-2.3-2.3-6.1,0-8.4c2.3-2.3,6.1-2.3,8.4,0c0.4,0.4,0.8,0.9,1,1.4
		l0.1,0.2h3.9H97c-0.1-0.3-0.1-0.6-0.2-0.9c-0.5-1.4-1.3-2.8-2.4-3.9c-4.1-4.1-10.7-4.1-14.7,0c-4.1,4.1-4.1,10.7,0,14.7
		c4.1,4.1,10.7,4.1,14.7,0c0.6-0.6,1.2-1.4,1.6-2.1h-1c-0.3,0.5-0.7,1-1.2,1.5c-3.7,3.7-9.8,3.7-13.5,0c-3.7-3.7-3.7-9.8,0-13.5
		c3.7-3.7,9.8-3.7,13.5,0c1,1,1.7,2.1,2.1,3.3h-3.1c-0.3-0.5-0.7-1-1.1-1.4c-2.7-2.7-7-2.7-9.6,0c-2.7,2.7-2.7,7,0,9.6
		c2.7,2.7,7,2.7,9.6,0c0.4-0.4,0.8-0.9,1.1-1.4h3.1h0.8h0.1l2.8-2.1l3,2.3l3-2.3l3,2.3l3.6-3.6L108.8,92.4z"/>
	<path class="st2" d="M22,95.1c-0.4,0.4-0.4,1,0,1.4s1,0.4,1.4,0c0.4-0.4,0.4-1,0-1.4C23,94.8,22.4,94.8,22,95.1"/>
	<path class="st3" d="M84,95.1c-0.4,0.4-0.4,1,0,1.4c0.4,0.4,1,0.4,1.4,0c0.4-0.4,0.4-1,0-1.4C85,94.8,84.4,94.8,84,95.1"/>
	<path class="st2" d="M42.6,167.1c-0.1,0-0.2,0-0.3-0.1c-0.2-0.2-0.2-0.5-0.1-0.7c1.9-2.3,3.1-5.1,3.2-8.1h-5.8
		c-0.1,2.4-0.4,4.8-1.1,7c-0.1,0.3-0.3,0.4-0.6,0.3c-0.3-0.1-0.4-0.3-0.3-0.6c0.7-2.4,1-4.8,1.1-7.3c0-0.3,0.2-0.5,0.5-0.5H46
		c0.1,0,0.3,0.1,0.3,0.1c0.1,0.1,0.1,0.2,0.1,0.3c0,3.4-1.3,6.6-3.5,9.2C42.9,167,42.8,167.1,42.6,167.1"/>
	<path class="st2" d="M46,158c-0.3,0-0.5-0.2-0.5-0.5c0-3.1-1.1-6.1-3-8.4c-1.2,0.5-2.5,0.9-3.8,1.2c0.6,2.3,1,4.8,1,7.2
		c0,0.3-0.2,0.5-0.5,0.5c-0.3,0-0.5-0.2-0.5-0.5c0-2.5-0.4-5-1.1-7.4c0-0.1,0-0.3,0-0.4c0.1-0.1,0.2-0.2,0.3-0.2
		c1.6-0.3,3.1-0.8,4.5-1.4c0.2-0.1,0.4,0,0.6,0.1c2.2,2.6,3.5,5.9,3.5,9.3C46.5,157.8,46.2,158,46,158"/>
	<path class="st2" d="M21.7,167.1c-0.1,0-0.3-0.1-0.4-0.2c-2.2-2.6-3.5-5.9-3.5-9.3c0-3.4,1.2-6.7,3.5-9.3c0.2-0.2,0.5-0.2,0.7-0.1
		c0.2,0.2,0.2,0.5,0.1,0.7c-2.1,2.4-3.2,5.5-3.2,8.7c0,3.2,1.1,6.3,3.2,8.7c0.2,0.2,0.2,0.5-0.1,0.7C21.9,167,21.8,167.1,21.7,167.1
		"/>
	<path class="st2" d="M26.2,150.5c0,0-0.1,0-0.1,0c-1.6-0.4-3.2-0.9-4.6-1.5c-0.2-0.1-0.4-0.4-0.3-0.6c0.1-0.2,0.4-0.4,0.6-0.3
		c1.4,0.6,2.9,1.1,4.5,1.4c0.3,0.1,0.4,0.3,0.4,0.6C26.6,150.3,26.4,150.5,26.2,150.5"/>
	<path class="st2" d="M24.9,158.2h-6.5c-0.3,0-0.5-0.2-0.5-0.5c0-0.3,0.2-0.5,0.5-0.5h6.5c0.3,0,0.5,0.2,0.5,0.5
		C25.4,158,25.2,158.2,24.9,158.2"/>
	<path class="st2" d="M32.4,158.2h-7.3c-0.3,0-0.5-0.2-0.5-0.5c0-0.1,0-0.1,0-0.2c0-2.6,0.4-5.2,1.1-7.7c0.1-0.2,0.3-0.4,0.6-0.3
		c1.9,0.4,3.8,0.6,5.8,0.6c0,0,0,0,0,0c0.3,0,0.5,0.2,0.5,0.5c0,0.3-0.2,0.5-0.5,0.5c0,0,0,0,0,0c-1.9,0-3.8-0.2-5.6-0.6
		c-0.6,2.2-0.9,4.4-0.9,6.7h6.8c0.3,0,0.5,0.2,0.5,0.5C32.9,158,32.6,158.2,32.4,158.2"/>
	<path class="st2" d="M26.2,165.6c-0.2,0-0.4-0.1-0.5-0.3c-0.7-2.4-1.1-5-1.1-7.5c0-0.3,0.2-0.5,0.5-0.5h0c0.3,0,0.5,0.3,0.5,0.5
		c0,2.3,0.3,4.6,0.9,6.8c1.7-0.4,3.5-0.5,5.2-0.5v-6.1c0-0.3,0.2-0.5,0.5-0.5c0.3,0,0.5,0.2,0.5,0.5v6.6c0,0.2-0.2,0.4-0.4,0.5
		c0,0-0.1,0-0.2,0c-1.9,0-3.9,0.2-5.8,0.6C26.3,165.6,26.2,165.6,26.2,165.6"/>
	<path class="st2" d="M39.2,158.2h-7c-0.3,0-0.5-0.2-0.5-0.5v-7.1c0-0.3,0.2-0.5,0.5-0.5c2,0,3.9-0.2,5.8-0.6
		c0.3-0.1,0.5,0.1,0.6,0.4s-0.1,0.5-0.4,0.6c-1.8,0.4-3.6,0.6-5.5,0.6v6.1h6.5c0.3,0,0.5,0.2,0.5,0.5
		C39.7,158,39.5,158.2,39.2,158.2"/>
	<path class="st2" d="M42.6,149c-0.1,0-0.3-0.1-0.4-0.2c-1.8-2.1-4.2-3.6-6.8-4.2c-0.3-0.1-0.4-0.3-0.4-0.6c0.1-0.3,0.3-0.4,0.6-0.4
		c2.8,0.7,5.4,2.3,7.3,4.5c0.2,0.2,0.2,0.5-0.1,0.7C42.9,149,42.7,149,42.6,149"/>
	<path class="st2" d="M38.1,150.5c-0.2,0-0.4-0.1-0.5-0.3c-0.6-2-1.4-3.9-2.5-5.7c-0.1-0.2-0.1-0.5,0.2-0.7c0.2-0.1,0.5-0.1,0.7,0.2
		c1.1,1.9,1.9,3.9,2.6,6c0.1,0.3-0.1,0.5-0.3,0.6C38.2,150.5,38.1,150.5,38.1,150.5"/>
	<path class="st2" d="M21.7,149c-0.1,0-0.2,0-0.3-0.1c-0.2-0.2-0.2-0.5-0.1-0.7c1.9-2.2,4.5-3.8,7.3-4.5c0.3-0.1,0.5,0.1,0.6,0.4
		c0.1,0.3-0.1,0.5-0.4,0.6c-2.7,0.7-5,2.1-6.8,4.2C21.9,149,21.8,149,21.7,149"/>
	<path class="st2" d="M26.2,150.5c0,0-0.1,0-0.1,0c-0.3-0.1-0.4-0.3-0.3-0.6c0.6-2.1,1.5-4.1,2.6-6c0.1-0.2,0.4-0.3,0.7-0.2
		c0.2,0.1,0.3,0.4,0.2,0.7c-1,1.8-1.9,3.7-2.5,5.7C26.6,150.3,26.4,150.5,26.2,150.5"/>
	<path class="st2" d="M28.7,144.6c-0.2,0-0.4-0.1-0.5-0.4c-0.1-0.3,0.1-0.5,0.4-0.6c2.3-0.6,4.8-0.6,7.1,0c0.3,0.1,0.4,0.3,0.4,0.6
		c-0.1,0.3-0.3,0.4-0.6,0.4c-2.2-0.5-4.5-0.5-6.6,0C28.8,144.6,28.8,144.6,28.7,144.6"/>
	<path class="st2" d="M32.2,151.2c-0.3,0-0.5-0.2-0.5-0.5v-6.5c0-0.3,0.2-0.5,0.5-0.5c0.3,0,0.5,0.2,0.5,0.5v6.5
		C32.7,151,32.5,151.2,32.2,151.2"/>
	<path class="st2" d="M35.6,171.4c-0.2,0-0.4-0.1-0.5-0.4c-0.1-0.3,0.1-0.5,0.4-0.6c2.7-0.7,5-2.1,6.8-4.2c0.2-0.2,0.5-0.2,0.7-0.1
		c0.2,0.2,0.2,0.5,0.1,0.7c-1.9,2.2-4.5,3.8-7.3,4.5C35.7,171.4,35.6,171.4,35.6,171.4"/>
	<path class="st2" d="M35.6,171.4c-0.1,0-0.2,0-0.2-0.1c-0.2-0.1-0.3-0.4-0.2-0.7c1-1.8,1.9-3.7,2.5-5.7c0.1-0.2,0.3-0.4,0.6-0.3
		c1.6,0.4,3.2,0.9,4.6,1.5c0.2,0.1,0.4,0.4,0.3,0.6c-0.1,0.2-0.4,0.4-0.6,0.3c-1.3-0.6-2.6-1-4-1.3c-0.6,1.9-1.4,3.8-2.4,5.5
		C35.9,171.4,35.7,171.4,35.6,171.4"/>
	<path class="st2" d="M28.7,171.4c0,0-0.1,0-0.1,0c-2.8-0.7-5.4-2.3-7.3-4.5c-0.2-0.2-0.2-0.5,0.1-0.7c0.2-0.2,0.5-0.2,0.7,0.1
		c1.8,2.1,4.2,3.6,6.8,4.2c0.3,0.1,0.4,0.3,0.4,0.6C29.1,171.3,28.9,171.4,28.7,171.4"/>
	<path class="st2" d="M28.7,171.4c-0.2,0-0.3-0.1-0.4-0.2c-1-1.7-1.8-3.6-2.4-5.5c-1.4,0.3-2.7,0.8-4,1.3c-0.2,0.1-0.5,0-0.6-0.3
		c-0.1-0.2,0-0.5,0.2-0.6c1.5-0.6,3-1.1,4.6-1.5c0.3-0.1,0.5,0.1,0.6,0.3c0.6,2,1.4,3.9,2.5,5.7c0.1,0.2,0.1,0.5-0.2,0.7
		C28.9,171.4,28.8,171.4,28.7,171.4"/>
	<path class="st2" d="M32.1,171.9c-1.2,0-2.4-0.1-3.5-0.4c-0.3-0.1-0.4-0.3-0.4-0.6c0.1-0.3,0.3-0.4,0.6-0.4c2.2,0.5,4.5,0.5,6.6,0
		c0.3-0.1,0.5,0.1,0.6,0.4c0.1,0.3-0.1,0.5-0.4,0.6C34.5,171.7,33.3,171.9,32.1,171.9"/>
	<path class="st2" d="M32.2,171.3c-0.3,0-0.5-0.2-0.5-0.5v-6.4c0-0.1,0.1-0.3,0.1-0.3c0.1-0.1,0.2-0.1,0.3-0.1c2.2,0,4.2,0.2,6,0.6
		c0.3,0.1,0.4,0.3,0.4,0.6c-0.1,0.3-0.3,0.4-0.6,0.4c-1.6-0.3-3.3-0.5-5.3-0.6v5.9C32.7,171.1,32.5,171.3,32.2,171.3"/>
	<path class="st3" d="M104.6,167.1c-0.1,0-0.2,0-0.3-0.1c-0.2-0.2-0.2-0.5-0.1-0.7c1.9-2.3,3.1-5.1,3.2-8.1h-5.8
		c-0.1,2.4-0.4,4.8-1.1,7c-0.1,0.3-0.3,0.4-0.6,0.3c-0.3-0.1-0.4-0.3-0.3-0.6c0.7-2.4,1-4.8,1.1-7.3c0-0.3,0.2-0.5,0.5-0.5h6.8
		c0.1,0,0.3,0.1,0.3,0.1c0.1,0.1,0.1,0.2,0.1,0.3c0,3.4-1.3,6.6-3.5,9.2C104.9,167,104.8,167.1,104.6,167.1"/>
	<path class="st3" d="M108,158c-0.3,0-0.5-0.2-0.5-0.5c0-3.1-1.1-6.1-3-8.4c-1.2,0.5-2.5,0.9-3.8,1.2c0.6,2.3,1,4.8,1,7.2
		c0,0.3-0.2,0.5-0.5,0.5c-0.3,0-0.5-0.2-0.5-0.5c0-2.5-0.4-5-1.1-7.4c0-0.1,0-0.3,0-0.4c0.1-0.1,0.2-0.2,0.3-0.2
		c1.6-0.3,3.1-0.8,4.5-1.4c0.2-0.1,0.4,0,0.6,0.1c2.2,2.6,3.5,5.9,3.5,9.3C108.5,157.8,108.2,158,108,158"/>
	<path class="st3" d="M83.7,167.1c-0.1,0-0.3-0.1-0.4-0.2c-2.2-2.6-3.5-5.9-3.5-9.3c0-3.4,1.2-6.7,3.5-9.3c0.2-0.2,0.5-0.2,0.7-0.1
		c0.2,0.2,0.2,0.5,0.1,0.7c-2.1,2.4-3.2,5.5-3.2,8.7c0,3.2,1.1,6.3,3.2,8.7c0.2,0.2,0.2,0.5-0.1,0.7C83.9,167,83.8,167.1,83.7,167.1
		"/>
	<path class="st3" d="M88.2,150.5c0,0-0.1,0-0.1,0c-1.6-0.4-3.2-0.9-4.6-1.5c-0.2-0.1-0.4-0.4-0.3-0.6c0.1-0.2,0.4-0.4,0.6-0.3
		c1.4,0.6,2.9,1.1,4.5,1.4c0.3,0.1,0.4,0.3,0.4,0.6C88.6,150.3,88.4,150.5,88.2,150.5"/>
	<path class="st3" d="M86.9,158.2h-6.5c-0.3,0-0.5-0.2-0.5-0.5c0-0.3,0.2-0.5,0.5-0.5h6.5c0.3,0,0.5,0.2,0.5,0.5
		C87.4,158,87.2,158.2,86.9,158.2"/>
	<path class="st3" d="M94.4,158.2h-7.3c-0.3,0-0.5-0.2-0.5-0.5c0-0.1,0-0.1,0-0.2c0-2.6,0.4-5.2,1.1-7.7c0.1-0.2,0.3-0.4,0.6-0.3
		c1.9,0.4,3.8,0.6,5.8,0.6c0,0,0,0,0,0c0.3,0,0.5,0.2,0.5,0.5c0,0.3-0.2,0.5-0.5,0.5c0,0,0,0,0,0c-1.9,0-3.8-0.2-5.6-0.6
		c-0.6,2.2-0.9,4.4-0.9,6.7h6.8c0.3,0,0.5,0.2,0.5,0.5C94.9,158,94.6,158.2,94.4,158.2"/>
	<path class="st3" d="M88.2,165.6c-0.2,0-0.4-0.1-0.5-0.3c-0.7-2.4-1.1-5-1.1-7.5c0-0.3,0.2-0.5,0.5-0.5h0c0.3,0,0.5,0.3,0.5,0.5
		c0,2.3,0.3,4.6,0.9,6.8c1.7-0.4,3.5-0.5,5.2-0.5v-6.1c0-0.3,0.2-0.5,0.5-0.5c0.3,0,0.5,0.2,0.5,0.5v6.6c0,0.2-0.2,0.4-0.4,0.5
		c0,0-0.1,0-0.2,0c-1.9,0-3.9,0.2-5.8,0.6C88.3,165.6,88.2,165.6,88.2,165.6"/>
	<path class="st3" d="M101.2,158.2h-7c-0.3,0-0.5-0.2-0.5-0.5v-7.1c0-0.3,0.2-0.5,0.5-0.5c2,0,3.9-0.2,5.8-0.6
		c0.3-0.1,0.5,0.1,0.6,0.4s-0.1,0.5-0.4,0.6c-1.8,0.4-3.6,0.6-5.5,0.6v6.1h6.5c0.3,0,0.5,0.2,0.5,0.5
		C101.7,158,101.5,158.2,101.2,158.2"/>
	<path class="st3" d="M104.6,149c-0.1,0-0.3-0.1-0.4-0.2c-1.8-2.1-4.2-3.6-6.8-4.2c-0.3-0.1-0.4-0.3-0.4-0.6
		c0.1-0.3,0.3-0.4,0.6-0.4c2.8,0.7,5.4,2.3,7.3,4.5c0.2,0.2,0.2,0.5-0.1,0.7C104.9,149,104.7,149,104.6,149"/>
	<path class="st3" d="M100.1,150.5c-0.2,0-0.4-0.1-0.5-0.3c-0.6-2-1.4-3.9-2.5-5.7c-0.1-0.2-0.1-0.5,0.2-0.7
		c0.2-0.1,0.5-0.1,0.7,0.2c1.1,1.9,1.9,3.9,2.6,6c0.1,0.3-0.1,0.5-0.3,0.6C100.2,150.5,100.1,150.5,100.1,150.5"/>
	<path class="st3" d="M83.7,149c-0.1,0-0.2,0-0.3-0.1c-0.2-0.2-0.2-0.5-0.1-0.7c1.9-2.2,4.5-3.8,7.3-4.5c0.3-0.1,0.5,0.1,0.6,0.4
		c0.1,0.3-0.1,0.5-0.4,0.6c-2.7,0.7-5,2.1-6.8,4.2C83.9,149,83.8,149,83.7,149"/>
	<path class="st3" d="M88.2,150.5c0,0-0.1,0-0.1,0c-0.3-0.1-0.4-0.3-0.3-0.6c0.6-2.1,1.5-4.1,2.6-6c0.1-0.2,0.4-0.3,0.7-0.2
		c0.2,0.1,0.3,0.4,0.2,0.7c-1,1.8-1.9,3.7-2.5,5.7C88.6,150.3,88.4,150.5,88.2,150.5"/>
	<path class="st3" d="M90.7,144.6c-0.2,0-0.4-0.1-0.5-0.4c-0.1-0.3,0.1-0.5,0.4-0.6c2.3-0.6,4.8-0.6,7.1,0c0.3,0.1,0.4,0.3,0.4,0.6
		c-0.1,0.3-0.3,0.4-0.6,0.4c-2.2-0.5-4.5-0.5-6.6,0C90.8,144.6,90.8,144.6,90.7,144.6"/>
	<path class="st3" d="M94.2,151.2c-0.3,0-0.5-0.2-0.5-0.5v-6.5c0-0.3,0.2-0.5,0.5-0.5c0.3,0,0.5,0.2,0.5,0.5v6.5
		C94.7,151,94.5,151.2,94.2,151.2"/>
	<path class="st3" d="M97.6,171.4c-0.2,0-0.4-0.1-0.5-0.4c-0.1-0.3,0.1-0.5,0.4-0.6c2.7-0.7,5-2.1,6.8-4.2c0.2-0.2,0.5-0.2,0.7-0.1
		c0.2,0.2,0.2,0.5,0.1,0.7c-1.9,2.2-4.5,3.8-7.3,4.5C97.7,171.4,97.6,171.4,97.6,171.4"/>
	<path class="st3" d="M97.6,171.4c-0.1,0-0.2,0-0.2-0.1c-0.2-0.1-0.3-0.4-0.2-0.7c1-1.8,1.9-3.7,2.5-5.7c0.1-0.2,0.3-0.4,0.6-0.3
		c1.6,0.4,3.2,0.9,4.6,1.5c0.2,0.1,0.4,0.4,0.3,0.6c-0.1,0.2-0.4,0.4-0.6,0.3c-1.3-0.6-2.6-1-4-1.3c-0.6,1.9-1.4,3.8-2.4,5.5
		C97.9,171.4,97.7,171.4,97.6,171.4"/>
	<path class="st3" d="M90.7,171.4c0,0-0.1,0-0.1,0c-2.8-0.7-5.4-2.3-7.3-4.5c-0.2-0.2-0.2-0.5,0.1-0.7c0.2-0.2,0.5-0.2,0.7,0.1
		c1.8,2.1,4.2,3.6,6.8,4.2c0.3,0.1,0.4,0.3,0.4,0.6C91.1,171.3,90.9,171.4,90.7,171.4"/>
	<path class="st3" d="M90.7,171.4c-0.2,0-0.3-0.1-0.4-0.2c-1-1.7-1.8-3.6-2.4-5.5c-1.4,0.3-2.7,0.8-4,1.3c-0.2,0.1-0.5,0-0.6-0.3
		c-0.1-0.2,0-0.5,0.2-0.6c1.5-0.6,3-1.1,4.6-1.5c0.3-0.1,0.5,0.1,0.6,0.3c0.6,2,1.4,3.9,2.5,5.7c0.1,0.2,0.1,0.5-0.2,0.7
		C90.9,171.4,90.8,171.4,90.7,171.4"/>
	<path class="st3" d="M94.1,171.9c-1.2,0-2.4-0.1-3.5-0.4c-0.3-0.1-0.4-0.3-0.4-0.6c0.1-0.3,0.3-0.4,0.6-0.4c2.2,0.5,4.5,0.5,6.6,0
		c0.3-0.1,0.5,0.1,0.6,0.4c0.1,0.3-0.1,0.5-0.4,0.6C96.5,171.7,95.3,171.9,94.1,171.9"/>
	<path class="st3" d="M94.2,171.3c-0.3,0-0.5-0.2-0.5-0.5v-6.4c0-0.1,0.1-0.3,0.1-0.3c0.1-0.1,0.2-0.1,0.3-0.1c2.2,0,4.2,0.2,6,0.6
		c0.3,0.1,0.4,0.3,0.4,0.6c-0.1,0.3-0.3,0.4-0.6,0.4c-1.6-0.3-3.3-0.5-5.3-0.6v5.9C94.7,171.1,94.5,171.3,94.2,171.3"/>
	<g id="New_Symbol_63_1_" class="st0">
	</g>
	<g id="New_Symbol_63" class="st0">
	</g>
	<path class="st5" d="M33.6,642.5c-3,0-7.6,1.4-7.6,6.9c0,2.7,6,12.4,7.6,15.1c1.5-2.7,7.6-12.4,7.6-15.1
		C41.1,643.9,36.6,642.5,33.6,642.5z M33.6,651.8c-1.4,0-2.5-1.1-2.5-2.5c0-1.4,1.1-2.5,2.5-2.5c1.4,0,2.5,1.1,2.5,2.5
		C36,650.7,34.9,651.8,33.6,651.8z"/>
	<path class="st6" d="M94.5,642.5c-3,0-7.6,1.4-7.6,6.9c0,2.7,6,12.4,7.6,15.1c1.5-2.7,7.6-12.4,7.6-15.1
		C102.1,643.9,97.5,642.5,94.5,642.5z M94.5,651.8c-1.4,0-2.5-1.1-2.5-2.5c0-1.4,1.1-2.5,2.5-2.5s2.5,1.1,2.5,2.5
		C97,650.7,95.9,651.8,94.5,651.8z"/>
	<g>
		<g class="st5">
			<g>
				<rect x="30.2" y="710.9" width="5.3" height="5.3"/>
			</g>
			<g>
				<rect x="30.2" y="704.1" width="5.3" height="5.3"/>
			</g>
			<g>
				<rect x="30.2" y="717.8" width="5.3" height="5.3"/>
			</g>
			<g>
				<rect x="37.1" y="710.9" width="5.3" height="5.3"/>
			</g>
			<g>
				<rect x="37.1" y="704.1" width="5.3" height="5.3"/>
			</g>
			<g>
				<rect x="37.1" y="717.8" width="5.3" height="5.3"/>
			</g>
			<g>
				<rect x="23.4" y="710.9" width="5.3" height="5.3"/>
			</g>
			<g>
				<rect x="23.4" y="704.1" width="5.3" height="5.3"/>
			</g>
			<g>
				<rect x="23.4" y="717.8" width="5.3" height="5.3"/>
			</g>
		</g>
	</g>
	<g>
		<g class="st5">
			<polygon points="24.4,781.8 24.4,782.5 24.4,784.4 24.4,785.2 40.7,785.2 40.7,784.4 40.7,782.5 40.7,781.8 			"/>
			<polygon points="24.4,776.6 24.4,777.3 24.4,779.2 24.4,780 41.8,780 41.8,779.2 41.8,777.3 41.8,776.6 			"/>
			<polygon points="24.4,766.2 24.4,767 24.4,768.9 24.4,769.6 41.8,769.6 41.8,768.9 41.8,767 41.8,766.2 			"/>
			<polygon points="24.4,771.4 24.4,772.2 24.4,774 24.4,774.8 39.1,774.8 39.1,774 39.1,772.2 39.1,771.4 			"/>
		</g>
	</g>
	<g>
		<g class="st5">
			<path d="M35.7,844.1c-4.4,0-7.9-3.4-7.9-7.7c0-4.2,3.5-7.7,7.9-7.7s7.9,3.4,7.9,7.7C43.7,840.7,40.1,844.1,35.7,844.1z
				 M35.7,831.2c-3,0-5.4,2.3-5.4,5.2c0,2.9,2.4,5.2,5.4,5.2s5.4-2.3,5.4-5.2C41.2,833.6,38.7,831.2,35.7,831.2z"/>
			<path class="st7" d="M29.3,841.8l-4.9,4.7c-0.3,0.3-0.3,0.7,0,1c0.1,0.1,0.3,0.2,0.5,0.2s0.4-0.1,0.5-0.2l4.9-4.7
				c0.3-0.3,0.3-0.7,0-1S29.6,841.5,29.3,841.8z"/>
		</g>
	</g>
	<g class="st5">
		<g>
			<rect x="92.2" y="710.9" class="st8" width="5.3" height="5.3"/>
		</g>
		<g>
			<rect x="92.2" y="704.1" class="st8" width="5.3" height="5.3"/>
		</g>
		<g>
			<rect x="92.2" y="717.8" class="st8" width="5.3" height="5.3"/>
		</g>
		<g>
			<rect x="99.1" y="710.9" class="st8" width="5.3" height="5.3"/>
		</g>
		<g>
			<rect x="99.1" y="704.1" class="st8" width="5.3" height="5.3"/>
		</g>
		<g>
			<rect x="99.1" y="717.8" class="st8" width="5.3" height="5.3"/>
		</g>
		<g>
			<rect x="85.4" y="710.9" class="st8" width="5.3" height="5.3"/>
		</g>
		<g>
			<rect x="85.4" y="704.1" class="st8" width="5.3" height="5.3"/>
		</g>
		<g>
			<rect x="85.4" y="717.8" class="st8" width="5.3" height="5.3"/>
		</g>
	</g>
	<g>
		<g class="st5">
			<polygon class="st8" points="86.4,781.8 86.4,782.5 86.4,784.4 86.4,785.2 102.7,785.2 102.7,784.4 102.7,782.5 102.7,781.8 			
				"/>
			<polygon class="st8" points="86.4,776.6 86.4,777.3 86.4,779.2 86.4,780 103.8,780 103.8,779.2 103.8,777.3 103.8,776.6 			"/>
			<polygon class="st8" points="86.4,766.2 86.4,767 86.4,768.9 86.4,769.6 103.8,769.6 103.8,768.9 103.8,767 103.8,766.2 			"/>
			<polygon class="st8" points="86.4,771.4 86.4,772.2 86.4,774 86.4,774.8 101.1,774.8 101.1,774 101.1,772.2 101.1,771.4 			"/>
		</g>
	</g>
	<path class="st8" d="M97.7,844.1c-4.4,0-7.9-3.4-7.9-7.7c0-4.2,3.5-7.7,7.9-7.7c4.4,0,7.9,3.4,7.9,7.7
		C105.7,840.7,102.1,844.1,97.7,844.1z M97.7,831.2c-3,0-5.4,2.3-5.4,5.2c0,2.9,2.4,5.2,5.4,5.2s5.4-2.3,5.4-5.2
		C103.2,833.6,100.7,831.2,97.7,831.2z"/>
	<path class="st9" d="M91.3,841.8l-4.9,4.7c-0.3,0.3-0.3,0.7,0,1c0.1,0.1,0.3,0.2,0.5,0.2c0.2,0,0.4-0.1,0.5-0.2l4.9-4.7
		c0.3-0.3,0.3-0.7,0-1C92,841.5,91.6,841.5,91.3,841.8z"/>
	<g>
		<g>
			<path class="st2" d="M46.3,536.1l-11.7-11.7c-0.2-0.2-0.6-0.2-0.8,0s-0.2,0.6,0,0.8L45,536.4l-1.9,1.9l-10.4-10.4
				c-0.2-0.2-0.6-0.2-0.8,0c-0.2,0.2-0.2,0.6,0,0.8l10.9,10.9c0.1,0.1,0.2,0.2,0.4,0.2s0.3-0.1,0.4-0.2l2.7-2.7
				C46.5,536.6,46.5,536.3,46.3,536.1z"/>
			<path class="st2" d="M29.1,527.5l4.8-4.8c1.4-1.4,5.1-3.3,5.1-3.4c0.2-0.1,0.3-0.4,0.2-0.7c-0.1-0.2-0.4-0.3-0.7-0.2
				c-0.2,0.1-3.9,2.1-5.3,3.5l-5.2,5.2l0,0c-0.2,0.2-0.2,0.6,0,0.8l0.6,0.6l-1.6,1.6l-4.7-4.7l1.6-1.6l0.6,0.6
				c0.2,0.2,0.6,0.2,0.8,0l0,0l4.7-4.7c1.9-1.9,5.8-1.7,7.3-2l0.2-0.1c0.3-0.1,0.4-0.3,0.4-0.6s-0.3-0.4-0.6-0.4l-0.2,0.1
				c-1.6,0.3-5.8,0.2-7.8,2.3l-4.3,4.3l-0.7-0.6c-0.2-0.2-0.6-0.2-0.8,0l-2.3,2.3c-0.1,0.1-0.2,0.2-0.2,0.4c0,0.1,0.1,0.3,0.2,0.4
				l5.4,5.4c0.1,0.1,0.2,0.2,0.4,0.2c0.1,0,0.3-0.1,0.4-0.2l2.3-2.3c0.1-0.1,0.2-0.2,0.2-0.4c0-0.1-0.1-0.3-0.2-0.4L29.1,527.5z"/>
		</g>
	</g>
	<g>
		<g>
			<path d="M107.1,536.1l-11.7-11.7c-0.2-0.2-0.6-0.2-0.8,0c-0.2,0.2-0.2,0.6,0,0.8l11.2,11.2l-1.9,1.9l-10.4-10.4
				c-0.2-0.2-0.6-0.2-0.8,0c-0.2,0.2-0.2,0.6,0,0.8l10.9,10.9c0.1,0.1,0.2,0.2,0.4,0.2c0.2,0,0.3-0.1,0.4-0.2l2.7-2.7
				C107.3,536.6,107.3,536.3,107.1,536.1z"/>
			<path d="M89.9,527.5l4.8-4.8c1.4-1.4,5.1-3.3,5.1-3.4c0.2-0.1,0.3-0.4,0.2-0.7c-0.1-0.2-0.4-0.3-0.7-0.2
				c-0.2,0.1-3.9,2.1-5.3,3.5l-5.2,5.2l0,0c-0.2,0.2-0.2,0.6,0,0.8l0.6,0.6l-1.6,1.6l-4.7-4.7l1.6-1.6l0.6,0.6
				c0.2,0.2,0.6,0.2,0.8,0l0,0l4.7-4.7c1.9-1.9,5.8-1.7,7.3-2l0.2-0.1c0.3-0.1,0.4-0.3,0.4-0.6s-0.3-0.4-0.6-0.4l-0.2,0.1
				c-1.6,0.3-5.8,0.2-7.8,2.3l-4.3,4.3l-0.7-0.6c-0.2-0.2-0.6-0.2-0.8,0L82,525c-0.1,0.1-0.2,0.2-0.2,0.4c0,0.1,0.1,0.3,0.2,0.4
				l5.4,5.4c0.1,0.1,0.2,0.2,0.4,0.2c0.1,0,0.3-0.1,0.4-0.2l2.3-2.3c0.1-0.1,0.2-0.2,0.2-0.4c0-0.1-0.1-0.3-0.2-0.4L89.9,527.5z"/>
		</g>
	</g>
	<g>
		<g>
			<path class="st2" d="M46.8,215.3c-1.8-2.7-4.4-4.7-7.5-5.7c-1.3-0.4-2.7-0.4-3.9-0.4c-1.9,0-3.9,0.4-5.7,1.1l-3.8-1.6l-0.2,0.1
				c-0.1,0.1-4.2,3.7-5,8.2c0,0.3,0.1,0.5,0.4,0.5h0.1c0.2,0,0.4-0.2,0.5-0.4c0.6-3.5,3.7-7,4.3-7.5l2.6,1.1
				c-0.3,0.1-0.5,0.3-0.8,0.4c-3.5,2-5.9,5.3-6.9,9.2c-1,3.9-0.4,7.9,1.6,11.4c1.9,3.2,4.9,5.6,8.4,6.7c0.2,0.1,0.4,0,0.5-0.2
				s0.1-0.4-0.1-0.6c-0.6-0.6-1.2-1.3-1.6-2c-2.7-4.5-1.2-10.4,3.3-13c0.2-0.1,0.4-0.2,0.5-0.3l0.4,2.1h-1.7c-0.3,0-0.5,0.2-0.5,0.5
				c0,0.3,0.2,0.5,0.5,0.5h2.1c0.3,0,0.5-0.2,0.5-0.5l-0.5-3.2c0-0.3-0.2-0.5-0.5-0.5c0,0,0,0-0.1,0c0,0,0,0-0.1,0
				c-0.1,0-0.1,0-0.2,0l0,0c-0.3,0.2-0.7,0.3-1,0.5c-4.9,2.9-6.6,9.3-3.7,14.3l0.5,0.8l-0.8-0.4c-2.2-1.2-4-3-5.3-5.2
				c-1.9-3.2-2.5-7-1.5-10.7c0.9-3.7,3.2-6.7,6.5-8.6c2.1-1.3,4.5-1.9,6.9-2c0.1,0,1,0,2,0.1c0.8,0.1,1.7,0.3,1.8,0.3
				c2.7,0.8,5.1,2.6,6.7,4.9l0.1,0.2l-0.1,0.1c-1.7,2.3-4.2,4-7,4.7h-0.1c-2.9,0-4.3-1.8-4.3-5.4c0-0.2-0.2-0.4-0.4-0.4
				s-0.4,0.2-0.4,0.4c0,4.2,1.8,6.3,5.3,6.3c0.1,0,0.1,0,0.2,0l0,0c3.2-0.8,5.9-2.8,7.8-5.5C46.9,215.7,46.9,215.5,46.8,215.3z"/>
			<circle class="st2" cx="40" cy="214.3" r="0.7"/>
			<path class="st2" d="M37.1,235.2c-0.5-2.5-2.8-4.2-2.9-4.3c-0.1-0.1-0.3-0.1-0.4-0.1c-0.1,0-0.2,0.1-0.3,0.3
				c-1.9,4.6-0.1,7.5-0.1,7.6c0.1,0.1,0.1,0.1,0.2,0.2c0.1,0,1.2,0.4,3,0.4c1.6,0,3.8-0.3,6.3-1.4c0.2-0.1,0.3-0.2,0.3-0.4
				c0-0.2-0.1-0.3-0.2-0.4C42.9,237,40.1,235.4,37.1,235.2z M34.1,238.1c-0.3-0.6-1.2-2.7,0-6.1c0.7,0.7,1.9,2,2.1,3.7
				c0,0.2,0.2,0.4,0.4,0.4c2,0,4,0.8,5.1,1.3C37.9,238.9,34.8,238.3,34.1,238.1z"/>
		</g>
	</g>
	<g>
		<path d="M108.9,215.3c-1.8-2.7-4.4-4.7-7.5-5.7c-1.3-0.4-2.7-0.4-3.9-0.4c-1.9,0-3.9,0.4-5.7,1.1l-3.8-1.6l-0.2,0.1
			c-0.1,0.1-4.2,3.7-5,8.2c0,0.3,0.1,0.5,0.4,0.5h0.1c0.2,0,0.4-0.2,0.5-0.4c0.6-3.5,3.7-7,4.3-7.5l2.6,1.1
			c-0.3,0.1-0.5,0.3-0.8,0.4c-3.5,2-5.9,5.3-6.9,9.2c-1,3.9-0.4,7.9,1.6,11.4c1.9,3.2,4.9,5.6,8.4,6.7c0.2,0.1,0.4,0,0.5-0.2
			s0.1-0.4-0.1-0.6c-0.6-0.6-1.2-1.3-1.6-2c-2.7-4.5-1.2-10.4,3.3-13c0.2-0.1,0.4-0.2,0.5-0.3l0.4,2.1h-1.7c-0.3,0-0.5,0.2-0.5,0.5
			c0,0.3,0.2,0.5,0.5,0.5h2.1c0.3,0,0.5-0.2,0.5-0.5l-0.5-3.2c0-0.3-0.2-0.5-0.5-0.5c0,0,0,0-0.1,0c0,0,0,0-0.1,0s-0.1,0-0.2,0l0,0
			c-0.3,0.2-0.7,0.3-1,0.5c-4.9,2.9-6.6,9.3-3.7,14.3l0.5,0.8l-0.8-0.4c-2.2-1.2-4-3-5.3-5.2c-1.9-3.2-2.5-7-1.5-10.7
			c0.9-3.7,3.2-6.7,6.5-8.6c2.1-1.3,4.5-1.9,6.9-2c0.1,0,1,0,2,0.1c0.8,0.1,1.7,0.3,1.8,0.3c2.7,0.8,5.1,2.6,6.7,4.9l0.1,0.2
			l-0.1,0.1c-1.7,2.3-4.2,4-7,4.7h-0.1c-2.9,0-4.3-1.8-4.3-5.4c0-0.2-0.2-0.4-0.4-0.4c-0.2,0-0.4,0.2-0.4,0.4c0,4.2,1.8,6.3,5.3,6.3
			c0.1,0,0.1,0,0.2,0l0,0c3.2-0.8,5.9-2.8,7.8-5.5C109,215.7,109,215.5,108.9,215.3z"/>
		<circle cx="102.1" cy="214.3" r="0.7"/>
		<path d="M99.2,235.2c-0.5-2.5-2.8-4.2-2.9-4.3c-0.1-0.1-0.3-0.1-0.4-0.1s-0.2,0.1-0.3,0.3c-1.9,4.6-0.1,7.5-0.1,7.6
			c0.1,0.1,0.1,0.1,0.2,0.2c0.1,0,1.2,0.4,3,0.4c1.6,0,3.8-0.3,6.3-1.4c0.2-0.1,0.3-0.2,0.3-0.4c0-0.2-0.1-0.3-0.2-0.4
			C105,237,102.2,235.4,99.2,235.2z M96.2,238.1c-0.3-0.6-1.2-2.7,0-6.1c0.7,0.7,1.9,2,2.1,3.7c0,0.2,0.2,0.4,0.4,0.4
			c2,0,4,0.8,5.1,1.3C100,238.9,96.9,238.3,96.2,238.1z"/>
	</g>
	<g>
		<g>
			<path class="st2" d="M33.5,402.4c-1.4,0-2.5,1.1-2.5,2.4c0,1.3,1.1,2.4,2.5,2.4c1.4,0,2.5-1.1,2.5-2.4
				C35.9,403.5,34.8,402.4,33.5,402.4z M33.5,406.1c-0.7,0-1.3-0.6-1.3-1.3c0-0.7,0.6-1.3,1.3-1.3c0.7,0,1.3,0.6,1.3,1.3
				C34.8,405.5,34.2,406.1,33.5,406.1z"/>
			<path class="st2" d="M33.5,399.4c-3,0-5.5,2.4-5.5,5.4s2.5,5.4,5.5,5.4s5.5-2.4,5.5-5.4S36.5,399.4,33.5,399.4z M33.5,409.1
				c-2.4,0-4.4-1.9-4.4-4.3s2-4.3,4.4-4.3c2.4,0,4.4,1.9,4.4,4.3C37.9,407.2,35.9,409.1,33.5,409.1z"/>
			<path class="st2" d="M48.8,404.4c-4.1-4.8-9.6-7.5-15.3-7.5s-11.2,2.7-15.3,7.5l-0.3,0.4l0.3,0.4c4.1,4.8,9.6,7.5,15.3,7.5
				s11.1-2.7,15.3-7.5l0.3-0.4L48.8,404.4z M33.5,411.5c-5.2,0-10.2-2.4-14.1-6.7c3.9-4.3,8.9-6.7,14.1-6.7c5.2,0,10.2,2.4,14.1,6.7
				C43.7,409.1,38.7,411.5,33.5,411.5z"/>
		</g>
	</g>
	<g>
		<g>
			<path d="M94.2,402.4c-1.4,0-2.5,1.1-2.5,2.4c0,1.3,1.1,2.4,2.5,2.4c1.4,0,2.5-1.1,2.5-2.4C96.6,403.5,95.5,402.4,94.2,402.4z
				 M94.2,406.1c-0.7,0-1.3-0.6-1.3-1.3c0-0.7,0.6-1.3,1.3-1.3c0.7,0,1.3,0.6,1.3,1.3C95.5,405.5,94.9,406.1,94.2,406.1z"/>
			<path d="M94.2,399.4c-3,0-5.5,2.4-5.5,5.4s2.5,5.4,5.5,5.4c3,0,5.5-2.4,5.5-5.4S97.2,399.4,94.2,399.4z M94.2,409.1
				c-2.4,0-4.4-1.9-4.4-4.3s2-4.3,4.4-4.3c2.4,0,4.4,1.9,4.4,4.3C98.6,407.2,96.6,409.1,94.2,409.1z"/>
			<path d="M109.5,404.4c-4.1-4.8-9.6-7.5-15.3-7.5c-5.7,0-11.2,2.7-15.3,7.5l-0.3,0.4l0.3,0.4c4.1,4.8,9.6,7.5,15.3,7.5
				s11.1-2.7,15.3-7.5l0.3-0.4L109.5,404.4z M94.2,411.5c-5.2,0-10.2-2.4-14.1-6.7c3.9-4.3,8.9-6.7,14.1-6.7
				c5.2,0,10.2,2.4,14.1,6.7C104.4,409.1,99.4,411.5,94.2,411.5z"/>
		</g>
	</g>
	<g>
		<g>
			<path class="st2" d="M43.5,34c-0.3,0-0.5,0.2-0.5,0.5v10H24.8v-10c0-0.3-0.2-0.5-0.5-0.5s-0.5,0.2-0.5,0.5V45
				c0,0.3,0.2,0.5,0.5,0.5h19.1c0.3,0,0.5-0.2,0.5-0.5V34.5C43.9,34.2,43.7,34,43.5,34z"/>
			<path class="st2" d="M46.2,32.7L34.4,21.8c-0.1-0.1-0.3-0.1-0.4-0.1c-0.1,0-0.3,0-0.4,0.1L21.7,32.7c-0.2,0.2-0.2,0.5,0,0.7
				c0.1,0.1,0.2,0.2,0.4,0.2c0.1,0,0.2,0,0.3-0.1L34,22.8l11.6,10.6c0.1,0.1,0.2,0.1,0.3,0.1s0.3-0.1,0.4-0.2
				C46.4,33.2,46.4,32.9,46.2,32.7z"/>
			<path class="st2" d="M27.7,39.4h8.4c0.3,0,0.5-0.2,0.5-0.5s-0.2-0.5-0.5-0.5h-8.4c-0.3,0-0.5,0.2-0.5,0.5
				C27.2,39.2,27.5,39.4,27.7,39.4z"/>
			<path class="st2" d="M27.7,36.5h5.8c0.3,0,0.5-0.2,0.5-0.5s-0.2-0.5-0.5-0.5h-5.8c-0.3,0-0.5,0.2-0.5,0.5
				C27.2,36.2,27.5,36.5,27.7,36.5z"/>
			<path class="st2" d="M27.7,33.5H31c0.3,0,0.5-0.2,0.5-0.5s-0.2-0.5-0.5-0.5h-3.2c-0.3,0-0.5,0.2-0.5,0.5
				C27.2,33.3,27.5,33.5,27.7,33.5z"/>
		</g>
	</g>
	<g>
		<g>
			<path d="M104,34c-0.3,0-0.5,0.2-0.5,0.5v10H85.3v-10c0-0.3-0.2-0.5-0.5-0.5c-0.3,0-0.5,0.2-0.5,0.5V45c0,0.3,0.2,0.5,0.5,0.5
				h19.1c0.3,0,0.5-0.2,0.5-0.5V34.5C104.4,34.2,104.2,34,104,34z"/>
			<path d="M106.7,32.7L94.9,21.8c-0.1-0.1-0.3-0.1-0.4-0.1c-0.1,0-0.3,0-0.4,0.1L82.2,32.7c-0.2,0.2-0.2,0.5,0,0.7
				c0.1,0.1,0.2,0.2,0.4,0.2c0.1,0,0.2,0,0.3-0.1l11.6-10.7l11.6,10.6c0.1,0.1,0.2,0.1,0.3,0.1s0.3-0.1,0.4-0.2
				C106.9,33.2,106.9,32.9,106.7,32.7z"/>
			<path d="M88.2,39.4h8.4c0.3,0,0.5-0.2,0.5-0.5s-0.2-0.5-0.5-0.5h-8.4c-0.3,0-0.5,0.2-0.5,0.5S88,39.4,88.2,39.4z"/>
			<path d="M88.2,36.5H94c0.3,0,0.5-0.2,0.5-0.5s-0.2-0.5-0.5-0.5h-5.8c-0.3,0-0.5,0.2-0.5,0.5C87.7,36.2,88,36.5,88.2,36.5z"/>
			<path d="M88.2,33.5h3.3c0.3,0,0.5-0.2,0.5-0.5s-0.2-0.5-0.5-0.5h-3.2c-0.3,0-0.5,0.2-0.5,0.5C87.7,33.3,88,33.5,88.2,33.5z"/>
		</g>
	</g>
	<g>
		<defs>
			<rect id="SVGID_1_" x="8" y="880.6" width="51.2" height="32.3"/>
		</defs>
		<clipPath id="SVGID_2_">
			<use xlink:href="#SVGID_1_"  style="overflow:visible;"/>
		</clipPath>
		<path class="st10" d="M19.2,890.9c0.1,0,0.5,0.7,0.4,1.4c-0.1,0-0.1,0-0.2,0.1c0,0-0.1,0-0.1,0.1c0,0,0,0.1,0,0.1c0,0,0,0,0,0.1
			c0,0,0,0.1,0,0.1c0,0,0,0.1,0,0.1c0,0,0,0.3,0,0.3c0,0,0,0.2,0,0.2c0,0,0,0,0,0l0.1,0l0,0.1l0.1,0.1l0,0.4l0,0V894
			c0,0,0.1,0,0.1-0.1c0,0,0.1,0,0,0.1c0,0-0.1,0-0.1,0l0,0.1l-0.1,0.1c0,0,0,0.4-0.1,0.5c0,0,0.1,0,0.1,0.1c0,0,0.1,0,0.1,0
			c0,0,0.1,0,0,0.1c0,0,0,0.1,0,0.1s0,0.1,0.1,0.2c0,0,0,0.1,0.1,0.1c0,0,0,0.1-0.1,0.1c0,0-0.2,0-0.3-0.2c0,0,0-0.1,0-0.1
			s0-0.1,0-0.1c0,0,0,0,0,0l-0.1,0.4c0,0-0.1,0-0.1,0.1c0,0,0,0.1,0,0.1c0,0,0.1,0.2,0.2,0.3c0,0,0,0.1,0,0.1l-0.1,0.1
			c0,0,0,0.1,0,0c0,0,0-0.2,0-0.3c0,0,0-0.1,0-0.1c0,0,0,0.3,0,0.3c0,0,0,0.2-0.1,0.2c0,0,0.1,0,0.1,0l0,0.3c0,0,0.1,0,0,0.1
			c0,0-0.1,0-0.1,0l0,0.3l0,0.1c0,0,0,0.2,0,0.2s0-0.1,0.1-0.1c0,0,0.1,0.1,0.1,0.1c0,0,0,0,0,0s0-0.1,0-0.1c0,0-0.1,0.2-0.1,0.2
			c0,0,0,0.3-0.1,0.4c0,0,0,0.1,0,0.1c0,0,0,0,0,0.1c0,0,0,0,0,0s0,0.1,0,0.1c0,0,0,0,0,0l0,0c0,0,0,0,0,0.1c0,0-0.1,0.4-0.1,0.5
			c0,0,0,0,0,0l0,0c0,0,0,0,0,0.1c0,0,0,0,0,0l0.1,0c0,0,0,0.1-0.1,0.1c0,0,0,0,0,0s0-0.1,0-0.2c0,0-0.1,0.3-0.1,0.5c0,0,0,0,0,0
			c0,0,0,0,0,0c0,0,0,0.1,0,0.1s0,0,0,0c0,0,0,0.1,0,0.1l0,0c0,0,0,0,0,0.1c0,0,0,0,0,0.1c0,0,0,0,0,0.1c0,0,0,0.1,0,0.1
			c0,0,0,0.1,0,0.1c0,0,0,0.2,0,0.2s0,0.2-0.1,0.2c0,0,0,0,0,0s0,0,0,0c0,0,0.1,0,0.1,0s0,0,0,0.2c0,0,0,0.1,0,0.1s0.1,0,0.1-0.1
			c0,0,0.1,0,0.1,0.1c0,0,0,0,0,0s0.1,0,0.1,0.1c0,0,0,0,0,0.1c0,0,0,0,0,0s0,0,0,0.1c0,0,0,0,0,0c0,0,0-0.1,0-0.1c0,0-0.1,0,0,0
			c0,0,0,0,0,0c0,0,0,0,0,0c0,0,0,0,0,0c0,0,0,0.2,0,0.2c0,0,0,0.4,0,0.4c0,0,0,0.1,0,0.1c0,0,0,0.4,0,0.4c0,0,0,0.1,0,0
			c0,0,0.1-0.1,0.1-0.1c0,0,0.1-0.1,0.1,0c0,0,0.1,0,0,0.1c0,0,0,0,0,0.1c0,0,0.1,0,0.1,0c0,0-0.1,0-0.1,0s0,0.1,0,0
			c0,0,0-0.1,0-0.1c0,0-0.1,0-0.1,0c0,0-0.1,0.1-0.1,0.1c0,0-0.1,0.5-0.1,0.6c0,0,0,0,0,0l-0.1,0.1l0,0.6l0,0c0,0,0,0.2,0,0.2
			c0,0,0,0,0,0.1c0,0,0,0.1,0,0.1c0,0,0,0.5,0,0.5c0,0-0.1,0.8-0.1,0.8l0,0.1l0,0c0,0-0.1,1-0.2,1.1c0,0.1,0,0.1,0,0.1
			c0,0-0.2,1.2-0.5,1.7c0,0,0,0,0,0c0,0,0-0.1,0-0.1s0.1-0.1,0.1-0.1c0,0,0.1,0,0.1-0.1c0,0,0.1-0.1,0.1,0c0,0,0,0,0,0
			c0,0,0,0,0.1,0c0,0,0-0.2,0-0.2c0,0,0,0,0,0l0,0.1c0,0,0,0,0.1,0c0,0,0,0,0.1-0.1c0,0,0,0,0,0c0,0,0,0.1,0,0.1c0,0,0,0.1,0,0.1
			c0,0-0.1,0.1-0.1,0.1c0,0,0.1,0,0.1,0.1c0,0,0.1,0,0.1,0s-0.1,0.1,0,0.1c0,0,0,0,0,0.1c0,0,0.1,0,0.1,0c0,0,0,0.1,0,0.1
			c0,0-0.1,0-0.1-0.1c0,0-0.1,0-0.1,0c0,0-0.1,0,0-0.1v-0.1c0,0,0,0,0-0.1c0,0,0-0.1-0.1,0c0,0,0,0,0,0.1c0,0-0.1,0.1,0,0
			c0,0,0-0.1,0,0c0,0-0.1,0.1-0.1,0.1c0,0-0.1,0,0,0.1c0,0,0,0.1-0.1,0.1c0,0,0,0.1,0,0.1c0,0-0.1,0-0.1,0.1c0,0,0,0.1,0,0
			c0,0,0-0.1,0.1,0c0,0,0,0,0,0c0,0-0.1,0-0.1,0c0,0,0,0,0,0.1c0,0,0,0.1,0,0.1c0,0,0,0,0,0.1c0,0,0-0.1,0-0.1c0,0,0,0.1,0,0.1
			c0,0,0-0.2,0-0.2c0,0,0,0,0,0c0,0,0-0.1,0-0.1c0,0,0-0.1-0.1,0c0,0,0,0.1-0.1,0.1c0,0-0.1,0.2-0.1,0.2c0,0,0.1,0.2,0.1,0.2
			s0,0.3,0,0.3c0,0,0,0.4-0.1,0.5c0,0-0.1,0.1-0.1,0.1c0,0.1,0,0.1,0,0.1c0,0,0,0.1,0,0.1c0,0,0,0.1,0,0.1c0,0-0.2,0.6-0.2,0.6
			c0,0-0.2,0.5-0.2,0.4c0,0,0,0.1,0,0.1c0,0-0.1,0.1-0.1,0.1c0,0,0.1,0.1,0.1,0.1c0,0,0.1,0.4,0.1,0.5c0,0,0,0,0.1,0
			c0,0,0-0.1,0.1,0c0,0,0.1,0.1,0.1,0.2c0,0.1,0.1,0.2,0.1,0.2c0,0,0,0.1,0,0.1l0.1,0.1c0,0,0,0.1,0,0.1s0.1,0.1,0,0.2
			c0,0,0.1,0.2,0.1,0.2c0,0-0.1,0.3-0.1,0.4c0,0,0,0.1,0,0.1c0,0,0,0.1,0,0.1s0,0.1,0,0.1c0,0-0.1,0.1,0,0.2c0,0,0,0.1,0,0.1
			c0,0,0,0.4,0,0.4s0,0,0,0.1c0,0,0.1,0,0.1,0.1c0,0,0,0.3,0,0.3c0,0,0,0,0,0c0,0,0,0.1,0,0c0,0,0.1,0.1,0.1,0.1c0,0,0,0.1,0,0.1
			c0,0,0,0,0,0s0,0,0,0c0,0,0,0.1,0,0.1c0,0,0,0,0,0c0,0,0,0,0,0c0,0,0,0.1,0,0.1c0,0,0,0.1,0,0.1c0,0,0,0.1,0,0.1s0,0,0,0
			c0,0,0,0,0,0.1c0,0,0,0,0,0c0,0,0,0.1,0.1,0.1c0,0,0,0.1,0,0.1c0,0,0,0,0.1,0c0,0,0,0.1,0,0.1c0,0,0,0,0,0l0.1,0
			c0,0,0.1,0.1,0.1,0.1c0,0,0,0.1,0.1,0.1c0,0,0.1,0.1,0.1,0.1c0,0,2.3,0,2.3,0l1.7-0.1l1.4,0l1.2,0l1.3,0l1.5,0l3.1,0h2.8l1.5,0
			l3.1,0l4.7,0l4.8-0.1l0-9.6c0,0-0.1,0-0.2,0c0,0-0.1-0.1-0.1-0.1c0,0,0-0.1,0-0.1c0-0.1,0.1-0.1,0.1-0.1c0,0,0.1,0,0.1-0.1
			c0,0,0-0.1,0-0.1s0-0.1,0-0.1c0,0,0-0.1,0-0.1c0,0,0-0.1,0-0.1c0,0-0.1-0.1,0-0.1c0,0,0.1,0,0.1,0s0-0.1,0-0.1c0,0,0-0.1,0.1-0.1
			c0,0,0.1,0,0.1-0.1c0,0,0-0.1,0-0.1c0,0,0-0.1,0-0.1s-0.1-0.1,0-0.1h0l0-0.1c0,0-0.1,0,0-0.1c0,0,0,0,0-0.1c0,0,0,0,0,0s0-0.1,0,0
			c0,0,0-0.1,0-0.1s0.1,0,0-0.1c0,0,0,0,0,0s0.1,0,0.1,0c0,0,0,0,0,0c0,0,0,0,0-0.1c0,0,0,0,0.1,0c0,0,0.1-0.1,0-0.2
			c0,0-0.1-0.1-0.1-0.1c0,0,0-0.2,0-0.2s0.1-0.1,0.1,0c0,0,0-0.1,0-0.1c0,0,0-0.1,0.1-0.1c0,0,0-0.1,0.1-0.1c0,0,0-0.1,0-0.1
			s-0.1-0.1-0.1-0.1c0,0-0.1,0-0.1,0s0,0,0-0.1c0,0,0-0.1,0-0.1c0,0,0,0.1,0,0.1c0,0,0-0.2,0-0.2l-0.2,0c0,0,0,0.1,0,0.1
			c0,0-0.1,0-0.1,0c0,0-0.1,0-0.1-0.1c0,0-0.1-0.1-0.1-0.1c0,0-0.1-0.1-0.1,0c0,0-0.1,0.2-0.1,0.1c0,0-0.2-0.1-0.2-0.1
			c0,0-0.1-0.1-0.1-0.1c0,0-0.1-0.1,0-0.1c0.1-0.1,0.1-0.1,0.1-0.1c0,0,0,0,0,0c0,0,0-0.1-0.1-0.2c0,0-0.1-0.1-0.1-0.2
			c0.1,0,0.1,0,0.1,0c0,0,0,0,0,0s0,0,0,0c0,0,0-0.2,0-0.3c0,0,0-0.1,0.1-0.1c0,0,0.1-0.1,0.1-0.2c0,0,0.1,0,0.1-0.1
			c0,0,0.1-0.1,0.1-0.1c0,0,0-0.2,0.1-0.2c0,0,0-0.1,0-0.1s0-0.1,0-0.1c0,0,0.1-0.1,0.1-0.1s0-0.2,0.1-0.2c0,0,0-0.1,0.1-0.2
			c0,0,0-0.1,0.1-0.2c0,0,0-0.1,0-0.1s0.2-0.1,0.2-0.1c0,0,0.1-0.1,0.2-0.1c0,0,0.1-0.1,0.1-0.1c0,0,0-0.1,0-0.1c0,0,0,0,0,0
			c0,0,0.1-0.1,0.1-0.1c0,0,0,0,0,0s0,0,0-0.1c0,0,0.1,0,0.1-0.1c0,0,0.1-0.1,0.1-0.1c0,0,0-0.1,0-0.1c0,0,0-0.1,0.1-0.1
			c0,0-0.1-0.1-0.1-0.2c0,0,0-0.1,0.1-0.1c0,0,0-0.1,0-0.1c0,0-0.1,0-0.1,0.1c0,0-0.1,0,0-0.1c0,0,0.1-0.1,0-0.1c0,0,0-0.1,0-0.1
			c0.1,0,0.1-0.1,0.1-0.1c0,0,0.1-0.1,0.1-0.1c0,0,0-0.2,0.1-0.2c0,0,0-0.1,0-0.1l0,0c0,0,0-0.1,0.1-0.1c0,0,0-0.1,0-0.1
			c0,0,0-0.1,0-0.1c0,0,0-0.1,0-0.1c0,0,0-0.1,0-0.1c0,0,0-0.1,0-0.1s0-0.1,0-0.1c0,0,0.1-0.1,0.1-0.1c0,0,0-0.3,0-0.3
			s0.2-0.4,0.2-0.4c0,0,0.1-0.1,0.1-0.2c0,0,0-0.1,0-0.1c0,0,0.1-0.1,0.1-0.1c0,0,0-0.1,0-0.1c0,0,0-0.1,0-0.1c0,0,0,0,0-0.1
			c0,0,0.1-0.1,0.1-0.1c0,0,0-0.1,0-0.1c0,0,0,0,0-0.1c0,0,0.1,0,0.1,0c0,0,0.1-0.1,0.1-0.1l0-0.1c0,0,0.1,0,0.1-0.1
			c0,0,0-0.1,0-0.1s0,0,0-0.1c0,0,0,0,0,0l0-0.1c0,0,0,0,0-0.1c0,0-0.1-0.1-0.1-0.1s-0.1-0.1-0.1-0.1c0,0,0-0.2,0-0.2s0-0.1-0.1-0.1
			c0,0-0.1-0.1-0.2-0.2c0,0-0.1,0-0.1,0s0-0.1-0.1,0c0,0-0.1,0-0.1,0s-0.1-0.1-0.1-0.2c0,0,0,0,0-0.1c0,0-0.1-0.1-0.2,0
			c0,0-0.1,0.1-0.2-0.1c0,0,0-0.1,0-0.2c0,0-0.1-0.1-0.2-0.1c0,0-0.2-0.2-0.2-0.4c0,0-0.1,0-0.1-0.1c0,0,0,0,0-0.1
			c0,0-0.1,0-0.1-0.1c0,0-0.7,0-0.7,0l-1.8,0l-2.9,0l-3,0c0,0-0.1,0.3-0.3,0.3c-0.1,0.1-0.3,0.2-0.4,0.2c-0.1,0-0.4,0-0.4,0
			c0,0-0.3-0.1-0.3,0c0,0-0.1,0-0.2,0c0,0-0.4,0.1-0.4,0.1c0,0-0.2,0.1-0.3,0.1c-0.1,0-0.2-0.1-0.2-0.1c-0.1,0-0.1,0-0.1,0
			c0,0,0,0.1-0.1,0.1c0,0,0,0,0,0c0,0-0.1,0.1-0.2,0.1c0,0-0.1,0.1-0.2,0.1c0,0-0.1,0.1-0.1,0c0,0,0,0-0.2,0.1c0,0-0.4,0-0.4,0
			c0,0-0.3,0.1-0.3,0.1l-0.2,0c0,0-0.4,0.2-0.5,0.2c0,0-0.4,0.1-0.4,0.2c0,0-0.1,0.1-0.1,0.1c0,0-0.1,0.1-0.2,0c-0.1,0-0.2,0-0.2,0
			s-0.2,0.1-0.3,0.1c0,0-0.2,0.1-0.3,0.1c-0.1,0-0.3,0-0.3,0s-0.2-0.1-0.3-0.2c0,0-0.3-0.1-0.3,0c0,0-0.2,0.2-0.4,0.2
			c-0.1,0.1-0.3,0.1-0.4,0.1c-0.1,0-0.2,0.1-0.3,0.2c0,0-0.1,0-0.1,0s-0.1-0.1-0.2-0.1l0,0h-0.4c0,0-0.1,0.1-0.1,0.1
			c0,0-0.1,0.2-0.2,0.2c-0.1,0-0.2,0.1-0.2,0c0-0.1,0-0.3-0.2-0.3c0,0-0.1,0-0.1-0.1c0,0-0.1,0-0.1,0c0,0,0,0-0.1,0c0,0-0.3,0-0.3,0
			L30,894l-0.2,0c0,0,0,0-0.1,0c0,0-0.1,0-0.1-0.1c0,0-0.1-0.1-0.2,0c0,0-0.3,0-0.3,0c0,0-0.3,0.1-0.4,0.1c0,0-0.1,0.1-0.2,0.1
			c0,0-0.5,0-0.5,0c0,0-0.1,0,0,0.1c0,0,0,0,0,0c0,0-0.2,0.1-0.2,0.1c0,0,0,0.1-0.1,0.1c0,0-0.1,0.1-0.1,0.1c0,0-0.1,0.1-0.2,0.1
			c0,0-0.1,0-0.1,0c0,0-0.1,0-0.1,0.1c0,0-0.1,0.1-0.1,0.1c0,0-0.1,0-0.2,0c-0.1,0-0.1,0-0.2,0.1c0,0-0.1,0.1-0.1,0.1
			c0,0-0.1,0-0.1,0c0,0-0.3,0.1-0.5,0c0,0-0.1-0.2-0.2-0.1c0,0-0.1,0-0.1,0c0,0-0.1,0-0.1,0c0,0-0.3,0-0.4-0.1c0,0-0.2-0.2-0.3-0.2
			c-0.1,0-0.2,0-0.2,0s-0.2-0.1-0.4-0.3c0,0-0.1-0.2-0.1-0.3c0-0.1,0.1-0.2,0-0.3c0,0,0-0.1,0-0.1s-0.1-0.2-0.1-0.2c0,0,0-0.1,0-0.2
			c0,0-0.1-0.1,0-0.2c0,0,0-0.2-0.1-0.2c0,0,0-0.1,0-0.1c0,0,0-0.2,0-0.2s-0.1-0.2-0.2-0.2c0,0,0-0.1,0-0.2c0,0-0.1-0.1-0.1-0.3
			c0,0-0.1-0.1-0.3-0.2c-0.1,0-0.3-0.2-0.3-0.2c0,0-0.1-0.2-0.3-0.2c-0.1,0-0.2,0-0.3-0.1c0,0-0.1,0-0.2,0.3c-0.1,0-0.3,0-0.5,0
			c0,0-0.2,0-0.3-0.1c0,0-0.1-0.1-0.1-0.2c0,0-0.2-0.1-0.2-0.1c0,0,0-0.1-0.1-0.1c0,0-0.1,0-0.1,0s0,0.1-0.1,0.1
			c0,0-0.1,0.1-0.1,0.1c0,0,0,0.1,0,0.1c0,0-0.2,0-0.2,0s0,0.1-0.1,0.1c0,0-0.1,0-0.1,0s-0.1,0-0.1,0c0,0-0.2,0-0.2,0
			s-0.1-0.1-0.1-0.1c0,0,0-0.1,0-0.1c0,0-0.1,0-0.1,0.1c0,0-0.2,0-0.2,0c0,0-0.2,0-0.1,0.1c0.1,0,0.1,0,0.1,0c0,0,0.1,0,0.1,0.1
			c0,0,0,0.1,0,0.1c0,0,0,0.1,0,0.1c0,0,0,0.1,0.1,0.1c0,0,0,0,0,0.1c0,0,0.1,0,0,0.1c0,0,0,0,0,0c0,0,0,0,0,0c0,0,0-0.1,0-0.1l0,0
			c0,0,0-0.1-0.1-0.1c0,0,0-0.1,0-0.1c0,0,0-0.1,0-0.1c0,0,0-0.1,0-0.1c0,0,0,0-0.1,0c0,0-0.1,0-0.1,0c0,0,0,0.1-0.1,0.1
			c0,0,0,0.1,0,0.1l0.1,0c0,0,0,0.1,0,0.1c0,0,0-0.1,0-0.1s-0.1,0-0.1,0s0,0,0-0.1c0,0,0.1-0.1,0-0.1c0,0-0.1,0-0.1,0
			c0,0,0-0.1,0-0.1c0,0,0,0.1-0.1,0.1c0,0,0,0,0-0.1c0,0,0-0.1,0-0.1c0,0-0.1-0.1-0.2-0.1c0,0,0,0,0,0s-0.1-0.1,0-0.1
			C19.3,890.9,19.3,890.8,19.2,890.9C19.3,890.9,19.2,890.9,19.2,890.9"/>
	</g>
</g>
</svg>
