<?xml version="1.0" encoding="utf-8"?>
<!-- Generator: Adobe Illustrator 19.1.0, SVG Export Plug-In . SVG Version: 6.00 Build 0)  -->
<svg version="1.1" id="Layer_1" xmlns="http://www.w3.org/2000/svg" xmlns:xlink="http://www.w3.org/1999/xlink" x="0px" y="0px"
	 viewBox="0 0 125 622" style="enable-background:new 0 0 125 622;" xml:space="preserve">
<style type="text/css">
	.st0{clip-path:url(#SVGID_2_);fill:#FFFFFF;}
	.st1{clip-path:url(#SVGID_2_);fill:#010000;}
</style>
<g>
	<defs>
		<rect id="SVGID_1_" x="14.5" y="21.9" width="97.7" height="578.1"/>
	</defs>
	<clipPath id="SVGID_2_">
		<use xlink:href="#SVGID_1_"  style="overflow:visible;"/>
	</clipPath>
	<path class="st0" d="M38,292c-1.6,0-3.1-0.7-4.2-1.4c-2.5-1.5-5.5-5.8-4.4-10.2c0.1-0.3,0.3-0.4,0.6-0.4c0.3,0.1,0.4,0.3,0.4,0.6
		c-1,4.2,2.1,8,4,9.1c1.1,0.6,2.4,1.3,3.9,1.2c1.7-0.1,3-1.1,4.2-3.1c2.4-4.1,1.8-12.5,1.6-14.9c-1.4,0.6-4.8,2.3-7.8,4.5
		c-0.2,0.2-0.5,0.1-0.7-0.1c-0.2-0.2-0.1-0.5,0.1-0.7c3.9-2.8,8.6-4.9,8.6-4.9c0.1-0.1,0.3-0.1,0.4,0c0.1,0.1,0.2,0.2,0.2,0.4
		c0.1,0.5,1.2,11.1-1.7,16.2c-1.3,2.3-3,3.6-5,3.6C38.1,292,38.1,292,38,292"/>
	<path class="st0" d="M22.6,269.3c-0.2,2.7-1,13.2,1.9,18.2c1.5,2.6,3.3,3.8,5.4,3.8c1.7,0,3.3-0.8,4.5-1.5c3-1.7,6-4.4,2.9-9.8
		C34.5,275,25.1,270.4,22.6,269.3 M30,292.3c-2.5,0-4.6-1.5-6.2-4.3c-3.5-6.1-2.1-18.9-2-19.5c0-0.2,0.1-0.3,0.2-0.4
		c0.1-0.1,0.3-0.1,0.4,0c0.5,0.2,12.4,5.4,15.9,11.5c4,6.9-1.5,10.1-3.3,11.1C33.7,291.4,31.9,292.3,30,292.3"/>
	<path class="st1" d="M100,292c-1.6,0-3.1-0.7-4.2-1.4c-2.5-1.5-5.5-5.8-4.4-10.2c0.1-0.3,0.3-0.4,0.6-0.4c0.3,0.1,0.4,0.3,0.4,0.6
		c-1,4.2,2.1,8,4,9.1c1.1,0.6,2.4,1.3,3.9,1.2c1.7-0.1,3-1.1,4.2-3.1c2.4-4.1,1.8-12.5,1.6-14.9c-1.4,0.6-4.8,2.3-7.8,4.5
		c-0.2,0.2-0.5,0.1-0.7-0.1c-0.2-0.2-0.1-0.5,0.1-0.7c3.9-2.8,8.6-4.9,8.6-4.9c0.1-0.1,0.3-0.1,0.4,0c0.1,0.1,0.2,0.2,0.2,0.4
		c0.1,0.5,1.2,11.1-1.7,16.2c-1.3,2.3-3,3.6-5,3.6C100.1,292,100.1,292,100,292"/>
	<path class="st1" d="M84.6,269.3c-0.2,2.7-1,13.2,1.9,18.2c1.5,2.6,3.3,3.8,5.4,3.8c1.7,0,3.3-0.8,4.5-1.5c3-1.7,6-4.4,2.9-9.8
		C96.5,275,87.1,270.4,84.6,269.3 M92,292.3c-2.5,0-4.6-1.5-6.2-4.3c-3.5-6.1-2.1-18.9-2-19.5c0-0.2,0.1-0.3,0.2-0.4
		c0.1-0.1,0.3-0.1,0.4,0c0.5,0.2,12.4,5.4,15.9,11.5c4,6.9-1.5,10.1-3.3,11.1C95.7,291.4,93.9,292.3,92,292.3"/>
	<path class="st0" d="M38,599.7c-1.6,0-3.1-0.7-4.2-1.4c-2.5-1.5-5.5-5.8-4.4-10.2c0.1-0.3,0.3-0.4,0.6-0.4c0.3,0.1,0.4,0.3,0.4,0.6
		c-1,4.2,2.1,8,4,9.1c1.1,0.6,2.4,1.3,3.9,1.2c1.7-0.1,3-1.1,4.2-3.1c2.4-4.1,1.8-12.5,1.6-14.9c-1.4,0.6-4.8,2.3-7.8,4.5
		c-0.2,0.2-0.5,0.1-0.7-0.1c-0.2-0.2-0.1-0.5,0.1-0.7c3.9-2.8,8.6-4.9,8.6-4.9c0.1-0.1,0.3-0.1,0.4,0c0.1,0.1,0.2,0.2,0.2,0.4
		c0.1,0.5,1.2,11.1-1.7,16.2c-1.3,2.3-3,3.6-5,3.6C38.1,599.7,38.1,599.7,38,599.7"/>
	<path class="st0" d="M22.6,577c-0.2,2.7-1,13.2,1.9,18.2c1.5,2.6,3.3,3.8,5.4,3.8c1.7,0,3.3-0.8,4.5-1.5c3-1.7,6-4.4,2.9-9.8
		C34.5,582.7,25.1,578.1,22.6,577 M30,600c-2.5,0-4.6-1.5-6.2-4.3c-3.5-6.1-2.1-18.9-2-19.5c0-0.2,0.1-0.3,0.2-0.4
		c0.1-0.1,0.3-0.1,0.4,0c0.5,0.2,12.4,5.4,15.9,11.5c4,6.9-1.5,10.1-3.3,11.1C33.7,599.1,31.9,600,30,600"/>
	<path class="st1" d="M100,599.7c-1.6,0-3.1-0.7-4.2-1.4c-2.5-1.5-5.5-5.8-4.4-10.2c0.1-0.3,0.3-0.4,0.6-0.4
		c0.3,0.1,0.4,0.3,0.4,0.6c-1,4.2,2.1,8,4,9.1c1.1,0.6,2.4,1.3,3.9,1.2c1.7-0.1,3-1.1,4.2-3.1c2.4-4.1,1.8-12.5,1.6-14.9
		c-1.4,0.6-4.8,2.3-7.8,4.5c-0.2,0.2-0.5,0.1-0.7-0.1c-0.2-0.2-0.1-0.5,0.1-0.7c3.9-2.8,8.6-4.9,8.6-4.9c0.1-0.1,0.3-0.1,0.4,0
		c0.1,0.1,0.2,0.2,0.2,0.4c0.1,0.5,1.2,11.1-1.7,16.2c-1.3,2.3-3,3.6-5,3.6C100.1,599.7,100.1,599.7,100,599.7"/>
	<path class="st1" d="M84.6,577c-0.2,2.7-1,13.2,1.9,18.2c1.5,2.6,3.3,3.8,5.4,3.8c1.7,0,3.3-0.8,4.5-1.5c3-1.7,6-4.4,2.9-9.8
		C96.5,582.7,87.1,578.1,84.6,577 M92,600c-2.5,0-4.6-1.5-6.2-4.3c-3.5-6.1-2.1-18.9-2-19.5c0-0.2,0.1-0.3,0.2-0.4
		c0.1-0.1,0.3-0.1,0.4,0c0.5,0.2,12.4,5.4,15.9,11.5c4,6.9-1.5,10.1-3.3,11.1C95.7,599.1,93.9,600,92,600"/>
	<path class="st0" d="M33,517.1c-0.9,3-2.3,5.2-3.5,7.1c-1.6,2.4-2.9,4.5-2.9,7.7c0,3.4,2.7,7.1,6.5,7.1c3.7,0,6.5-3.7,6.5-7.1
		c0-3.2-1.4-5.3-2.9-7.7C35.3,522.3,33.9,520.1,33,517.1 M33,540c-4,0-7.5-3.8-7.5-8.1c0-3.5,1.5-5.8,3.1-8.3
		c1.5-2.2,3.1-4.7,3.9-8.7c0-0.2,0.2-0.3,0.5-0.3h0c0.2,0,0.4,0.1,0.5,0.3c0.7,4,2.3,6.4,3.9,8.7c1.6,2.4,3.1,4.7,3.1,8.2
		C40.5,535.8,37.3,540,33,540"/>
	<path class="st0" d="M33.6,536.4c-0.2,0-0.4-0.2-0.5-0.4c0-0.3,0.1-0.5,0.4-0.6c1.8-0.3,2.6-2.1,2.6-3.7c0-0.3,0.2-0.5,0.5-0.5
		c0.3,0,0.5,0.2,0.5,0.5C37.1,533.8,36,536,33.6,536.4C33.7,536.4,33.7,536.4,33.6,536.4"/>
	<path class="st1" d="M95,517.1c-0.9,3-2.3,5.2-3.5,7.1c-1.6,2.4-2.9,4.5-2.9,7.7c0,3.4,2.7,7.1,6.5,7.1c3.7,0,6.5-3.7,6.5-7.1
		c0-3.2-1.4-5.3-2.9-7.7C97.3,522.3,95.9,520.1,95,517.1 M95,540c-4,0-7.5-3.8-7.5-8.1c0-3.5,1.5-5.8,3.1-8.3
		c1.5-2.2,3.1-4.7,3.9-8.7c0-0.2,0.2-0.3,0.5-0.3h0c0.2,0,0.4,0.1,0.5,0.3c0.7,4,2.3,6.4,3.9,8.7c1.6,2.4,3.1,4.7,3.1,8.2
		C102.5,535.8,99.3,540,95,540"/>
	<path class="st1" d="M95.6,536.4c-0.2,0-0.4-0.2-0.5-0.4c0-0.3,0.1-0.5,0.4-0.6c1.8-0.3,2.6-2.1,2.6-3.7c0-0.3,0.2-0.5,0.5-0.5
		c0.3,0,0.5,0.2,0.5,0.5C99.1,533.8,98,536,95.6,536.4C95.7,536.4,95.7,536.4,95.6,536.4"/>
	<path class="st0" d="M38,292c-1.6,0-3.1-0.7-4.2-1.4c-2.5-1.5-5.5-5.8-4.4-10.2c0.1-0.3,0.3-0.4,0.6-0.4c0.3,0.1,0.4,0.3,0.4,0.6
		c-1,4.2,2.1,8,4,9.1c1.1,0.6,2.4,1.3,3.9,1.2c1.7-0.1,3-1.1,4.2-3.1c2.4-4.1,1.8-12.5,1.6-14.9c-1.4,0.6-4.8,2.3-7.8,4.5
		c-0.2,0.2-0.5,0.1-0.7-0.1c-0.2-0.2-0.1-0.5,0.1-0.7c3.9-2.8,8.6-4.9,8.6-4.9c0.1-0.1,0.3-0.1,0.4,0c0.1,0.1,0.2,0.2,0.2,0.4
		c0.1,0.5,1.2,11.1-1.7,16.2c-1.3,2.3-3,3.6-5,3.6C38.1,292,38.1,292,38,292"/>
	<path class="st0" d="M22.6,269.3c-0.2,2.7-1,13.2,1.9,18.2c1.5,2.6,3.3,3.8,5.4,3.8c1.7,0,3.3-0.8,4.5-1.5c3-1.7,6-4.4,2.9-9.8
		C34.5,275,25.1,270.4,22.6,269.3 M30,292.3c-2.5,0-4.6-1.5-6.2-4.3c-3.5-6.1-2.1-18.9-2-19.5c0-0.2,0.1-0.3,0.2-0.4
		c0.1-0.1,0.3-0.1,0.4,0c0.5,0.2,12.4,5.4,15.9,11.5c4,6.9-1.5,10.1-3.3,11.1C33.7,291.4,31.9,292.3,30,292.3"/>
	<path class="st1" d="M100,292c-1.6,0-3.1-0.7-4.2-1.4c-2.5-1.5-5.5-5.8-4.4-10.2c0.1-0.3,0.3-0.4,0.6-0.4c0.3,0.1,0.4,0.3,0.4,0.6
		c-1,4.2,2.1,8,4,9.1c1.1,0.6,2.4,1.3,3.9,1.2c1.7-0.1,3-1.1,4.2-3.1c2.4-4.1,1.8-12.5,1.6-14.9c-1.4,0.6-4.8,2.3-7.8,4.5
		c-0.2,0.2-0.5,0.1-0.7-0.1c-0.2-0.2-0.1-0.5,0.1-0.7c3.9-2.8,8.6-4.9,8.6-4.9c0.1-0.1,0.3-0.1,0.4,0c0.1,0.1,0.2,0.2,0.2,0.4
		c0.1,0.5,1.2,11.1-1.7,16.2c-1.3,2.3-3,3.6-5,3.6C100.1,292,100.1,292,100,292"/>
	<path class="st1" d="M84.6,269.3c-0.2,2.7-1,13.2,1.9,18.2c1.5,2.6,3.3,3.8,5.4,3.8c1.7,0,3.3-0.8,4.5-1.5c3-1.7,6-4.4,2.9-9.8
		C96.5,275,87.1,270.4,84.6,269.3 M92,292.3c-2.5,0-4.6-1.5-6.2-4.3c-3.5-6.1-2.1-18.9-2-19.5c0-0.2,0.1-0.3,0.2-0.4
		c0.1-0.1,0.3-0.1,0.4,0c0.5,0.2,12.4,5.4,15.9,11.5c4,6.9-1.5,10.1-3.3,11.1C95.7,291.4,93.9,292.3,92,292.3"/>
	<path class="st0" d="M33.5,463.1c-1.7,0-3.1,1.4-3.1,3.1c0,1.7,1.4,3.1,3.1,3.1c1.7,0,3.1-1.4,3.1-3.1
		C36.6,464.4,35.3,463.1,33.5,463.1 M33.5,470.1c-2.2,0-4-1.8-4-4s1.8-4,4-4c2.2,0,4,1.8,4,4S35.7,470.1,33.5,470.1"/>
	<path class="st1" d="M95.5,463.1c-1.7,0-3.1,1.4-3.1,3.1c0,1.7,1.4,3.1,3.1,3.1c1.7,0,3.1-1.4,3.1-3.1
		C98.6,464.4,97.3,463.1,95.5,463.1 M95.5,470.1c-2.2,0-4-1.8-4-4s1.8-4,4-4c2.2,0,4,1.8,4,4S97.7,470.1,95.5,470.1"/>
	<path class="st0" d="M26.9,476.6c0.9,0.6,1.9,1,2.9,1.4l3.4-4.1c0.2-0.2,0.5-0.2,0.7,0l3.4,4.1c1-0.3,2-0.8,2.9-1.4l-1.1-5.3
		c0-0.1,0-0.3,0.1-0.4c0.1-0.1,0.2-0.2,0.3-0.2l5.5-0.1c0.4-1,0.6-2,0.8-3l-5-2.5c-0.1-0.1-0.2-0.2-0.2-0.3c0-0.1,0-0.3,0.1-0.4
		l3.5-4.6c-0.5-0.9-1.1-1.7-1.8-2.4l-5.3,2.4c-0.1,0.1-0.3,0.1-0.4,0c-0.1-0.1-0.2-0.2-0.2-0.3l-1.4-5.7c-1-0.1-2-0.1-3,0l-1.4,5.7
		c0,0.1-0.1,0.2-0.2,0.3c-0.1,0.1-0.3,0.1-0.4,0l-5.3-2.4c-0.7,0.7-1.3,1.5-1.8,2.4l3.5,4.6c0.1,0.1,0.1,0.2,0.1,0.4
		c0,0.1-0.1,0.2-0.2,0.3l-5,2.5c0.1,1,0.4,2.1,0.8,3l5.5,0.1c0.1,0,0.3,0.1,0.3,0.2c0.1,0.1,0.1,0.2,0.1,0.4L26.9,476.6z
		 M37.2,478.9c-0.1,0-0.3-0.1-0.3-0.2l-3.3-3.9l-3.3,3.9c-0.1,0.1-0.3,0.2-0.5,0.1c-1.3-0.4-2.6-1-3.7-1.7c-0.1-0.1-0.2-0.3-0.2-0.5
		l1-5l-5.3-0.1c-0.2,0-0.3-0.1-0.4-0.3c-0.5-1.2-0.8-2.5-1-3.9c0-0.2,0.1-0.4,0.2-0.4l4.8-2.4l-3.3-4.4c-0.1-0.1-0.1-0.3,0-0.5
		c0.6-1.1,1.4-2.2,2.4-3.1c0.1-0.1,0.3-0.2,0.5-0.1l5.1,2.3l1.4-5.5c0-0.2,0.2-0.3,0.4-0.3c1.3-0.2,2.5-0.2,3.8,0
		c0.2,0,0.3,0.2,0.4,0.3l1.4,5.5l5.1-2.3c0.2-0.1,0.4,0,0.5,0.1c0.9,0.9,1.7,1.9,2.4,3.1c0.1,0.2,0.1,0.3,0,0.5l-3.3,4.4l4.8,2.4
		c0.2,0.1,0.3,0.3,0.2,0.4c-0.1,1.3-0.4,2.6-1,3.9c-0.1,0.2-0.2,0.3-0.4,0.3l-5.3,0.1l1,5c0,0.2,0,0.4-0.2,0.5
		c-1.1,0.8-2.4,1.3-3.7,1.7C37.3,478.9,37.2,478.9,37.2,478.9"/>
	<path class="st1" d="M88.9,476.6c0.9,0.6,1.9,1,2.9,1.4l3.4-4.1c0.2-0.2,0.5-0.2,0.7,0l3.4,4.1c1-0.3,2-0.8,2.9-1.4l-1.1-5.3
		c0-0.1,0-0.3,0.1-0.4c0.1-0.1,0.2-0.2,0.3-0.2l5.5-0.1c0.4-1,0.6-2,0.8-3l-5-2.5c-0.1-0.1-0.2-0.2-0.2-0.3c0-0.1,0-0.3,0.1-0.4
		l3.5-4.6c-0.5-0.9-1.1-1.7-1.8-2.4l-5.3,2.4c-0.1,0.1-0.3,0.1-0.4,0c-0.1-0.1-0.2-0.2-0.2-0.3l-1.4-5.7c-1-0.1-2-0.1-3,0l-1.4,5.7
		c0,0.1-0.1,0.2-0.2,0.3c-0.1,0.1-0.3,0.1-0.4,0l-5.3-2.4c-0.7,0.7-1.3,1.5-1.8,2.4l3.5,4.6c0.1,0.1,0.1,0.2,0.1,0.4
		c0,0.1-0.1,0.2-0.2,0.3l-5,2.5c0.1,1,0.4,2.1,0.8,3l5.5,0.1c0.1,0,0.3,0.1,0.3,0.2c0.1,0.1,0.1,0.2,0.1,0.4L88.9,476.6z
		 M99.2,478.9c-0.1,0-0.3-0.1-0.3-0.2l-3.3-3.9l-3.3,3.9c-0.1,0.1-0.3,0.2-0.5,0.1c-1.3-0.4-2.6-1-3.7-1.7c-0.1-0.1-0.2-0.3-0.2-0.5
		l1-5l-5.3-0.1c-0.2,0-0.3-0.1-0.4-0.3c-0.5-1.2-0.8-2.5-1-3.9c0-0.2,0.1-0.4,0.2-0.4l4.8-2.4l-3.3-4.4c-0.1-0.1-0.1-0.3,0-0.5
		c0.6-1.1,1.4-2.2,2.4-3.1c0.1-0.1,0.3-0.2,0.5-0.1l5.1,2.3l1.4-5.5c0-0.2,0.2-0.3,0.4-0.3c1.3-0.2,2.5-0.2,3.8,0
		c0.2,0,0.3,0.2,0.4,0.3l1.4,5.5l5.1-2.3c0.2-0.1,0.4,0,0.5,0.1c0.9,0.9,1.7,1.9,2.4,3.1c0.1,0.2,0.1,0.3,0,0.5l-3.3,4.4l4.8,2.4
		c0.2,0.1,0.3,0.3,0.2,0.4c-0.1,1.3-0.4,2.6-1,3.9c-0.1,0.2-0.2,0.3-0.4,0.3l-5.3,0.1l1,5c0,0.2,0,0.4-0.2,0.5
		c-1.1,0.8-2.4,1.3-3.7,1.7C99.3,478.9,99.2,478.9,99.2,478.9"/>
	<path class="st0" d="M21.4,393.5c-0.5,0-0.9,0.4-0.9,0.9v18.5c0,0.5,0.4,0.9,0.9,0.9h23.1c0.5,0,0.9-0.4,0.9-0.9v-18.5
		c0-0.5-0.4-0.9-0.9-0.9H21.4z M44.6,415H21.4c-1,0-1.9-0.9-1.9-2.1v-18.5c0-1.1,0.9-2.1,1.9-2.1h23.1c1,0,1.9,0.9,1.9,2.1v18.5
		C46.5,414.1,45.6,415,44.6,415"/>
	<path class="st1" d="M83.4,393.5c-0.5,0-0.9,0.4-0.9,0.9v18.5c0,0.5,0.4,0.9,0.9,0.9h23.1c0.5,0,0.9-0.4,0.9-0.9v-18.5
		c0-0.5-0.4-0.9-0.9-0.9H83.4z M106.6,415H83.4c-1,0-1.9-0.9-1.9-2.1v-18.5c0-1.1,0.9-2.1,1.9-2.1h23.1c1,0,1.9,0.9,1.9,2.1v18.5
		C108.5,414.1,107.6,415,106.6,415"/>
	<path class="st0" d="M36.3,410.9c-0.2,0-0.4-0.1-0.5-0.3l-2.4-5h-2.4c-0.2,0-0.4-0.1-0.5-0.3l-1.7-4.3l-1.7,5.4
		c-0.1,0.2-0.2,0.3-0.4,0.4c-0.2,0-0.4,0-0.5-0.2l-1.7-2.1h-1.3c-0.3,0-0.5-0.3-0.5-0.6c0-0.3,0.2-0.6,0.5-0.6h1.6
		c0.1,0,0.3,0.1,0.4,0.2l1.2,1.5l1.8-5.9c0.1-0.2,0.3-0.4,0.5-0.4c0.2,0,0.4,0.1,0.5,0.3l2.1,5.3h2.3c0.2,0,0.4,0.1,0.5,0.3l1.9,3.9
		l2-9.5c0-0.2,0.2-0.4,0.4-0.4c0.2,0,0.4,0.1,0.5,0.3l2.3,4.2h1.3c0.3,0,0.5,0.3,0.5,0.6c0,0.3-0.2,0.6-0.5,0.6H41
		c-0.2,0-0.4-0.1-0.4-0.3l-1.8-3.3l-2,9.6C36.7,410.7,36.6,410.8,36.3,410.9C36.3,410.9,36.3,410.9,36.3,410.9"/>
	<path class="st1" d="M98.3,410.9c-0.2,0-0.4-0.1-0.5-0.3l-2.4-5h-2.4c-0.2,0-0.4-0.1-0.5-0.3l-1.7-4.3l-1.7,5.4
		c-0.1,0.2-0.2,0.3-0.4,0.4c-0.2,0-0.4,0-0.5-0.2l-1.7-2.1h-1.3c-0.3,0-0.5-0.3-0.5-0.6c0-0.3,0.2-0.6,0.5-0.6h1.6
		c0.1,0,0.3,0.1,0.4,0.2l1.2,1.5l1.8-5.9c0.1-0.2,0.3-0.4,0.5-0.4c0.2,0,0.4,0.1,0.5,0.3l2.1,5.3h2.3c0.2,0,0.4,0.1,0.5,0.3l1.9,3.9
		l2-9.5c0-0.2,0.2-0.4,0.4-0.4c0.2,0,0.4,0.1,0.5,0.3l2.3,4.2h1.3c0.3,0,0.5,0.3,0.5,0.6c0,0.3-0.2,0.6-0.5,0.6H103
		c-0.2,0-0.4-0.1-0.4-0.3l-1.8-3.3l-2,9.6C98.7,410.7,98.6,410.8,98.3,410.9C98.3,410.9,98.3,410.9,98.3,410.9"/>
	<path class="st0" d="M29.3,355.1c-0.3,0-0.8-0.1-1.3-0.6c-1.1-1.1-0.3-3.4,0.2-5.1c0.1-0.3,0.2-0.6,0.2-0.8c0.5-1.8,0.6-3.6,0.3-5
		c-0.3-1.3-0.8-2.3-1.5-3.1c-0.8-0.7-2-1-2.8-1.1c-0.1,0-0.4,0-0.8-0.1l-0.4,0c-1.7-0.1-1.7-0.1-1.9-0.4c-0.1-0.2-0.1-0.4,0-0.5
		c0.3-0.5,1.4-1.3,3.8-2.7c0.4-0.2,0.7-0.4,1-0.6c0.3-0.2,0.5-0.4,0.8-0.6c1.2-0.9,2.9-2.1,5.3-2.1c3.2-0.1,4.7,1.3,5.9,3.5
		c1.2,2.2,5.5,8.4,8.7,9.1c0.3,0.1,0.5,0.4,0.4,0.7s-0.4,0.5-0.7,0.4c-3.9-0.9-8.5-7.9-9.5-9.7c-1.2-2.2-2.5-3-4.8-2.9
		c-2,0.1-3.5,1.1-4.7,1.9c-0.3,0.2-0.6,0.4-0.9,0.6c-0.3,0.2-0.6,0.4-1,0.6c-0.6,0.4-1.7,1-2.5,1.5c0,0,0.1,0,0.1,0l0.4,0
		c0.5,0,0.7,0.1,0.8,0.1c1,0.1,2.4,0.5,3.4,1.4c0,0,0,0,0,0c0.9,1,1.5,2.2,1.8,3.7c0.3,1.5,0.2,3.5-0.3,5.5
		c-0.1,0.2-0.2,0.5-0.3,0.9c-0.4,1.1-1.1,3.3-0.5,3.9c0.2,0.2,0.4,0.2,0.5,0.2c0.3,0,0.6-0.3,0.9-0.7c0.3-0.4,0.5-0.8,0.6-1.2
		c0-0.1,0.1-0.3,0.1-0.5c0-0.2,0.1-0.4,0.1-0.6c0,0,0-0.1,0-0.2c0-0.3,0.1-0.5,0.3-0.8c0.1-0.2,0.3-0.2,0.5-0.2
		c0.2,0,0.4,0.1,0.5,0.3c0.1,0.2,0.1,0.3,0.2,0.5c0.1,0.4,0.3,0.7,0.5,1c0.6,0.8,1.8,1,2.6,0.5c1.2-0.7,1.6-3,1.1-4.4c0,0,0,0,0,0
		c0,0,0,0,0,0c0,0,0,0,0,0c-0.1-0.3,0.1-0.6,0.4-0.7c0.3-0.1,0.6,0.1,0.7,0.3c0,0,0,0,0,0l0,0c0,0,0,0,0,0c0.3,0.8,1.1,1.8,2.2,1.6
		c0.3,0,0.5-0.2,0.7-0.5c0.3-0.5,0.4-1.3,0.1-1.9c-0.1-0.3,0-0.6,0.3-0.7c0.3-0.1,0.6,0,0.8,0.3c0.4,0.8,0.3,2-0.2,2.8
		c-0.3,0.6-0.9,1-1.5,1.1c-0.8,0.1-1.5-0.1-2.2-0.5c-0.1,1.4-0.7,2.9-1.8,3.6c-1.4,0.8-3.2,0.4-4.2-0.8c0-0.1-0.1-0.1-0.1-0.2
		c0,0.1,0,0.2-0.1,0.3c-0.2,0.6-0.6,1.2-0.8,1.5c-0.3,0.4-0.9,1.1-1.8,1.1C29.4,355.1,29.4,355.1,29.3,355.1"/>
	<path class="st1" d="M91.3,355.1c-0.3,0-0.8-0.1-1.3-0.6c-1.1-1.1-0.3-3.4,0.2-5.1c0.1-0.3,0.2-0.6,0.2-0.8c0.5-1.8,0.6-3.6,0.3-5
		c-0.3-1.3-0.8-2.3-1.5-3.1c-0.8-0.7-2-1-2.8-1.1c-0.1,0-0.4,0-0.8-0.1l-0.4,0c-1.7-0.1-1.7-0.1-1.9-0.4c-0.1-0.2-0.1-0.4,0-0.5
		c0.3-0.5,1.4-1.3,3.8-2.7c0.4-0.2,0.7-0.4,1-0.6c0.3-0.2,0.5-0.4,0.8-0.6c1.2-0.9,2.9-2.1,5.3-2.1c3.2-0.1,4.7,1.3,5.9,3.5
		c1.2,2.2,5.5,8.4,8.7,9.1c0.3,0.1,0.5,0.4,0.4,0.7c-0.1,0.3-0.4,0.5-0.7,0.4c-3.9-0.9-8.5-7.9-9.5-9.7c-1.2-2.2-2.5-3-4.8-2.9
		c-2,0.1-3.5,1.1-4.7,1.9c-0.3,0.2-0.6,0.4-0.9,0.6c-0.3,0.2-0.6,0.4-1,0.6c-0.6,0.4-1.7,1-2.5,1.5c0,0,0.1,0,0.1,0l0.4,0
		c0.5,0,0.7,0.1,0.8,0.1c1,0.1,2.4,0.5,3.4,1.4c0,0,0,0,0,0c0.9,1,1.5,2.2,1.8,3.7c0.3,1.5,0.2,3.5-0.3,5.5
		c-0.1,0.2-0.2,0.5-0.3,0.9c-0.4,1.1-1.1,3.3-0.5,3.9c0.2,0.2,0.4,0.2,0.5,0.2c0.3,0,0.6-0.3,0.9-0.7c0.3-0.4,0.5-0.8,0.6-1.2
		c0-0.1,0.1-0.3,0.1-0.5c0-0.2,0.1-0.4,0.1-0.6c0,0,0-0.1,0-0.2c0-0.3,0.1-0.5,0.3-0.8c0.1-0.2,0.3-0.2,0.5-0.2
		c0.2,0,0.4,0.1,0.5,0.3c0.1,0.2,0.1,0.3,0.2,0.5c0.1,0.4,0.3,0.7,0.5,1c0.6,0.8,1.8,1,2.6,0.5c1.2-0.7,1.6-3,1.1-4.4c0,0,0,0,0,0
		c0,0,0,0,0,0c0,0,0,0,0,0c-0.1-0.3,0.1-0.6,0.4-0.7s0.6,0.1,0.7,0.3c0,0,0,0,0,0l0,0c0,0,0,0,0,0c0.3,0.8,1.1,1.8,2.2,1.6
		c0.3,0,0.5-0.2,0.7-0.5c0.3-0.5,0.4-1.3,0.1-1.9c-0.1-0.3,0-0.6,0.3-0.7c0.3-0.1,0.6,0,0.8,0.3c0.4,0.8,0.3,2-0.2,2.8
		c-0.3,0.6-0.9,1-1.5,1.1c-0.8,0.1-1.5-0.1-2.2-0.5c-0.1,1.4-0.7,2.9-1.8,3.6c-1.4,0.8-3.2,0.4-4.2-0.8c0-0.1-0.1-0.1-0.1-0.2
		c0,0.1,0,0.2-0.1,0.3c-0.2,0.6-0.6,1.2-0.8,1.5c-0.3,0.4-0.9,1.1-1.8,1.1C91.4,355.1,91.4,355.1,91.3,355.1"/>
	<path class="st0" d="M30.5,338.1c-0.5,0.5-1.3,0.5-1.8,0c-0.5-0.5-0.5-1.3,0-1.8c0.5-0.5,1.3-0.5,1.8,0
		C31,336.9,31,337.7,30.5,338.1"/>
	<path class="st1" d="M92.5,338.1c-0.5,0.5-1.3,0.5-1.8,0c-0.5-0.5-0.5-1.3,0-1.8s1.3-0.5,1.8,0C93,336.9,93,337.7,92.5,338.1"/>
	<path class="st0" d="M38,599.7c-1.6,0-3.1-0.7-4.2-1.4c-2.5-1.5-5.5-5.8-4.4-10.2c0.1-0.3,0.3-0.4,0.6-0.4c0.3,0.1,0.4,0.3,0.4,0.6
		c-1,4.2,2.1,8,4,9.1c1.1,0.6,2.4,1.3,3.9,1.2c1.7-0.1,3-1.1,4.2-3.1c2.4-4.1,1.8-12.5,1.6-14.9c-1.4,0.6-4.8,2.3-7.8,4.5
		c-0.2,0.2-0.5,0.1-0.7-0.1c-0.2-0.2-0.1-0.5,0.1-0.7c3.9-2.8,8.6-4.9,8.6-4.9c0.1-0.1,0.3-0.1,0.4,0c0.1,0.1,0.2,0.2,0.2,0.4
		c0.1,0.5,1.2,11.1-1.7,16.2c-1.3,2.3-3,3.6-5,3.6C38.1,599.7,38.1,599.7,38,599.7"/>
	<path class="st0" d="M22.6,577c-0.2,2.7-1,13.2,1.9,18.2c1.5,2.6,3.3,3.8,5.4,3.8c1.7,0,3.3-0.8,4.5-1.5c3-1.7,6-4.4,2.9-9.8
		C34.5,582.7,25.1,578.1,22.6,577 M30,600c-2.5,0-4.6-1.5-6.2-4.3c-3.5-6.1-2.1-18.9-2-19.5c0-0.2,0.1-0.3,0.2-0.4
		c0.1-0.1,0.3-0.1,0.4,0c0.5,0.2,12.4,5.4,15.9,11.5c4,6.9-1.5,10.1-3.3,11.1C33.7,599.1,31.9,600,30,600"/>
	<path class="st1" d="M100,599.7c-1.6,0-3.1-0.7-4.2-1.4c-2.5-1.5-5.5-5.8-4.4-10.2c0.1-0.3,0.3-0.4,0.6-0.4
		c0.3,0.1,0.4,0.3,0.4,0.6c-1,4.2,2.1,8,4,9.1c1.1,0.6,2.4,1.3,3.9,1.2c1.7-0.1,3-1.1,4.2-3.1c2.4-4.1,1.8-12.5,1.6-14.9
		c-1.4,0.6-4.8,2.3-7.8,4.5c-0.2,0.2-0.5,0.1-0.7-0.1c-0.2-0.2-0.1-0.5,0.1-0.7c3.9-2.8,8.6-4.9,8.6-4.9c0.1-0.1,0.3-0.1,0.4,0
		c0.1,0.1,0.2,0.2,0.2,0.4c0.1,0.5,1.2,11.1-1.7,16.2c-1.3,2.3-3,3.6-5,3.6C100.1,599.7,100.1,599.7,100,599.7"/>
	<path class="st1" d="M84.6,577c-0.2,2.7-1,13.2,1.9,18.2c1.5,2.6,3.3,3.8,5.4,3.8c1.7,0,3.3-0.8,4.5-1.5c3-1.7,6-4.4,2.9-9.8
		C96.5,582.7,87.1,578.1,84.6,577 M92,600c-2.5,0-4.6-1.5-6.2-4.3c-3.5-6.1-2.1-18.9-2-19.5c0-0.2,0.1-0.3,0.2-0.4
		c0.1-0.1,0.3-0.1,0.4,0c0.5,0.2,12.4,5.4,15.9,11.5c4,6.9-1.5,10.1-3.3,11.1C95.7,599.1,93.9,600,92,600"/>
	<path class="st0" d="M33,517.1c-0.9,3-2.3,5.2-3.5,7.1c-1.6,2.4-2.9,4.5-2.9,7.7c0,3.4,2.7,7.1,6.5,7.1c3.7,0,6.5-3.7,6.5-7.1
		c0-3.2-1.4-5.3-2.9-7.7C35.3,522.3,33.9,520.1,33,517.1 M33,540c-4,0-7.5-3.8-7.5-8.1c0-3.5,1.5-5.8,3.1-8.3
		c1.5-2.2,3.1-4.7,3.9-8.7c0-0.2,0.2-0.3,0.5-0.3h0c0.2,0,0.4,0.1,0.5,0.3c0.7,4,2.3,6.4,3.9,8.7c1.6,2.4,3.1,4.7,3.1,8.2
		C40.5,535.8,37.3,540,33,540"/>
	<path class="st0" d="M33.6,536.4c-0.2,0-0.4-0.2-0.5-0.4c0-0.3,0.1-0.5,0.4-0.6c1.8-0.3,2.6-2.1,2.6-3.7c0-0.3,0.2-0.5,0.5-0.5
		c0.3,0,0.5,0.2,0.5,0.5C37.1,533.8,36,536,33.6,536.4C33.7,536.4,33.7,536.4,33.6,536.4"/>
	<path class="st1" d="M95,517.1c-0.9,3-2.3,5.2-3.5,7.1c-1.6,2.4-2.9,4.5-2.9,7.7c0,3.4,2.7,7.1,6.5,7.1c3.7,0,6.5-3.7,6.5-7.1
		c0-3.2-1.4-5.3-2.9-7.7C97.3,522.3,95.9,520.1,95,517.1 M95,540c-4,0-7.5-3.8-7.5-8.1c0-3.5,1.5-5.8,3.1-8.3
		c1.5-2.2,3.1-4.7,3.9-8.7c0-0.2,0.2-0.3,0.5-0.3h0c0.2,0,0.4,0.1,0.5,0.3c0.7,4,2.3,6.4,3.9,8.7c1.6,2.4,3.1,4.7,3.1,8.2
		C102.5,535.8,99.3,540,95,540"/>
	<path class="st1" d="M95.6,536.4c-0.2,0-0.4-0.2-0.5-0.4c0-0.3,0.1-0.5,0.4-0.6c1.8-0.3,2.6-2.1,2.6-3.7c0-0.3,0.2-0.5,0.5-0.5
		c0.3,0,0.5,0.2,0.5,0.5C99.1,533.8,98,536,95.6,536.4C95.7,536.4,95.7,536.4,95.6,536.4"/>
	<path class="st0" d="M33.5,463.1c-1.7,0-3.1,1.4-3.1,3.1c0,1.7,1.4,3.1,3.1,3.1c1.7,0,3.1-1.4,3.1-3.1
		C36.6,464.4,35.3,463.1,33.5,463.1 M33.5,470.1c-2.2,0-4-1.8-4-4s1.8-4,4-4c2.2,0,4,1.8,4,4S35.7,470.1,33.5,470.1"/>
	<path class="st1" d="M95.5,463.1c-1.7,0-3.1,1.4-3.1,3.1c0,1.7,1.4,3.1,3.1,3.1c1.7,0,3.1-1.4,3.1-3.1
		C98.6,464.4,97.3,463.1,95.5,463.1 M95.5,470.1c-2.2,0-4-1.8-4-4s1.8-4,4-4c2.2,0,4,1.8,4,4S97.7,470.1,95.5,470.1"/>
	<path class="st0" d="M26.9,476.6c0.9,0.6,1.9,1,2.9,1.4l3.4-4.1c0.2-0.2,0.5-0.2,0.7,0l3.4,4.1c1-0.3,2-0.8,2.9-1.4l-1.1-5.3
		c0-0.1,0-0.3,0.1-0.4c0.1-0.1,0.2-0.2,0.3-0.2l5.5-0.1c0.4-1,0.6-2,0.8-3l-5-2.5c-0.1-0.1-0.2-0.2-0.2-0.3c0-0.1,0-0.3,0.1-0.4
		l3.5-4.6c-0.5-0.9-1.1-1.7-1.8-2.4l-5.3,2.4c-0.1,0.1-0.3,0.1-0.4,0c-0.1-0.1-0.2-0.2-0.2-0.3l-1.4-5.7c-1-0.1-2-0.1-3,0l-1.4,5.7
		c0,0.1-0.1,0.2-0.2,0.3c-0.1,0.1-0.3,0.1-0.4,0l-5.3-2.4c-0.7,0.7-1.3,1.5-1.8,2.4l3.5,4.6c0.1,0.1,0.1,0.2,0.1,0.4
		c0,0.1-0.1,0.2-0.2,0.3l-5,2.5c0.1,1,0.4,2.1,0.8,3l5.5,0.1c0.1,0,0.3,0.1,0.3,0.2c0.1,0.1,0.1,0.2,0.1,0.4L26.9,476.6z
		 M37.2,478.9c-0.1,0-0.3-0.1-0.3-0.2l-3.3-3.9l-3.3,3.9c-0.1,0.1-0.3,0.2-0.5,0.1c-1.3-0.4-2.6-1-3.7-1.7c-0.1-0.1-0.2-0.3-0.2-0.5
		l1-5l-5.3-0.1c-0.2,0-0.3-0.1-0.4-0.3c-0.5-1.2-0.8-2.5-1-3.9c0-0.2,0.1-0.4,0.2-0.4l4.8-2.4l-3.3-4.4c-0.1-0.1-0.1-0.3,0-0.5
		c0.6-1.1,1.4-2.2,2.4-3.1c0.1-0.1,0.3-0.2,0.5-0.1l5.1,2.3l1.4-5.5c0-0.2,0.2-0.3,0.4-0.3c1.3-0.2,2.5-0.2,3.8,0
		c0.2,0,0.3,0.2,0.4,0.3l1.4,5.5l5.1-2.3c0.2-0.1,0.4,0,0.5,0.1c0.9,0.9,1.7,1.9,2.4,3.1c0.1,0.2,0.1,0.3,0,0.5l-3.3,4.4l4.8,2.4
		c0.2,0.1,0.3,0.3,0.2,0.4c-0.1,1.3-0.4,2.6-1,3.9c-0.1,0.2-0.2,0.3-0.4,0.3l-5.3,0.1l1,5c0,0.2,0,0.4-0.2,0.5
		c-1.1,0.8-2.4,1.3-3.7,1.7C37.3,478.9,37.2,478.9,37.2,478.9"/>
	<path class="st1" d="M88.9,476.6c0.9,0.6,1.9,1,2.9,1.4l3.4-4.1c0.2-0.2,0.5-0.2,0.7,0l3.4,4.1c1-0.3,2-0.8,2.9-1.4l-1.1-5.3
		c0-0.1,0-0.3,0.1-0.4c0.1-0.1,0.2-0.2,0.3-0.2l5.5-0.1c0.4-1,0.6-2,0.8-3l-5-2.5c-0.1-0.1-0.2-0.2-0.2-0.3c0-0.1,0-0.3,0.1-0.4
		l3.5-4.6c-0.5-0.9-1.1-1.7-1.8-2.4l-5.3,2.4c-0.1,0.1-0.3,0.1-0.4,0c-0.1-0.1-0.2-0.2-0.2-0.3l-1.4-5.7c-1-0.1-2-0.1-3,0l-1.4,5.7
		c0,0.1-0.1,0.2-0.2,0.3c-0.1,0.1-0.3,0.1-0.4,0l-5.3-2.4c-0.7,0.7-1.3,1.5-1.8,2.4l3.5,4.6c0.1,0.1,0.1,0.2,0.1,0.4
		c0,0.1-0.1,0.2-0.2,0.3l-5,2.5c0.1,1,0.4,2.1,0.8,3l5.5,0.1c0.1,0,0.3,0.1,0.3,0.2c0.1,0.1,0.1,0.2,0.1,0.4L88.9,476.6z
		 M99.2,478.9c-0.1,0-0.3-0.1-0.3-0.2l-3.3-3.9l-3.3,3.9c-0.1,0.1-0.3,0.2-0.5,0.1c-1.3-0.4-2.6-1-3.7-1.7c-0.1-0.1-0.2-0.3-0.2-0.5
		l1-5l-5.3-0.1c-0.2,0-0.3-0.1-0.4-0.3c-0.5-1.2-0.8-2.5-1-3.9c0-0.2,0.1-0.4,0.2-0.4l4.8-2.4l-3.3-4.4c-0.1-0.1-0.1-0.3,0-0.5
		c0.6-1.1,1.4-2.2,2.4-3.1c0.1-0.1,0.3-0.2,0.5-0.1l5.1,2.3l1.4-5.5c0-0.2,0.2-0.3,0.4-0.3c1.3-0.2,2.5-0.2,3.8,0
		c0.2,0,0.3,0.2,0.4,0.3l1.4,5.5l5.1-2.3c0.2-0.1,0.4,0,0.5,0.1c0.9,0.9,1.7,1.9,2.4,3.1c0.1,0.2,0.1,0.3,0,0.5l-3.3,4.4l4.8,2.4
		c0.2,0.1,0.3,0.3,0.2,0.4c-0.1,1.3-0.4,2.6-1,3.9c-0.1,0.2-0.2,0.3-0.4,0.3l-5.3,0.1l1,5c0,0.2,0,0.4-0.2,0.5
		c-1.1,0.8-2.4,1.3-3.7,1.7C99.3,478.9,99.2,478.9,99.2,478.9"/>
	<path class="st0" d="M21.4,393.5c-0.5,0-0.9,0.4-0.9,0.9v18.5c0,0.5,0.4,0.9,0.9,0.9h23.1c0.5,0,0.9-0.4,0.9-0.9v-18.5
		c0-0.5-0.4-0.9-0.9-0.9H21.4z M44.6,415H21.4c-1,0-1.9-0.9-1.9-2.1v-18.5c0-1.1,0.9-2.1,1.9-2.1h23.1c1,0,1.9,0.9,1.9,2.1v18.5
		C46.5,414.1,45.6,415,44.6,415"/>
	<path class="st1" d="M83.4,393.5c-0.5,0-0.9,0.4-0.9,0.9v18.5c0,0.5,0.4,0.9,0.9,0.9h23.1c0.5,0,0.9-0.4,0.9-0.9v-18.5
		c0-0.5-0.4-0.9-0.9-0.9H83.4z M106.6,415H83.4c-1,0-1.9-0.9-1.9-2.1v-18.5c0-1.1,0.9-2.1,1.9-2.1h23.1c1,0,1.9,0.9,1.9,2.1v18.5
		C108.5,414.1,107.6,415,106.6,415"/>
	<path class="st0" d="M36.3,410.9c-0.2,0-0.4-0.1-0.5-0.3l-2.4-5h-2.4c-0.2,0-0.4-0.1-0.5-0.3l-1.7-4.3l-1.7,5.4
		c-0.1,0.2-0.2,0.3-0.4,0.4c-0.2,0-0.4,0-0.5-0.2l-1.7-2.1h-1.3c-0.3,0-0.5-0.3-0.5-0.6c0-0.3,0.2-0.6,0.5-0.6h1.6
		c0.1,0,0.3,0.1,0.4,0.2l1.2,1.5l1.8-5.9c0.1-0.2,0.3-0.4,0.5-0.4c0.2,0,0.4,0.1,0.5,0.3l2.1,5.3h2.3c0.2,0,0.4,0.1,0.5,0.3l1.9,3.9
		l2-9.5c0-0.2,0.2-0.4,0.4-0.4c0.2,0,0.4,0.1,0.5,0.3l2.3,4.2h1.3c0.3,0,0.5,0.3,0.5,0.6c0,0.3-0.2,0.6-0.5,0.6H41
		c-0.2,0-0.4-0.1-0.4-0.3l-1.8-3.3l-2,9.6C36.7,410.7,36.6,410.8,36.3,410.9C36.3,410.9,36.3,410.9,36.3,410.9"/>
	<path class="st1" d="M98.3,410.9c-0.2,0-0.4-0.1-0.5-0.3l-2.4-5h-2.4c-0.2,0-0.4-0.1-0.5-0.3l-1.7-4.3l-1.7,5.4
		c-0.1,0.2-0.2,0.3-0.4,0.4c-0.2,0-0.4,0-0.5-0.2l-1.7-2.1h-1.3c-0.3,0-0.5-0.3-0.5-0.6c0-0.3,0.2-0.6,0.5-0.6h1.6
		c0.1,0,0.3,0.1,0.4,0.2l1.2,1.5l1.8-5.9c0.1-0.2,0.3-0.4,0.5-0.4c0.2,0,0.4,0.1,0.5,0.3l2.1,5.3h2.3c0.2,0,0.4,0.1,0.5,0.3l1.9,3.9
		l2-9.5c0-0.2,0.2-0.4,0.4-0.4c0.2,0,0.4,0.1,0.5,0.3l2.3,4.2h1.3c0.3,0,0.5,0.3,0.5,0.6c0,0.3-0.2,0.6-0.5,0.6H103
		c-0.2,0-0.4-0.1-0.4-0.3l-1.8-3.3l-2,9.6C98.7,410.7,98.6,410.8,98.3,410.9C98.3,410.9,98.3,410.9,98.3,410.9"/>
	<path class="st0" d="M29.3,355.1c-0.3,0-0.8-0.1-1.3-0.6c-1.1-1.1-0.3-3.4,0.2-5.1c0.1-0.3,0.2-0.6,0.2-0.8c0.5-1.8,0.6-3.6,0.3-5
		c-0.3-1.3-0.8-2.3-1.5-3.1c-0.8-0.7-2-1-2.8-1.1c-0.1,0-0.4,0-0.8-0.1l-0.4,0c-1.7-0.1-1.7-0.1-1.9-0.4c-0.1-0.2-0.1-0.4,0-0.5
		c0.3-0.5,1.4-1.3,3.8-2.7c0.4-0.2,0.7-0.4,1-0.6c0.3-0.2,0.5-0.4,0.8-0.6c1.2-0.9,2.9-2.1,5.3-2.1c3.2-0.1,4.7,1.3,5.9,3.5
		c1.2,2.2,5.5,8.4,8.7,9.1c0.3,0.1,0.5,0.4,0.4,0.7s-0.4,0.5-0.7,0.4c-3.9-0.9-8.5-7.9-9.5-9.7c-1.2-2.2-2.5-3-4.8-2.9
		c-2,0.1-3.5,1.1-4.7,1.9c-0.3,0.2-0.6,0.4-0.9,0.6c-0.3,0.2-0.6,0.4-1,0.6c-0.6,0.4-1.7,1-2.5,1.5c0,0,0.1,0,0.1,0l0.4,0
		c0.5,0,0.7,0.1,0.8,0.1c1,0.1,2.4,0.5,3.4,1.4c0,0,0,0,0,0c0.9,1,1.5,2.2,1.8,3.7c0.3,1.5,0.2,3.5-0.3,5.5
		c-0.1,0.2-0.2,0.5-0.3,0.9c-0.4,1.1-1.1,3.3-0.5,3.9c0.2,0.2,0.4,0.2,0.5,0.2c0.3,0,0.6-0.3,0.9-0.7c0.3-0.4,0.5-0.8,0.6-1.2
		c0-0.1,0.1-0.3,0.1-0.5c0-0.2,0.1-0.4,0.1-0.6c0,0,0-0.1,0-0.2c0-0.3,0.1-0.5,0.3-0.8c0.1-0.2,0.3-0.2,0.5-0.2
		c0.2,0,0.4,0.1,0.5,0.3c0.1,0.2,0.1,0.3,0.2,0.5c0.1,0.4,0.3,0.7,0.5,1c0.6,0.8,1.8,1,2.6,0.5c1.2-0.7,1.6-3,1.1-4.4c0,0,0,0,0,0
		c0,0,0,0,0,0c0,0,0,0,0,0c-0.1-0.3,0.1-0.6,0.4-0.7c0.3-0.1,0.6,0.1,0.7,0.3c0,0,0,0,0,0l0,0c0,0,0,0,0,0c0.3,0.8,1.1,1.8,2.2,1.6
		c0.3,0,0.5-0.2,0.7-0.5c0.3-0.5,0.4-1.3,0.1-1.9c-0.1-0.3,0-0.6,0.3-0.7c0.3-0.1,0.6,0,0.8,0.3c0.4,0.8,0.3,2-0.2,2.8
		c-0.3,0.6-0.9,1-1.5,1.1c-0.8,0.1-1.5-0.1-2.2-0.5c-0.1,1.4-0.7,2.9-1.8,3.6c-1.4,0.8-3.2,0.4-4.2-0.8c0-0.1-0.1-0.1-0.1-0.2
		c0,0.1,0,0.2-0.1,0.3c-0.2,0.6-0.6,1.2-0.8,1.5c-0.3,0.4-0.9,1.1-1.8,1.1C29.4,355.1,29.4,355.1,29.3,355.1"/>
	<path class="st1" d="M91.3,355.1c-0.3,0-0.8-0.1-1.3-0.6c-1.1-1.1-0.3-3.4,0.2-5.1c0.1-0.3,0.2-0.6,0.2-0.8c0.5-1.8,0.6-3.6,0.3-5
		c-0.3-1.3-0.8-2.3-1.5-3.1c-0.8-0.7-2-1-2.8-1.1c-0.1,0-0.4,0-0.8-0.1l-0.4,0c-1.7-0.1-1.7-0.1-1.9-0.4c-0.1-0.2-0.1-0.4,0-0.5
		c0.3-0.5,1.4-1.3,3.8-2.7c0.4-0.2,0.7-0.4,1-0.6c0.3-0.2,0.5-0.4,0.8-0.6c1.2-0.9,2.9-2.1,5.3-2.1c3.2-0.1,4.7,1.3,5.9,3.5
		c1.2,2.2,5.5,8.4,8.7,9.1c0.3,0.1,0.5,0.4,0.4,0.7c-0.1,0.3-0.4,0.5-0.7,0.4c-3.9-0.9-8.5-7.9-9.5-9.7c-1.2-2.2-2.5-3-4.8-2.9
		c-2,0.1-3.5,1.1-4.7,1.9c-0.3,0.2-0.6,0.4-0.9,0.6c-0.3,0.2-0.6,0.4-1,0.6c-0.6,0.4-1.7,1-2.5,1.5c0,0,0.1,0,0.1,0l0.4,0
		c0.5,0,0.7,0.1,0.8,0.1c1,0.1,2.4,0.5,3.4,1.4c0,0,0,0,0,0c0.9,1,1.5,2.2,1.8,3.7c0.3,1.5,0.2,3.5-0.3,5.5
		c-0.1,0.2-0.2,0.5-0.3,0.9c-0.4,1.1-1.1,3.3-0.5,3.9c0.2,0.2,0.4,0.2,0.5,0.2c0.3,0,0.6-0.3,0.9-0.7c0.3-0.4,0.5-0.8,0.6-1.2
		c0-0.1,0.1-0.3,0.1-0.5c0-0.2,0.1-0.4,0.1-0.6c0,0,0-0.1,0-0.2c0-0.3,0.1-0.5,0.3-0.8c0.1-0.2,0.3-0.2,0.5-0.2
		c0.2,0,0.4,0.1,0.5,0.3c0.1,0.2,0.1,0.3,0.2,0.5c0.1,0.4,0.3,0.7,0.5,1c0.6,0.8,1.8,1,2.6,0.5c1.2-0.7,1.6-3,1.1-4.4c0,0,0,0,0,0
		c0,0,0,0,0,0c0,0,0,0,0,0c-0.1-0.3,0.1-0.6,0.4-0.7s0.6,0.1,0.7,0.3c0,0,0,0,0,0l0,0c0,0,0,0,0,0c0.3,0.8,1.1,1.8,2.2,1.6
		c0.3,0,0.5-0.2,0.7-0.5c0.3-0.5,0.4-1.3,0.1-1.9c-0.1-0.3,0-0.6,0.3-0.7c0.3-0.1,0.6,0,0.8,0.3c0.4,0.8,0.3,2-0.2,2.8
		c-0.3,0.6-0.9,1-1.5,1.1c-0.8,0.1-1.5-0.1-2.2-0.5c-0.1,1.4-0.7,2.9-1.8,3.6c-1.4,0.8-3.2,0.4-4.2-0.8c0-0.1-0.1-0.1-0.1-0.2
		c0,0.1,0,0.2-0.1,0.3c-0.2,0.6-0.6,1.2-0.8,1.5c-0.3,0.4-0.9,1.1-1.8,1.1C91.4,355.1,91.4,355.1,91.3,355.1"/>
	<path class="st0" d="M30.5,338.1c-0.5,0.5-1.3,0.5-1.8,0c-0.5-0.5-0.5-1.3,0-1.8c0.5-0.5,1.3-0.5,1.8,0
		C31,336.9,31,337.7,30.5,338.1"/>
	<path class="st1" d="M92.5,338.1c-0.5,0.5-1.3,0.5-1.8,0c-0.5-0.5-0.5-1.3,0-1.8s1.3-0.5,1.8,0C93,336.9,93,337.7,92.5,338.1"/>
	<path class="st0" d="M42.5,45.8H23.4c-0.3,0-0.5-0.2-0.5-0.5V34.7c0-0.3,0.2-0.5,0.5-0.5c0.3,0,0.5,0.2,0.5,0.5v10H42v-10
		c0-0.3,0.2-0.5,0.5-0.5c0.3,0,0.5,0.2,0.5,0.5v10.5C43,45.5,42.8,45.8,42.5,45.8"/>
	<path class="st0" d="M21.1,33.8c-0.1,0-0.3-0.1-0.4-0.2c-0.2-0.2-0.2-0.5,0-0.7l11.8-10.9c0.2-0.2,0.5-0.2,0.7,0
		c0.2,0.2,0.2,0.5,0,0.7L21.4,33.6C21.3,33.7,21.2,33.8,21.1,33.8"/>
	<path class="st0" d="M44.9,33.8c-0.1,0-0.2,0-0.3-0.1L32.8,22.8c-0.2-0.2-0.2-0.5,0-0.7c0.2-0.2,0.5-0.2,0.7,0l11.8,10.9
		c0.2,0.2,0.2,0.5,0,0.7C45.2,33.7,45.1,33.8,44.9,33.8"/>
	<path class="st1" d="M104.5,45.8H85.4c-0.3,0-0.5-0.2-0.5-0.5V34.7c0-0.3,0.2-0.5,0.5-0.5c0.3,0,0.5,0.2,0.5,0.5v10H104v-10
		c0-0.3,0.2-0.5,0.5-0.5c0.3,0,0.5,0.2,0.5,0.5v10.5C105,45.5,104.8,45.8,104.5,45.8"/>
	<path class="st1" d="M83.1,33.8c-0.1,0-0.3-0.1-0.4-0.2c-0.2-0.2-0.2-0.5,0-0.7l11.8-10.9c0.2-0.2,0.5-0.2,0.7,0
		c0.2,0.2,0.2,0.5,0,0.7L83.4,33.6C83.3,33.7,83.2,33.8,83.1,33.8"/>
	<path class="st1" d="M106.9,33.8c-0.1,0-0.2,0-0.3-0.1L94.8,22.8c-0.2-0.2-0.2-0.5,0-0.7c0.2-0.2,0.5-0.2,0.7,0l11.8,10.9
		c0.2,0.2,0.2,0.5,0,0.7C107.2,33.7,107.1,33.8,106.9,33.8"/>
	<path class="st0" d="M46.8,92.4l-9.7,0c0.1,0.3,0.2,0.6,0.2,0.9l9.1,0l2.6,2.6l-2.4,2.6l-3-2.3l-3,2.3l-3-2.3l-3.2,2.3h-4.1
		l-0.1,0.2c-0.3,0.5-0.6,1-1,1.4c-2.3,2.3-6.1,2.3-8.4,0c-2.3-2.3-2.3-6.1,0-8.4c2.3-2.3,6.1-2.3,8.4,0c0.4,0.4,0.8,0.9,1,1.4
		l0.1,0.2h3.9H35c-0.1-0.3-0.1-0.6-0.2-0.9c-0.5-1.4-1.3-2.8-2.4-3.9c-4.1-4.1-10.7-4.1-14.7,0c-4.1,4.1-4.1,10.7,0,14.7
		c4.1,4.1,10.7,4.1,14.7,0c0.6-0.6,1.2-1.4,1.6-2.1h-1c-0.3,0.5-0.7,1-1.2,1.5c-3.7,3.7-9.8,3.7-13.5,0c-3.7-3.7-3.7-9.8,0-13.5
		c3.7-3.7,9.8-3.7,13.5,0c1,1,1.7,2.1,2.1,3.3h-3.1c-0.3-0.5-0.7-1-1.1-1.4c-2.7-2.7-7-2.7-9.6,0c-2.7,2.7-2.7,7,0,9.6
		c2.7,2.7,7,2.7,9.6,0c0.4-0.4,0.8-0.9,1.1-1.4h3.1h0.8h0.1l2.8-2.1l3,2.3l3-2.3l3,2.3l3.6-3.6L46.8,92.4z"/>
	<path class="st1" d="M108.8,92.4l-9.7,0c0.1,0.3,0.2,0.6,0.2,0.9l9.1,0l2.6,2.6l-2.4,2.6l-3-2.3l-3,2.3l-3-2.3l-3.2,2.3h-4.1
		l-0.1,0.2c-0.3,0.5-0.6,1-1,1.4c-2.3,2.3-6.1,2.3-8.4,0c-2.3-2.3-2.3-6.1,0-8.4c2.3-2.3,6.1-2.3,8.4,0c0.4,0.4,0.8,0.9,1,1.4
		l0.1,0.2h3.9H97c-0.1-0.3-0.1-0.6-0.2-0.9c-0.5-1.4-1.3-2.8-2.4-3.9c-4.1-4.1-10.7-4.1-14.7,0c-4.1,4.1-4.1,10.7,0,14.7
		c4.1,4.1,10.7,4.1,14.7,0c0.6-0.6,1.2-1.4,1.6-2.1h-1c-0.3,0.5-0.7,1-1.2,1.5c-3.7,3.7-9.8,3.7-13.5,0c-3.7-3.7-3.7-9.8,0-13.5
		c3.7-3.7,9.8-3.7,13.5,0c1,1,1.7,2.1,2.1,3.3h-3.1c-0.3-0.5-0.7-1-1.1-1.4c-2.7-2.7-7-2.7-9.6,0c-2.7,2.7-2.7,7,0,9.6
		c2.7,2.7,7,2.7,9.6,0c0.4-0.4,0.8-0.9,1.1-1.4h3.1h0.8h0.1l2.8-2.1l3,2.3l3-2.3l3,2.3l3.6-3.6L108.8,92.4z"/>
	<path class="st0" d="M22,95.1c-0.4,0.4-0.4,1,0,1.4s1,0.4,1.4,0c0.4-0.4,0.4-1,0-1.4C23,94.8,22.4,94.8,22,95.1"/>
	<path class="st1" d="M84,95.1c-0.4,0.4-0.4,1,0,1.4c0.4,0.4,1,0.4,1.4,0c0.4-0.4,0.4-1,0-1.4C85,94.8,84.4,94.8,84,95.1"/>
	<path class="st0" d="M33,209.4c-0.9,3-2.3,5.2-3.5,7.1c-1.6,2.4-2.9,4.5-2.9,7.7c0,3.4,2.7,7.1,6.5,7.1c3.7,0,6.5-3.7,6.5-7.1
		c0-3.2-1.4-5.3-2.9-7.7C35.3,214.6,33.9,212.4,33,209.4 M33,232.3c-4,0-7.5-3.8-7.5-8.1c0-3.5,1.5-5.8,3.1-8.3
		c1.5-2.2,3.1-4.7,3.9-8.7c0-0.2,0.2-0.3,0.5-0.3h0c0.2,0,0.4,0.1,0.5,0.3c0.7,4,2.3,6.4,3.9,8.7c1.6,2.4,3.1,4.7,3.1,8.2
		C40.5,228.1,37.3,232.3,33,232.3"/>
	<path class="st0" d="M33.6,228.7c-0.2,0-0.4-0.2-0.5-0.4c0-0.3,0.1-0.5,0.4-0.6c1.8-0.3,2.6-2.1,2.6-3.7c0-0.3,0.2-0.5,0.5-0.5
		c0.3,0,0.5,0.2,0.5,0.5C37.1,226,36,228.3,33.6,228.7C33.7,228.7,33.7,228.7,33.6,228.7"/>
	<path class="st1" d="M95,209.4c-0.9,3-2.3,5.2-3.5,7.1c-1.6,2.4-2.9,4.5-2.9,7.7c0,3.4,2.7,7.1,6.5,7.1c3.7,0,6.5-3.7,6.5-7.1
		c0-3.2-1.4-5.3-2.9-7.7C97.3,214.6,95.9,212.4,95,209.4 M95,232.3c-4,0-7.5-3.8-7.5-8.1c0-3.5,1.5-5.8,3.1-8.3
		c1.5-2.2,3.1-4.7,3.9-8.7c0-0.2,0.2-0.3,0.5-0.3h0c0.2,0,0.4,0.1,0.5,0.3c0.7,4,2.3,6.4,3.9,8.7c1.6,2.4,3.1,4.7,3.1,8.2
		C102.5,228.1,99.3,232.3,95,232.3"/>
	<path class="st1" d="M95.6,228.7c-0.2,0-0.4-0.2-0.5-0.4c0-0.3,0.1-0.5,0.4-0.6c1.8-0.3,2.6-2.1,2.6-3.7c0-0.3,0.2-0.5,0.5-0.5
		c0.3,0,0.5,0.2,0.5,0.5C99.1,226,98,228.3,95.6,228.7C95.7,228.7,95.7,228.7,95.6,228.7"/>
	<path class="st0" d="M33,209.4c-0.9,3-2.3,5.2-3.5,7.1c-1.6,2.4-2.9,4.5-2.9,7.7c0,3.4,2.7,7.1,6.5,7.1c3.7,0,6.5-3.7,6.5-7.1
		c0-3.2-1.4-5.3-2.9-7.7C35.3,214.6,33.9,212.4,33,209.4 M33,232.3c-4,0-7.5-3.8-7.5-8.1c0-3.5,1.5-5.8,3.1-8.3
		c1.5-2.2,3.1-4.7,3.9-8.7c0-0.2,0.2-0.3,0.5-0.3h0c0.2,0,0.4,0.1,0.5,0.3c0.7,4,2.3,6.4,3.9,8.7c1.6,2.4,3.1,4.7,3.1,8.2
		C40.5,228.1,37.3,232.3,33,232.3"/>
	<path class="st0" d="M33.6,228.7c-0.2,0-0.4-0.2-0.5-0.4c0-0.3,0.1-0.5,0.4-0.6c1.8-0.3,2.6-2.1,2.6-3.7c0-0.3,0.2-0.5,0.5-0.5
		c0.3,0,0.5,0.2,0.5,0.5C37.1,226,36,228.3,33.6,228.7C33.7,228.7,33.7,228.7,33.6,228.7"/>
	<path class="st1" d="M95,209.4c-0.9,3-2.3,5.2-3.5,7.1c-1.6,2.4-2.9,4.5-2.9,7.7c0,3.4,2.7,7.1,6.5,7.1c3.7,0,6.5-3.7,6.5-7.1
		c0-3.2-1.4-5.3-2.9-7.7C97.3,214.6,95.9,212.4,95,209.4 M95,232.3c-4,0-7.5-3.8-7.5-8.1c0-3.5,1.5-5.8,3.1-8.3
		c1.5-2.2,3.1-4.7,3.9-8.7c0-0.2,0.2-0.3,0.5-0.3h0c0.2,0,0.4,0.1,0.5,0.3c0.7,4,2.3,6.4,3.9,8.7c1.6,2.4,3.1,4.7,3.1,8.2
		C102.5,228.1,99.3,232.3,95,232.3"/>
	<path class="st1" d="M95.6,228.7c-0.2,0-0.4-0.2-0.5-0.4c0-0.3,0.1-0.5,0.4-0.6c1.8-0.3,2.6-2.1,2.6-3.7c0-0.3,0.2-0.5,0.5-0.5
		c0.3,0,0.5,0.2,0.5,0.5C99.1,226,98,228.3,95.6,228.7C95.7,228.7,95.7,228.7,95.6,228.7"/>
	<path class="st0" d="M42.6,167.1c-0.1,0-0.2,0-0.3-0.1c-0.2-0.2-0.2-0.5-0.1-0.7c1.9-2.3,3.1-5.1,3.2-8.1h-5.8
		c-0.1,2.4-0.4,4.8-1.1,7c-0.1,0.3-0.3,0.4-0.6,0.3c-0.3-0.1-0.4-0.3-0.3-0.6c0.7-2.4,1-4.8,1.1-7.3c0-0.3,0.2-0.5,0.5-0.5H46
		c0.1,0,0.3,0.1,0.3,0.1c0.1,0.1,0.1,0.2,0.1,0.3c0,3.4-1.3,6.6-3.5,9.2C42.9,167,42.8,167.1,42.6,167.1"/>
	<path class="st0" d="M46,158c-0.3,0-0.5-0.2-0.5-0.5c0-3.1-1.1-6.1-3-8.4c-1.2,0.5-2.5,0.9-3.8,1.2c0.6,2.3,1,4.8,1,7.2
		c0,0.3-0.2,0.5-0.5,0.5c-0.3,0-0.5-0.2-0.5-0.5c0-2.5-0.4-5-1.1-7.4c0-0.1,0-0.3,0-0.4c0.1-0.1,0.2-0.2,0.3-0.2
		c1.6-0.3,3.1-0.8,4.5-1.4c0.2-0.1,0.4,0,0.6,0.1c2.2,2.6,3.5,5.9,3.5,9.3C46.5,157.8,46.2,158,46,158"/>
	<path class="st0" d="M21.7,167.1c-0.1,0-0.3-0.1-0.4-0.2c-2.2-2.6-3.5-5.9-3.5-9.3c0-3.4,1.2-6.7,3.5-9.3c0.2-0.2,0.5-0.2,0.7-0.1
		c0.2,0.2,0.2,0.5,0.1,0.7c-2.1,2.4-3.2,5.5-3.2,8.7c0,3.2,1.1,6.3,3.2,8.7c0.2,0.2,0.2,0.5-0.1,0.7C21.9,167,21.8,167.1,21.7,167.1
		"/>
	<path class="st0" d="M26.2,150.5c0,0-0.1,0-0.1,0c-1.6-0.4-3.2-0.9-4.6-1.5c-0.2-0.1-0.4-0.4-0.3-0.6c0.1-0.2,0.4-0.4,0.6-0.3
		c1.4,0.6,2.9,1.1,4.5,1.4c0.3,0.1,0.4,0.3,0.4,0.6C26.6,150.3,26.4,150.5,26.2,150.5"/>
	<path class="st0" d="M24.9,158.2h-6.5c-0.3,0-0.5-0.2-0.5-0.5c0-0.3,0.2-0.5,0.5-0.5h6.5c0.3,0,0.5,0.2,0.5,0.5
		C25.4,158,25.2,158.2,24.9,158.2"/>
	<path class="st0" d="M32.4,158.2h-7.3c-0.3,0-0.5-0.2-0.5-0.5c0-0.1,0-0.1,0-0.2c0-2.6,0.4-5.2,1.1-7.7c0.1-0.2,0.3-0.4,0.6-0.3
		c1.9,0.4,3.8,0.6,5.8,0.6c0,0,0,0,0,0c0.3,0,0.5,0.2,0.5,0.5c0,0.3-0.2,0.5-0.5,0.5c0,0,0,0,0,0c-1.9,0-3.8-0.2-5.6-0.6
		c-0.6,2.2-0.9,4.4-0.9,6.7h6.8c0.3,0,0.5,0.2,0.5,0.5C32.9,158,32.6,158.2,32.4,158.2"/>
	<path class="st0" d="M26.2,165.6c-0.2,0-0.4-0.1-0.5-0.3c-0.7-2.4-1.1-5-1.1-7.5c0-0.3,0.2-0.5,0.5-0.5h0c0.3,0,0.5,0.3,0.5,0.5
		c0,2.3,0.3,4.6,0.9,6.8c1.7-0.4,3.5-0.5,5.2-0.5v-6.1c0-0.3,0.2-0.5,0.5-0.5c0.3,0,0.5,0.2,0.5,0.5v6.6c0,0.2-0.2,0.4-0.4,0.5
		c0,0-0.1,0-0.2,0c-1.9,0-3.9,0.2-5.8,0.6C26.3,165.6,26.2,165.6,26.2,165.6"/>
	<path class="st0" d="M39.2,158.2h-7c-0.3,0-0.5-0.2-0.5-0.5v-7.1c0-0.3,0.2-0.5,0.5-0.5c2,0,3.9-0.2,5.8-0.6
		c0.3-0.1,0.5,0.1,0.6,0.4s-0.1,0.5-0.4,0.6c-1.8,0.4-3.6,0.6-5.5,0.6v6.1h6.5c0.3,0,0.5,0.2,0.5,0.5
		C39.7,158,39.5,158.2,39.2,158.2"/>
	<path class="st0" d="M42.6,149c-0.1,0-0.3-0.1-0.4-0.2c-1.8-2.1-4.2-3.6-6.8-4.2c-0.3-0.1-0.4-0.3-0.4-0.6c0.1-0.3,0.3-0.4,0.6-0.4
		c2.8,0.7,5.4,2.3,7.3,4.5c0.2,0.2,0.2,0.5-0.1,0.7C42.9,149,42.7,149,42.6,149"/>
	<path class="st0" d="M38.1,150.5c-0.2,0-0.4-0.1-0.5-0.3c-0.6-2-1.4-3.9-2.5-5.7c-0.1-0.2-0.1-0.5,0.2-0.7c0.2-0.1,0.5-0.1,0.7,0.2
		c1.1,1.9,1.9,3.9,2.6,6c0.1,0.3-0.1,0.5-0.3,0.6C38.2,150.5,38.1,150.5,38.1,150.5"/>
	<path class="st0" d="M21.7,149c-0.1,0-0.2,0-0.3-0.1c-0.2-0.2-0.2-0.5-0.1-0.7c1.9-2.2,4.5-3.8,7.3-4.5c0.3-0.1,0.5,0.1,0.6,0.4
		c0.1,0.3-0.1,0.5-0.4,0.6c-2.7,0.7-5,2.1-6.8,4.2C21.9,149,21.8,149,21.7,149"/>
	<path class="st0" d="M26.2,150.5c0,0-0.1,0-0.1,0c-0.3-0.1-0.4-0.3-0.3-0.6c0.6-2.1,1.5-4.1,2.6-6c0.1-0.2,0.4-0.3,0.7-0.2
		c0.2,0.1,0.3,0.4,0.2,0.7c-1,1.8-1.9,3.7-2.5,5.7C26.6,150.3,26.4,150.5,26.2,150.5"/>
	<path class="st0" d="M28.7,144.6c-0.2,0-0.4-0.1-0.5-0.4c-0.1-0.3,0.1-0.5,0.4-0.6c2.3-0.6,4.8-0.6,7.1,0c0.3,0.1,0.4,0.3,0.4,0.6
		c-0.1,0.3-0.3,0.4-0.6,0.4c-2.2-0.5-4.5-0.5-6.6,0C28.8,144.6,28.8,144.6,28.7,144.6"/>
	<path class="st0" d="M32.2,151.2c-0.3,0-0.5-0.2-0.5-0.5v-6.5c0-0.3,0.2-0.5,0.5-0.5c0.3,0,0.5,0.2,0.5,0.5v6.5
		C32.7,151,32.5,151.2,32.2,151.2"/>
	<path class="st0" d="M35.6,171.4c-0.2,0-0.4-0.1-0.5-0.4c-0.1-0.3,0.1-0.5,0.4-0.6c2.7-0.7,5-2.1,6.8-4.2c0.2-0.2,0.5-0.2,0.7-0.1
		c0.2,0.2,0.2,0.5,0.1,0.7c-1.9,2.2-4.5,3.8-7.3,4.5C35.7,171.4,35.6,171.4,35.6,171.4"/>
	<path class="st0" d="M35.6,171.4c-0.1,0-0.2,0-0.2-0.1c-0.2-0.1-0.3-0.4-0.2-0.7c1-1.8,1.9-3.7,2.5-5.7c0.1-0.2,0.3-0.4,0.6-0.3
		c1.6,0.4,3.2,0.9,4.6,1.5c0.2,0.1,0.4,0.4,0.3,0.6c-0.1,0.2-0.4,0.4-0.6,0.3c-1.3-0.6-2.6-1-4-1.3c-0.6,1.9-1.4,3.8-2.4,5.5
		C35.9,171.4,35.7,171.4,35.6,171.4"/>
	<path class="st0" d="M28.7,171.4c0,0-0.1,0-0.1,0c-2.8-0.7-5.4-2.3-7.3-4.5c-0.2-0.2-0.2-0.5,0.1-0.7c0.2-0.2,0.5-0.2,0.7,0.1
		c1.8,2.1,4.2,3.6,6.8,4.2c0.3,0.1,0.4,0.3,0.4,0.6C29.1,171.3,28.9,171.4,28.7,171.4"/>
	<path class="st0" d="M28.7,171.4c-0.2,0-0.3-0.1-0.4-0.2c-1-1.7-1.8-3.6-2.4-5.5c-1.4,0.3-2.7,0.8-4,1.3c-0.2,0.1-0.5,0-0.6-0.3
		c-0.1-0.2,0-0.5,0.2-0.6c1.5-0.6,3-1.1,4.6-1.5c0.3-0.1,0.5,0.1,0.6,0.3c0.6,2,1.4,3.9,2.5,5.7c0.1,0.2,0.1,0.5-0.2,0.7
		C28.9,171.4,28.8,171.4,28.7,171.4"/>
	<path class="st0" d="M32.1,171.9c-1.2,0-2.4-0.1-3.5-0.4c-0.3-0.1-0.4-0.3-0.4-0.6c0.1-0.3,0.3-0.4,0.6-0.4c2.2,0.5,4.5,0.5,6.6,0
		c0.3-0.1,0.5,0.1,0.6,0.4c0.1,0.3-0.1,0.5-0.4,0.6C34.5,171.7,33.3,171.9,32.1,171.9"/>
	<path class="st0" d="M32.2,171.3c-0.3,0-0.5-0.2-0.5-0.5v-6.4c0-0.1,0.1-0.3,0.1-0.3c0.1-0.1,0.2-0.1,0.3-0.1c2.2,0,4.2,0.2,6,0.6
		c0.3,0.1,0.4,0.3,0.4,0.6c-0.1,0.3-0.3,0.4-0.6,0.4c-1.6-0.3-3.3-0.5-5.3-0.6v5.9C32.7,171.1,32.5,171.3,32.2,171.3"/>
	<path class="st1" d="M104.6,167.1c-0.1,0-0.2,0-0.3-0.1c-0.2-0.2-0.2-0.5-0.1-0.7c1.9-2.3,3.1-5.1,3.2-8.1h-5.8
		c-0.1,2.4-0.4,4.8-1.1,7c-0.1,0.3-0.3,0.4-0.6,0.3c-0.3-0.1-0.4-0.3-0.3-0.6c0.7-2.4,1-4.8,1.1-7.3c0-0.3,0.2-0.5,0.5-0.5h6.8
		c0.1,0,0.3,0.1,0.3,0.1c0.1,0.1,0.1,0.2,0.1,0.3c0,3.4-1.3,6.6-3.5,9.2C104.9,167,104.8,167.1,104.6,167.1"/>
	<path class="st1" d="M108,158c-0.3,0-0.5-0.2-0.5-0.5c0-3.1-1.1-6.1-3-8.4c-1.2,0.5-2.5,0.9-3.8,1.2c0.6,2.3,1,4.8,1,7.2
		c0,0.3-0.2,0.5-0.5,0.5c-0.3,0-0.5-0.2-0.5-0.5c0-2.5-0.4-5-1.1-7.4c0-0.1,0-0.3,0-0.4c0.1-0.1,0.2-0.2,0.3-0.2
		c1.6-0.3,3.1-0.8,4.5-1.4c0.2-0.1,0.4,0,0.6,0.1c2.2,2.6,3.5,5.9,3.5,9.3C108.5,157.8,108.2,158,108,158"/>
	<path class="st1" d="M83.7,167.1c-0.1,0-0.3-0.1-0.4-0.2c-2.2-2.6-3.5-5.9-3.5-9.3c0-3.4,1.2-6.7,3.5-9.3c0.2-0.2,0.5-0.2,0.7-0.1
		c0.2,0.2,0.2,0.5,0.1,0.7c-2.1,2.4-3.2,5.5-3.2,8.7c0,3.2,1.1,6.3,3.2,8.7c0.2,0.2,0.2,0.5-0.1,0.7C83.9,167,83.8,167.1,83.7,167.1
		"/>
	<path class="st1" d="M88.2,150.5c0,0-0.1,0-0.1,0c-1.6-0.4-3.2-0.9-4.6-1.5c-0.2-0.1-0.4-0.4-0.3-0.6c0.1-0.2,0.4-0.4,0.6-0.3
		c1.4,0.6,2.9,1.1,4.5,1.4c0.3,0.1,0.4,0.3,0.4,0.6C88.6,150.3,88.4,150.5,88.2,150.5"/>
	<path class="st1" d="M86.9,158.2h-6.5c-0.3,0-0.5-0.2-0.5-0.5c0-0.3,0.2-0.5,0.5-0.5h6.5c0.3,0,0.5,0.2,0.5,0.5
		C87.4,158,87.2,158.2,86.9,158.2"/>
	<path class="st1" d="M94.4,158.2h-7.3c-0.3,0-0.5-0.2-0.5-0.5c0-0.1,0-0.1,0-0.2c0-2.6,0.4-5.2,1.1-7.7c0.1-0.2,0.3-0.4,0.6-0.3
		c1.9,0.4,3.8,0.6,5.8,0.6c0,0,0,0,0,0c0.3,0,0.5,0.2,0.5,0.5c0,0.3-0.2,0.5-0.5,0.5c0,0,0,0,0,0c-1.9,0-3.8-0.2-5.6-0.6
		c-0.6,2.2-0.9,4.4-0.9,6.7h6.8c0.3,0,0.5,0.2,0.5,0.5C94.9,158,94.6,158.2,94.4,158.2"/>
	<path class="st1" d="M88.2,165.6c-0.2,0-0.4-0.1-0.5-0.3c-0.7-2.4-1.1-5-1.1-7.5c0-0.3,0.2-0.5,0.5-0.5h0c0.3,0,0.5,0.3,0.5,0.5
		c0,2.3,0.3,4.6,0.9,6.8c1.7-0.4,3.5-0.5,5.2-0.5v-6.1c0-0.3,0.2-0.5,0.5-0.5c0.3,0,0.5,0.2,0.5,0.5v6.6c0,0.2-0.2,0.4-0.4,0.5
		c0,0-0.1,0-0.2,0c-1.9,0-3.9,0.2-5.8,0.6C88.3,165.6,88.2,165.6,88.2,165.6"/>
	<path class="st1" d="M101.2,158.2h-7c-0.3,0-0.5-0.2-0.5-0.5v-7.1c0-0.3,0.2-0.5,0.5-0.5c2,0,3.9-0.2,5.8-0.6
		c0.3-0.1,0.5,0.1,0.6,0.4s-0.1,0.5-0.4,0.6c-1.8,0.4-3.6,0.6-5.5,0.6v6.1h6.5c0.3,0,0.5,0.2,0.5,0.5
		C101.7,158,101.5,158.2,101.2,158.2"/>
	<path class="st1" d="M104.6,149c-0.1,0-0.3-0.1-0.4-0.2c-1.8-2.1-4.2-3.6-6.8-4.2c-0.3-0.1-0.4-0.3-0.4-0.6
		c0.1-0.3,0.3-0.4,0.6-0.4c2.8,0.7,5.4,2.3,7.3,4.5c0.2,0.2,0.2,0.5-0.1,0.7C104.9,149,104.7,149,104.6,149"/>
	<path class="st1" d="M100.1,150.5c-0.2,0-0.4-0.1-0.5-0.3c-0.6-2-1.4-3.9-2.5-5.7c-0.1-0.2-0.1-0.5,0.2-0.7
		c0.2-0.1,0.5-0.1,0.7,0.2c1.1,1.9,1.9,3.9,2.6,6c0.1,0.3-0.1,0.5-0.3,0.6C100.2,150.5,100.1,150.5,100.1,150.5"/>
	<path class="st1" d="M83.7,149c-0.1,0-0.2,0-0.3-0.1c-0.2-0.2-0.2-0.5-0.1-0.7c1.9-2.2,4.5-3.8,7.3-4.5c0.3-0.1,0.5,0.1,0.6,0.4
		c0.1,0.3-0.1,0.5-0.4,0.6c-2.7,0.7-5,2.1-6.8,4.2C83.9,149,83.8,149,83.7,149"/>
	<path class="st1" d="M88.2,150.5c0,0-0.1,0-0.1,0c-0.3-0.1-0.4-0.3-0.3-0.6c0.6-2.1,1.5-4.1,2.6-6c0.1-0.2,0.4-0.3,0.7-0.2
		c0.2,0.1,0.3,0.4,0.2,0.7c-1,1.8-1.9,3.7-2.5,5.7C88.6,150.3,88.4,150.5,88.2,150.5"/>
	<path class="st1" d="M90.7,144.6c-0.2,0-0.4-0.1-0.5-0.4c-0.1-0.3,0.1-0.5,0.4-0.6c2.3-0.6,4.8-0.6,7.1,0c0.3,0.1,0.4,0.3,0.4,0.6
		c-0.1,0.3-0.3,0.4-0.6,0.4c-2.2-0.5-4.5-0.5-6.6,0C90.8,144.6,90.8,144.6,90.7,144.6"/>
	<path class="st1" d="M94.2,151.2c-0.3,0-0.5-0.2-0.5-0.5v-6.5c0-0.3,0.2-0.5,0.5-0.5c0.3,0,0.5,0.2,0.5,0.5v6.5
		C94.7,151,94.5,151.2,94.2,151.2"/>
	<path class="st1" d="M97.6,171.4c-0.2,0-0.4-0.1-0.5-0.4c-0.1-0.3,0.1-0.5,0.4-0.6c2.7-0.7,5-2.1,6.8-4.2c0.2-0.2,0.5-0.2,0.7-0.1
		c0.2,0.2,0.2,0.5,0.1,0.7c-1.9,2.2-4.5,3.8-7.3,4.5C97.7,171.4,97.6,171.4,97.6,171.4"/>
	<path class="st1" d="M97.6,171.4c-0.1,0-0.2,0-0.2-0.1c-0.2-0.1-0.3-0.4-0.2-0.7c1-1.8,1.9-3.7,2.5-5.7c0.1-0.2,0.3-0.4,0.6-0.3
		c1.6,0.4,3.2,0.9,4.6,1.5c0.2,0.1,0.4,0.4,0.3,0.6c-0.1,0.2-0.4,0.4-0.6,0.3c-1.3-0.6-2.6-1-4-1.3c-0.6,1.9-1.4,3.8-2.4,5.5
		C97.9,171.4,97.7,171.4,97.6,171.4"/>
	<path class="st1" d="M90.7,171.4c0,0-0.1,0-0.1,0c-2.8-0.7-5.4-2.3-7.3-4.5c-0.2-0.2-0.2-0.5,0.1-0.7c0.2-0.2,0.5-0.2,0.7,0.1
		c1.8,2.1,4.2,3.6,6.8,4.2c0.3,0.1,0.4,0.3,0.4,0.6C91.1,171.3,90.9,171.4,90.7,171.4"/>
	<path class="st1" d="M90.7,171.4c-0.2,0-0.3-0.1-0.4-0.2c-1-1.7-1.8-3.6-2.4-5.5c-1.4,0.3-2.7,0.8-4,1.3c-0.2,0.1-0.5,0-0.6-0.3
		c-0.1-0.2,0-0.5,0.2-0.6c1.5-0.6,3-1.1,4.6-1.5c0.3-0.1,0.5,0.1,0.6,0.3c0.6,2,1.4,3.9,2.5,5.7c0.1,0.2,0.1,0.5-0.2,0.7
		C90.9,171.4,90.8,171.4,90.7,171.4"/>
	<path class="st1" d="M94.1,171.9c-1.2,0-2.4-0.1-3.5-0.4c-0.3-0.1-0.4-0.3-0.4-0.6c0.1-0.3,0.3-0.4,0.6-0.4c2.2,0.5,4.5,0.5,6.6,0
		c0.3-0.1,0.5,0.1,0.6,0.4c0.1,0.3-0.1,0.5-0.4,0.6C96.5,171.7,95.3,171.9,94.1,171.9"/>
	<path class="st1" d="M94.2,171.3c-0.3,0-0.5-0.2-0.5-0.5v-6.4c0-0.1,0.1-0.3,0.1-0.3c0.1-0.1,0.2-0.1,0.3-0.1c2.2,0,4.2,0.2,6,0.6
		c0.3,0.1,0.4,0.3,0.4,0.6c-0.1,0.3-0.3,0.4-0.6,0.4c-1.6-0.3-3.3-0.5-5.3-0.6v5.9C94.7,171.1,94.5,171.3,94.2,171.3"/>
</g>
</svg>
