<svg version="1.1" id="Layer_1" xmlns="http://www.w3.org/2000/svg" xmlns:xlink="http://www.w3.org/1999/xlink" x="0" y="0" viewBox="0 0 125 622" xml:space="preserve"><style type="text/css">.st0{clip-path:url(#SVGID_2_);fill:#FFFFFF;} .st1{clip-path:url(#SVGID_2_);fill:#010000;}</style><defs><path id="SVGID_1_" d="M14.5 21.9h97.7V600H14.5z"/></defs><clipPath id="SVGID_2_"><use xlink:href="#SVGID_1_" overflow="visible"/></clipPath><path class="st0" d="M38 292c-1.6 0-3.1-.7-4.2-1.4-2.5-1.5-5.5-5.8-4.4-10.2.1-.3.3-.4.6-.4.3.1.4.3.4.6-1 4.2 2.1 8 4 9.1 1.1.6 2.4 1.3 3.9 1.2 1.7-.1 3-1.1 4.2-3.1 2.4-4.1 1.8-12.5 1.6-14.9-1.4.6-4.8 2.3-7.8 4.5-.2.2-.5.1-.7-.1-.2-.2-.1-.5.1-.7 3.9-2.8 8.6-4.9 8.6-4.9.1-.1.3-.1.4 0 .1.1.2.2.2.4.1.5 1.2 11.1-1.7 16.2-1.3 2.3-3 3.6-5 3.6-.1.1-.1.1-.2.1"/><path class="st0" d="M22.6 269.3c-.2 2.7-1 13.2 1.9 18.2 1.5 2.6 3.3 3.8 5.4 3.8 1.7 0 3.3-.8 4.5-1.5 3-1.7 6-4.4 2.9-9.8-2.8-5-12.2-9.6-14.7-10.7m7.4 23c-2.5 0-4.6-1.5-6.2-4.3-3.5-6.1-2.1-18.9-2-19.5 0-.2.1-.3.2-.4.1-.1.3-.1.4 0 .5.2 12.4 5.4 15.9 11.5 4 6.9-1.5 10.1-3.3 11.1-1.3.7-3.1 1.6-5 1.6"/><path class="st1" d="M100 292c-1.6 0-3.1-.7-4.2-1.4-2.5-1.5-5.5-5.8-4.4-10.2.1-.3.3-.4.6-.4.3.1.4.3.4.6-1 4.2 2.1 8 4 9.1 1.1.6 2.4 1.3 3.9 1.2 1.7-.1 3-1.1 4.2-3.1 2.4-4.1 1.8-12.5 1.6-14.9-1.4.6-4.8 2.3-7.8 4.5-.2.2-.5.1-.7-.1-.2-.2-.1-.5.1-.7 3.9-2.8 8.6-4.9 8.6-4.9.1-.1.3-.1.4 0 .1.1.2.2.2.4.1.5 1.2 11.1-1.7 16.2-1.3 2.3-3 3.6-5 3.6-.1.1-.1.1-.2.1"/><path class="st1" d="M84.6 269.3c-.2 2.7-1 13.2 1.9 18.2 1.5 2.6 3.3 3.8 5.4 3.8 1.7 0 3.3-.8 4.5-1.5 3-1.7 6-4.4 2.9-9.8-2.8-5-12.2-9.6-14.7-10.7m7.4 23c-2.5 0-4.6-1.5-6.2-4.3-3.5-6.1-2.1-18.9-2-19.5 0-.2.1-.3.2-.4.1-.1.3-.1.4 0 .5.2 12.4 5.4 15.9 11.5 4 6.9-1.5 10.1-3.3 11.1-1.3.7-3.1 1.6-5 1.6"/><path class="st0" d="M38 599.7c-1.6 0-3.1-.7-4.2-1.4-2.5-1.5-5.5-5.8-4.4-10.2.1-.3.3-.4.6-.4.3.1.4.3.4.6-1 4.2 2.1 8 4 9.1 1.1.6 2.4 1.3 3.9 1.2 1.7-.1 3-1.1 4.2-3.1 2.4-4.1 1.8-12.5 1.6-14.9-1.4.6-4.8 2.3-7.8 4.5-.2.2-.5.1-.7-.1-.2-.2-.1-.5.1-.7 3.9-2.8 8.6-4.9 8.6-4.9.1-.1.3-.1.4 0 .1.1.2.2.2.4.1.5 1.2 11.1-1.7 16.2-1.3 2.3-3 3.6-5 3.6-.1.1-.1.1-.2.1"/><path class="st0" d="M22.6 577c-.2 2.7-1 13.2 1.9 18.2 1.5 2.6 3.3 3.8 5.4 3.8 1.7 0 3.3-.8 4.5-1.5 3-1.7 6-4.4 2.9-9.8-2.8-5-12.2-9.6-14.7-10.7m7.4 23c-2.5 0-4.6-1.5-6.2-4.3-3.5-6.1-2.1-18.9-2-19.5 0-.2.1-.3.2-.4.1-.1.3-.1.4 0 .5.2 12.4 5.4 15.9 11.5 4 6.9-1.5 10.1-3.3 11.1-1.3.7-3.1 1.6-5 1.6"/><path class="st1" d="M100 599.7c-1.6 0-3.1-.7-4.2-1.4-2.5-1.5-5.5-5.8-4.4-10.2.1-.3.3-.4.6-.4.3.1.4.3.4.6-1 4.2 2.1 8 4 9.1 1.1.6 2.4 1.3 3.9 1.2 1.7-.1 3-1.1 4.2-3.1 2.4-4.1 1.8-12.5 1.6-14.9-1.4.6-4.8 2.3-7.8 4.5-.2.2-.5.1-.7-.1-.2-.2-.1-.5.1-.7 3.9-2.8 8.6-4.9 8.6-4.9.1-.1.3-.1.4 0 .1.1.2.2.2.4.1.5 1.2 11.1-1.7 16.2-1.3 2.3-3 3.6-5 3.6-.1.1-.1.1-.2.1"/><path class="st1" d="M84.6 577c-.2 2.7-1 13.2 1.9 18.2 1.5 2.6 3.3 3.8 5.4 3.8 1.7 0 3.3-.8 4.5-1.5 3-1.7 6-4.4 2.9-9.8-2.8-5-12.2-9.6-14.7-10.7m7.4 23c-2.5 0-4.6-1.5-6.2-4.3-3.5-6.1-2.1-18.9-2-19.5 0-.2.1-.3.2-.4.1-.1.3-.1.4 0 .5.2 12.4 5.4 15.9 11.5 4 6.9-1.5 10.1-3.3 11.1-1.3.7-3.1 1.6-5 1.6"/><path class="st0" d="M33 517.1c-.9 3-2.3 5.2-3.5 7.1-1.6 2.4-2.9 4.5-2.9 7.7 0 3.4 2.7 7.1 6.5 7.1 3.7 0 6.5-3.7 6.5-7.1 0-3.2-1.4-5.3-2.9-7.7-1.4-1.9-2.8-4.1-3.7-7.1m0 22.9c-4 0-7.5-3.8-7.5-8.1 0-3.5 1.5-5.8 3.1-8.3 1.5-2.2 3.1-4.7 3.9-8.7 0-.2.2-.3.5-.3.2 0 .4.1.5.3.7 4 2.3 6.4 3.9 8.7 1.6 2.4 3.1 4.7 3.1 8.2 0 4-3.2 8.2-7.5 8.2"/><path class="st0" d="M33.6 536.4c-.2 0-.4-.2-.5-.4 0-.3.1-.5.4-.6 1.8-.3 2.6-2.1 2.6-3.7 0-.3.2-.5.5-.5s.5.2.5.5c0 2.1-1.1 4.3-3.5 4.7.1 0 .1 0 0 0"/><path class="st1" d="M95 517.1c-.9 3-2.3 5.2-3.5 7.1-1.6 2.4-2.9 4.5-2.9 7.7 0 3.4 2.7 7.1 6.5 7.1 3.7 0 6.5-3.7 6.5-7.1 0-3.2-1.4-5.3-2.9-7.7-1.4-1.9-2.8-4.1-3.7-7.1m0 22.9c-4 0-7.5-3.8-7.5-8.1 0-3.5 1.5-5.8 3.1-8.3 1.5-2.2 3.1-4.7 3.9-8.7 0-.2.2-.3.5-.3.2 0 .4.1.5.3.7 4 2.3 6.4 3.9 8.7 1.6 2.4 3.1 4.7 3.1 8.2 0 4-3.2 8.2-7.5 8.2"/><path class="st1" d="M95.6 536.4c-.2 0-.4-.2-.5-.4 0-.3.1-.5.4-.6 1.8-.3 2.6-2.1 2.6-3.7 0-.3.2-.5.5-.5s.5.2.5.5c0 2.1-1.1 4.3-3.5 4.7.1 0 .1 0 0 0"/><path class="st0" d="M38 292c-1.6 0-3.1-.7-4.2-1.4-2.5-1.5-5.5-5.8-4.4-10.2.1-.3.3-.4.6-.4.3.1.4.3.4.6-1 4.2 2.1 8 4 9.1 1.1.6 2.4 1.3 3.9 1.2 1.7-.1 3-1.1 4.2-3.1 2.4-4.1 1.8-12.5 1.6-14.9-1.4.6-4.8 2.3-7.8 4.5-.2.2-.5.1-.7-.1-.2-.2-.1-.5.1-.7 3.9-2.8 8.6-4.9 8.6-4.9.1-.1.3-.1.4 0 .1.1.2.2.2.4.1.5 1.2 11.1-1.7 16.2-1.3 2.3-3 3.6-5 3.6-.1.1-.1.1-.2.1"/><path class="st0" d="M22.6 269.3c-.2 2.7-1 13.2 1.9 18.2 1.5 2.6 3.3 3.8 5.4 3.8 1.7 0 3.3-.8 4.5-1.5 3-1.7 6-4.4 2.9-9.8-2.8-5-12.2-9.6-14.7-10.7m7.4 23c-2.5 0-4.6-1.5-6.2-4.3-3.5-6.1-2.1-18.9-2-19.5 0-.2.1-.3.2-.4.1-.1.3-.1.4 0 .5.2 12.4 5.4 15.9 11.5 4 6.9-1.5 10.1-3.3 11.1-1.3.7-3.1 1.6-5 1.6"/><path class="st1" d="M100 292c-1.6 0-3.1-.7-4.2-1.4-2.5-1.5-5.5-5.8-4.4-10.2.1-.3.3-.4.6-.4.3.1.4.3.4.6-1 4.2 2.1 8 4 9.1 1.1.6 2.4 1.3 3.9 1.2 1.7-.1 3-1.1 4.2-3.1 2.4-4.1 1.8-12.5 1.6-14.9-1.4.6-4.8 2.3-7.8 4.5-.2.2-.5.1-.7-.1-.2-.2-.1-.5.1-.7 3.9-2.8 8.6-4.9 8.6-4.9.1-.1.3-.1.4 0 .1.1.2.2.2.4.1.5 1.2 11.1-1.7 16.2-1.3 2.3-3 3.6-5 3.6-.1.1-.1.1-.2.1"/><path class="st1" d="M84.6 269.3c-.2 2.7-1 13.2 1.9 18.2 1.5 2.6 3.3 3.8 5.4 3.8 1.7 0 3.3-.8 4.5-1.5 3-1.7 6-4.4 2.9-9.8-2.8-5-12.2-9.6-14.7-10.7m7.4 23c-2.5 0-4.6-1.5-6.2-4.3-3.5-6.1-2.1-18.9-2-19.5 0-.2.1-.3.2-.4.1-.1.3-.1.4 0 .5.2 12.4 5.4 15.9 11.5 4 6.9-1.5 10.1-3.3 11.1-1.3.7-3.1 1.6-5 1.6"/><path class="st0" d="M33.5 463.1c-1.7 0-3.1 1.4-3.1 3.1 0 1.7 1.4 3.1 3.1 3.1 1.7 0 3.1-1.4 3.1-3.1 0-1.8-1.3-3.1-3.1-3.1m0 7c-2.2 0-4-1.8-4-4s1.8-4 4-4 4 1.8 4 4-1.8 4-4 4"/><path class="st1" d="M95.5 463.1c-1.7 0-3.1 1.4-3.1 3.1 0 1.7 1.4 3.1 3.1 3.1 1.7 0 3.1-1.4 3.1-3.1 0-1.8-1.3-3.1-3.1-3.1m0 7c-2.2 0-4-1.8-4-4s1.8-4 4-4 4 1.8 4 4-1.8 4-4 4"/><path class="st0" d="M26.9 476.6c.9.6 1.9 1 2.9 1.4l3.4-4.1c.2-.2.5-.2.7 0l3.4 4.1c1-.3 2-.8 2.9-1.4l-1.1-5.3c0-.1 0-.3.1-.4.1-.1.2-.2.3-.2l5.5-.1c.4-1 .6-2 .8-3l-5-2.5c-.1-.1-.2-.2-.2-.3 0-.1 0-.3.1-.4l3.5-4.6c-.5-.9-1.1-1.7-1.8-2.4l-5.3 2.4c-.1.1-.3.1-.4 0-.1-.1-.2-.2-.2-.3l-1.4-5.7c-1-.1-2-.1-3 0l-1.4 5.7c0 .1-.1.2-.2.3-.1.1-.3.1-.4 0l-5.3-2.4c-.7.7-1.3 1.5-1.8 2.4l3.5 4.6c.1.1.1.2.1.4 0 .1-.1.2-.2.3l-5 2.5c.1 1 .4 2.1.8 3l5.5.1c.1 0 .3.1.3.2.1.1.1.2.1.4l-1.2 5.3zm10.3 2.3c-.1 0-.3-.1-.3-.2l-3.3-3.9-3.3 3.9c-.1.1-.3.2-.5.1-1.3-.4-2.6-1-3.7-1.7-.1-.1-.2-.3-.2-.5l1-5-5.3-.1c-.2 0-.3-.1-.4-.3-.5-1.2-.8-2.5-1-3.9 0-.2.1-.4.2-.4l4.8-2.4-3.3-4.4c-.1-.1-.1-.3 0-.5.6-1.1 1.4-2.2 2.4-3.1.1-.1.3-.2.5-.1l5.1 2.3 1.4-5.5c0-.2.2-.3.4-.3 1.3-.2 2.5-.2 3.8 0 .2 0 .3.2.4.3l1.4 5.5 5.1-2.3c.2-.1.4 0 .5.1.9.9 1.7 1.9 2.4 3.1.1.2.1.3 0 .5l-3.3 4.4 4.8 2.4c.2.1.3.3.2.4-.1 1.3-.4 2.6-1 3.9-.1.2-.2.3-.4.3l-5.3.1 1 5c0 .2 0 .4-.2.5-1.1.8-2.4 1.3-3.7 1.7-.1.1-.2.1-.2.1"/><path class="st1" d="M88.9 476.6c.9.6 1.9 1 2.9 1.4l3.4-4.1c.2-.2.5-.2.7 0l3.4 4.1c1-.3 2-.8 2.9-1.4l-1.1-5.3c0-.1 0-.3.1-.4.1-.1.2-.2.3-.2l5.5-.1c.4-1 .6-2 .8-3l-5-2.5c-.1-.1-.2-.2-.2-.3 0-.1 0-.3.1-.4l3.5-4.6c-.5-.9-1.1-1.7-1.8-2.4l-5.3 2.4c-.1.1-.3.1-.4 0-.1-.1-.2-.2-.2-.3l-1.4-5.7c-1-.1-2-.1-3 0l-1.4 5.7c0 .1-.1.2-.2.3-.1.1-.3.1-.4 0l-5.3-2.4c-.7.7-1.3 1.5-1.8 2.4l3.5 4.6c.1.1.1.2.1.4 0 .1-.1.2-.2.3l-5 2.5c.1 1 .4 2.1.8 3l5.5.1c.1 0 .3.1.3.2.1.1.1.2.1.4l-1.2 5.3zm10.3 2.3c-.1 0-.3-.1-.3-.2l-3.3-3.9-3.3 3.9c-.1.1-.3.2-.5.1-1.3-.4-2.6-1-3.7-1.7-.1-.1-.2-.3-.2-.5l1-5-5.3-.1c-.2 0-.3-.1-.4-.3-.5-1.2-.8-2.5-1-3.9 0-.2.1-.4.2-.4l4.8-2.4-3.3-4.4c-.1-.1-.1-.3 0-.5.6-1.1 1.4-2.2 2.4-3.1.1-.1.3-.2.5-.1l5.1 2.3 1.4-5.5c0-.2.2-.3.4-.3 1.3-.2 2.5-.2 3.8 0 .2 0 .3.2.4.3l1.4 5.5 5.1-2.3c.2-.1.4 0 .5.1.9.9 1.7 1.9 2.4 3.1.1.2.1.3 0 .5l-3.3 4.4 4.8 2.4c.2.1.3.3.2.4-.1 1.3-.4 2.6-1 3.9-.1.2-.2.3-.4.3l-5.3.1 1 5c0 .2 0 .4-.2.5-1.1.8-2.4 1.3-3.7 1.7-.1.1-.2.1-.2.1"/><path class="st0" d="M21.4 393.5c-.5 0-.9.4-.9.9v18.5c0 .5.4.9.9.9h23.1c.5 0 .9-.4.9-.9v-18.5c0-.5-.4-.9-.9-.9H21.4zM44.6 415H21.4c-1 0-1.9-.9-1.9-2.1v-18.5c0-1.1.9-2.1 1.9-2.1h23.1c1 0 1.9.9 1.9 2.1v18.5c.1 1.2-.8 2.1-1.8 2.1"/><path class="st1" d="M83.4 393.5c-.5 0-.9.4-.9.9v18.5c0 .5.4.9.9.9h23.1c.5 0 .9-.4.9-.9v-18.5c0-.5-.4-.9-.9-.9H83.4zm23.2 21.5H83.4c-1 0-1.9-.9-1.9-2.1v-18.5c0-1.1.9-2.1 1.9-2.1h23.1c1 0 1.9.9 1.9 2.1v18.5c.1 1.2-.8 2.1-1.8 2.1"/><path class="st0" d="M36.3 410.9c-.2 0-.4-.1-.5-.3l-2.4-5H31c-.2 0-.4-.1-.5-.3l-1.7-4.3-1.7 5.4c-.1.2-.2.3-.4.4-.2 0-.4 0-.5-.2l-1.7-2.1h-1.3c-.3 0-.5-.3-.5-.6s.2-.6.5-.6h1.6c.1 0 .3.1.4.2l1.2 1.5 1.8-5.9c.1-.2.3-.4.5-.4s.4.1.5.3l2.1 5.3h2.3c.2 0 .4.1.5.3l1.9 3.9 2-9.5c0-.2.2-.4.4-.4s.4.1.5.3l2.3 4.2h1.3c.3 0 .5.3.5.6s-.2.6-.5.6H41c-.2 0-.4-.1-.4-.3l-1.8-3.3-2 9.6c-.1.4-.2.5-.5.6"/><path class="st1" d="M98.3 410.9c-.2 0-.4-.1-.5-.3l-2.4-5H93c-.2 0-.4-.1-.5-.3l-1.7-4.3-1.7 5.4c-.1.2-.2.3-.4.4-.2 0-.4 0-.5-.2l-1.7-2.1h-1.3c-.3 0-.5-.3-.5-.6s.2-.6.5-.6h1.6c.1 0 .3.1.4.2l1.2 1.5 1.8-5.9c.1-.2.3-.4.5-.4s.4.1.5.3l2.1 5.3h2.3c.2 0 .4.1.5.3l1.9 3.9 2-9.5c0-.2.2-.4.4-.4s.4.1.5.3l2.3 4.2h1.3c.3 0 .5.3.5.6s-.2.6-.5.6H103c-.2 0-.4-.1-.4-.3l-1.8-3.3-2 9.6c-.1.4-.2.5-.5.6"/><path class="st0" d="M29.3 355.1c-.3 0-.8-.1-1.3-.6-1.1-1.1-.3-3.4.2-5.1.1-.3.2-.6.2-.8.5-1.8.6-3.6.3-5-.3-1.3-.8-2.3-1.5-3.1-.8-.7-2-1-2.8-1.1-.1 0-.4 0-.8-.1h-.4c-1.7-.1-1.7-.1-1.9-.4-.1-.2-.1-.4 0-.5.3-.5 1.4-1.3 3.8-2.7.4-.2.7-.4 1-.6.3-.2.5-.4.8-.6 1.2-.9 2.9-2.1 5.3-2.1 3.2-.1 4.7 1.3 5.9 3.5 1.2 2.2 5.5 8.4 8.7 9.1.3.1.5.4.4.7s-.4.5-.7.4c-3.9-.9-8.5-7.9-9.5-9.7-1.2-2.2-2.5-3-4.8-2.9-2 .1-3.5 1.1-4.7 1.9l-.9.6c-.3.2-.6.4-1 .6-.6.4-1.7 1-2.5 1.5h.5c.5 0 .7.1.8.1 1 .1 2.4.5 3.4 1.4.9 1 1.5 2.2 1.8 3.7.3 1.5.2 3.5-.3 5.5-.1.2-.2.5-.3.9-.4 1.1-1.1 3.3-.5 3.9.2.2.4.2.5.2.3 0 .6-.3.9-.7.3-.4.5-.8.6-1.2 0-.1.1-.3.1-.5s.1-.4.1-.6v-.2c0-.3.1-.5.3-.8.1-.2.3-.2.5-.2s.4.1.5.3c.1.2.1.3.2.5.1.4.3.7.5 1 .6.8 1.8 1 2.6.5 1.2-.7 1.6-3 1.1-4.4-.1-.3.1-.6.4-.7.3-.1.6.1.7.3.3.8 1.1 1.8 2.2 1.6.3 0 .5-.2.7-.5.3-.5.4-1.3.1-1.9-.1-.3 0-.6.3-.7.3-.1.6 0 .8.3.4.8.3 2-.2 2.8-.3.6-.9 1-1.5 1.1-.8.1-1.5-.1-2.2-.5-.1 1.4-.7 2.9-1.8 3.6-1.4.8-3.2.4-4.2-.8 0-.1-.1-.1-.1-.2 0 .1 0 .2-.1.3-.2.6-.6 1.2-.8 1.5-.3.4-.9 1.1-1.8 1.1.5.3.5.3.4.3"/><path class="st1" d="M91.3 355.1c-.3 0-.8-.1-1.3-.6-1.1-1.1-.3-3.4.2-5.1.1-.3.2-.6.2-.8.5-1.8.6-3.6.3-5-.3-1.3-.8-2.3-1.5-3.1-.8-.7-2-1-2.8-1.1-.1 0-.4 0-.8-.1h-.4c-1.7-.1-1.7-.1-1.9-.4-.1-.2-.1-.4 0-.5.3-.5 1.4-1.3 3.8-2.7.4-.2.7-.4 1-.6.3-.2.5-.4.8-.6 1.2-.9 2.9-2.1 5.3-2.1 3.2-.1 4.7 1.3 5.9 3.5 1.2 2.2 5.5 8.4 8.7 9.1.3.1.5.4.4.7-.1.3-.4.5-.7.4-3.9-.9-8.5-7.9-9.5-9.7-1.2-2.2-2.5-3-4.8-2.9-2 .1-3.5 1.1-4.7 1.9l-.9.6c-.3.2-.6.4-1 .6-.6.4-1.7 1-2.5 1.5h.5c.5 0 .7.1.8.1 1 .1 2.4.5 3.4 1.4.9 1 1.5 2.2 1.8 3.7.3 1.5.2 3.5-.3 5.5-.1.2-.2.5-.3.9-.4 1.1-1.1 3.3-.5 3.9.2.2.4.2.5.2.3 0 .6-.3.9-.7.3-.4.5-.8.6-1.2 0-.1.1-.3.1-.5s.1-.4.1-.6v-.2c0-.3.1-.5.3-.8.1-.2.3-.2.5-.2s.4.1.5.3c.1.2.1.3.2.5.1.4.3.7.5 1 .6.8 1.8 1 2.6.5 1.2-.7 1.6-3 1.1-4.4-.1-.3.1-.6.4-.7s.6.1.7.3c.3.8 1.1 1.8 2.2 1.6.3 0 .5-.2.7-.5.3-.5.4-1.3.1-1.9-.1-.3 0-.6.3-.7.3-.1.6 0 .8.3.4.8.3 2-.2 2.8-.3.6-.9 1-1.5 1.1-.8.1-1.5-.1-2.2-.5-.1 1.4-.7 2.9-1.8 3.6-1.4.8-3.2.4-4.2-.8 0-.1-.1-.1-.1-.2 0 .1 0 .2-.1.3-.2.6-.6 1.2-.8 1.5-.3.4-.9 1.1-1.8 1.1.5.3.5.3.4.3"/><path class="st0" d="M30.5 338.1c-.5.5-1.3.5-1.8 0s-.5-1.3 0-1.8 1.3-.5 1.8 0c.5.6.5 1.4 0 1.8"/><path class="st1" d="M92.5 338.1c-.5.5-1.3.5-1.8 0s-.5-1.3 0-1.8 1.3-.5 1.8 0c.5.6.5 1.4 0 1.8"/><path class="st0" d="M38 599.7c-1.6 0-3.1-.7-4.2-1.4-2.5-1.5-5.5-5.8-4.4-10.2.1-.3.3-.4.6-.4.3.1.4.3.4.6-1 4.2 2.1 8 4 9.1 1.1.6 2.4 1.3 3.9 1.2 1.7-.1 3-1.1 4.2-3.1 2.4-4.1 1.8-12.5 1.6-14.9-1.4.6-4.8 2.3-7.8 4.5-.2.2-.5.1-.7-.1-.2-.2-.1-.5.1-.7 3.9-2.8 8.6-4.9 8.6-4.9.1-.1.3-.1.4 0 .1.1.2.2.2.4.1.5 1.2 11.1-1.7 16.2-1.3 2.3-3 3.6-5 3.6-.1.1-.1.1-.2.1"/><path class="st0" d="M22.6 577c-.2 2.7-1 13.2 1.9 18.2 1.5 2.6 3.3 3.8 5.4 3.8 1.7 0 3.3-.8 4.5-1.5 3-1.7 6-4.4 2.9-9.8-2.8-5-12.2-9.6-14.7-10.7m7.4 23c-2.5 0-4.6-1.5-6.2-4.3-3.5-6.1-2.1-18.9-2-19.5 0-.2.1-.3.2-.4.1-.1.3-.1.4 0 .5.2 12.4 5.4 15.9 11.5 4 6.9-1.5 10.1-3.3 11.1-1.3.7-3.1 1.6-5 1.6"/><path class="st1" d="M100 599.7c-1.6 0-3.1-.7-4.2-1.4-2.5-1.5-5.5-5.8-4.4-10.2.1-.3.3-.4.6-.4.3.1.4.3.4.6-1 4.2 2.1 8 4 9.1 1.1.6 2.4 1.3 3.9 1.2 1.7-.1 3-1.1 4.2-3.1 2.4-4.1 1.8-12.5 1.6-14.9-1.4.6-4.8 2.3-7.8 4.5-.2.2-.5.1-.7-.1-.2-.2-.1-.5.1-.7 3.9-2.8 8.6-4.9 8.6-4.9.1-.1.3-.1.4 0 .1.1.2.2.2.4.1.5 1.2 11.1-1.7 16.2-1.3 2.3-3 3.6-5 3.6-.1.1-.1.1-.2.1"/><path class="st1" d="M84.6 577c-.2 2.7-1 13.2 1.9 18.2 1.5 2.6 3.3 3.8 5.4 3.8 1.7 0 3.3-.8 4.5-1.5 3-1.7 6-4.4 2.9-9.8-2.8-5-12.2-9.6-14.7-10.7m7.4 23c-2.5 0-4.6-1.5-6.2-4.3-3.5-6.1-2.1-18.9-2-19.5 0-.2.1-.3.2-.4.1-.1.3-.1.4 0 .5.2 12.4 5.4 15.9 11.5 4 6.9-1.5 10.1-3.3 11.1-1.3.7-3.1 1.6-5 1.6"/><path class="st0" d="M33 517.1c-.9 3-2.3 5.2-3.5 7.1-1.6 2.4-2.9 4.5-2.9 7.7 0 3.4 2.7 7.1 6.5 7.1 3.7 0 6.5-3.7 6.5-7.1 0-3.2-1.4-5.3-2.9-7.7-1.4-1.9-2.8-4.1-3.7-7.1m0 22.9c-4 0-7.5-3.8-7.5-8.1 0-3.5 1.5-5.8 3.1-8.3 1.5-2.2 3.1-4.7 3.9-8.7 0-.2.2-.3.5-.3.2 0 .4.1.5.3.7 4 2.3 6.4 3.9 8.7 1.6 2.4 3.1 4.7 3.1 8.2 0 4-3.2 8.2-7.5 8.2"/><path class="st0" d="M33.6 536.4c-.2 0-.4-.2-.5-.4 0-.3.1-.5.4-.6 1.8-.3 2.6-2.1 2.6-3.7 0-.3.2-.5.5-.5s.5.2.5.5c0 2.1-1.1 4.3-3.5 4.7.1 0 .1 0 0 0"/><path class="st1" d="M95 517.1c-.9 3-2.3 5.2-3.5 7.1-1.6 2.4-2.9 4.5-2.9 7.7 0 3.4 2.7 7.1 6.5 7.1 3.7 0 6.5-3.7 6.5-7.1 0-3.2-1.4-5.3-2.9-7.7-1.4-1.9-2.8-4.1-3.7-7.1m0 22.9c-4 0-7.5-3.8-7.5-8.1 0-3.5 1.5-5.8 3.1-8.3 1.5-2.2 3.1-4.7 3.9-8.7 0-.2.2-.3.5-.3.2 0 .4.1.5.3.7 4 2.3 6.4 3.9 8.7 1.6 2.4 3.1 4.7 3.1 8.2 0 4-3.2 8.2-7.5 8.2"/><path class="st1" d="M95.6 536.4c-.2 0-.4-.2-.5-.4 0-.3.1-.5.4-.6 1.8-.3 2.6-2.1 2.6-3.7 0-.3.2-.5.5-.5s.5.2.5.5c0 2.1-1.1 4.3-3.5 4.7.1 0 .1 0 0 0"/><path class="st0" d="M33.5 463.1c-1.7 0-3.1 1.4-3.1 3.1 0 1.7 1.4 3.1 3.1 3.1 1.7 0 3.1-1.4 3.1-3.1 0-1.8-1.3-3.1-3.1-3.1m0 7c-2.2 0-4-1.8-4-4s1.8-4 4-4 4 1.8 4 4-1.8 4-4 4"/><path class="st1" d="M95.5 463.1c-1.7 0-3.1 1.4-3.1 3.1 0 1.7 1.4 3.1 3.1 3.1 1.7 0 3.1-1.4 3.1-3.1 0-1.8-1.3-3.1-3.1-3.1m0 7c-2.2 0-4-1.8-4-4s1.8-4 4-4 4 1.8 4 4-1.8 4-4 4"/><path class="st0" d="M26.9 476.6c.9.6 1.9 1 2.9 1.4l3.4-4.1c.2-.2.5-.2.7 0l3.4 4.1c1-.3 2-.8 2.9-1.4l-1.1-5.3c0-.1 0-.3.1-.4.1-.1.2-.2.3-.2l5.5-.1c.4-1 .6-2 .8-3l-5-2.5c-.1-.1-.2-.2-.2-.3 0-.1 0-.3.1-.4l3.5-4.6c-.5-.9-1.1-1.7-1.8-2.4l-5.3 2.4c-.1.1-.3.1-.4 0-.1-.1-.2-.2-.2-.3l-1.4-5.7c-1-.1-2-.1-3 0l-1.4 5.7c0 .1-.1.2-.2.3-.1.1-.3.1-.4 0l-5.3-2.4c-.7.7-1.3 1.5-1.8 2.4l3.5 4.6c.1.1.1.2.1.4 0 .1-.1.2-.2.3l-5 2.5c.1 1 .4 2.1.8 3l5.5.1c.1 0 .3.1.3.2.1.1.1.2.1.4l-1.2 5.3zm10.3 2.3c-.1 0-.3-.1-.3-.2l-3.3-3.9-3.3 3.9c-.1.1-.3.2-.5.1-1.3-.4-2.6-1-3.7-1.7-.1-.1-.2-.3-.2-.5l1-5-5.3-.1c-.2 0-.3-.1-.4-.3-.5-1.2-.8-2.5-1-3.9 0-.2.1-.4.2-.4l4.8-2.4-3.3-4.4c-.1-.1-.1-.3 0-.5.6-1.1 1.4-2.2 2.4-3.1.1-.1.3-.2.5-.1l5.1 2.3 1.4-5.5c0-.2.2-.3.4-.3 1.3-.2 2.5-.2 3.8 0 .2 0 .3.2.4.3l1.4 5.5 5.1-2.3c.2-.1.4 0 .5.1.9.9 1.7 1.9 2.4 3.1.1.2.1.3 0 .5l-3.3 4.4 4.8 2.4c.2.1.3.3.2.4-.1 1.3-.4 2.6-1 3.9-.1.2-.2.3-.4.3l-5.3.1 1 5c0 .2 0 .4-.2.5-1.1.8-2.4 1.3-3.7 1.7-.1.1-.2.1-.2.1"/><path class="st1" d="M88.9 476.6c.9.6 1.9 1 2.9 1.4l3.4-4.1c.2-.2.5-.2.7 0l3.4 4.1c1-.3 2-.8 2.9-1.4l-1.1-5.3c0-.1 0-.3.1-.4.1-.1.2-.2.3-.2l5.5-.1c.4-1 .6-2 .8-3l-5-2.5c-.1-.1-.2-.2-.2-.3 0-.1 0-.3.1-.4l3.5-4.6c-.5-.9-1.1-1.7-1.8-2.4l-5.3 2.4c-.1.1-.3.1-.4 0-.1-.1-.2-.2-.2-.3l-1.4-5.7c-1-.1-2-.1-3 0l-1.4 5.7c0 .1-.1.2-.2.3-.1.1-.3.1-.4 0l-5.3-2.4c-.7.7-1.3 1.5-1.8 2.4l3.5 4.6c.1.1.1.2.1.4 0 .1-.1.2-.2.3l-5 2.5c.1 1 .4 2.1.8 3l5.5.1c.1 0 .3.1.3.2.1.1.1.2.1.4l-1.2 5.3zm10.3 2.3c-.1 0-.3-.1-.3-.2l-3.3-3.9-3.3 3.9c-.1.1-.3.2-.5.1-1.3-.4-2.6-1-3.7-1.7-.1-.1-.2-.3-.2-.5l1-5-5.3-.1c-.2 0-.3-.1-.4-.3-.5-1.2-.8-2.5-1-3.9 0-.2.1-.4.2-.4l4.8-2.4-3.3-4.4c-.1-.1-.1-.3 0-.5.6-1.1 1.4-2.2 2.4-3.1.1-.1.3-.2.5-.1l5.1 2.3 1.4-5.5c0-.2.2-.3.4-.3 1.3-.2 2.5-.2 3.8 0 .2 0 .3.2.4.3l1.4 5.5 5.1-2.3c.2-.1.4 0 .5.1.9.9 1.7 1.9 2.4 3.1.1.2.1.3 0 .5l-3.3 4.4 4.8 2.4c.2.1.3.3.2.4-.1 1.3-.4 2.6-1 3.9-.1.2-.2.3-.4.3l-5.3.1 1 5c0 .2 0 .4-.2.5-1.1.8-2.4 1.3-3.7 1.7-.1.1-.2.1-.2.1"/><path class="st0" d="M21.4 393.5c-.5 0-.9.4-.9.9v18.5c0 .5.4.9.9.9h23.1c.5 0 .9-.4.9-.9v-18.5c0-.5-.4-.9-.9-.9H21.4zM44.6 415H21.4c-1 0-1.9-.9-1.9-2.1v-18.5c0-1.1.9-2.1 1.9-2.1h23.1c1 0 1.9.9 1.9 2.1v18.5c.1 1.2-.8 2.1-1.8 2.1"/><path class="st1" d="M83.4 393.5c-.5 0-.9.4-.9.9v18.5c0 .5.4.9.9.9h23.1c.5 0 .9-.4.9-.9v-18.5c0-.5-.4-.9-.9-.9H83.4zm23.2 21.5H83.4c-1 0-1.9-.9-1.9-2.1v-18.5c0-1.1.9-2.1 1.9-2.1h23.1c1 0 1.9.9 1.9 2.1v18.5c.1 1.2-.8 2.1-1.8 2.1"/><path class="st0" d="M36.3 410.9c-.2 0-.4-.1-.5-.3l-2.4-5H31c-.2 0-.4-.1-.5-.3l-1.7-4.3-1.7 5.4c-.1.2-.2.3-.4.4-.2 0-.4 0-.5-.2l-1.7-2.1h-1.3c-.3 0-.5-.3-.5-.6s.2-.6.5-.6h1.6c.1 0 .3.1.4.2l1.2 1.5 1.8-5.9c.1-.2.3-.4.5-.4s.4.1.5.3l2.1 5.3h2.3c.2 0 .4.1.5.3l1.9 3.9 2-9.5c0-.2.2-.4.4-.4s.4.1.5.3l2.3 4.2h1.3c.3 0 .5.3.5.6s-.2.6-.5.6H41c-.2 0-.4-.1-.4-.3l-1.8-3.3-2 9.6c-.1.4-.2.5-.5.6"/><path class="st1" d="M98.3 410.9c-.2 0-.4-.1-.5-.3l-2.4-5H93c-.2 0-.4-.1-.5-.3l-1.7-4.3-1.7 5.4c-.1.2-.2.3-.4.4-.2 0-.4 0-.5-.2l-1.7-2.1h-1.3c-.3 0-.5-.3-.5-.6s.2-.6.5-.6h1.6c.1 0 .3.1.4.2l1.2 1.5 1.8-5.9c.1-.2.3-.4.5-.4s.4.1.5.3l2.1 5.3h2.3c.2 0 .4.1.5.3l1.9 3.9 2-9.5c0-.2.2-.4.4-.4s.4.1.5.3l2.3 4.2h1.3c.3 0 .5.3.5.6s-.2.6-.5.6H103c-.2 0-.4-.1-.4-.3l-1.8-3.3-2 9.6c-.1.4-.2.5-.5.6"/><path class="st0" d="M29.3 355.1c-.3 0-.8-.1-1.3-.6-1.1-1.1-.3-3.4.2-5.1.1-.3.2-.6.2-.8.5-1.8.6-3.6.3-5-.3-1.3-.8-2.3-1.5-3.1-.8-.7-2-1-2.8-1.1-.1 0-.4 0-.8-.1h-.4c-1.7-.1-1.7-.1-1.9-.4-.1-.2-.1-.4 0-.5.3-.5 1.4-1.3 3.8-2.7.4-.2.7-.4 1-.6.3-.2.5-.4.8-.6 1.2-.9 2.9-2.1 5.3-2.1 3.2-.1 4.7 1.3 5.9 3.5 1.2 2.2 5.5 8.4 8.7 9.1.3.1.5.4.4.7s-.4.5-.7.4c-3.9-.9-8.5-7.9-9.5-9.7-1.2-2.2-2.5-3-4.8-2.9-2 .1-3.5 1.1-4.7 1.9l-.9.6c-.3.2-.6.4-1 .6-.6.4-1.7 1-2.5 1.5h.5c.5 0 .7.1.8.1 1 .1 2.4.5 3.4 1.4.9 1 1.5 2.2 1.8 3.7.3 1.5.2 3.5-.3 5.5-.1.2-.2.5-.3.9-.4 1.1-1.1 3.3-.5 3.9.2.2.4.2.5.2.3 0 .6-.3.9-.7.3-.4.5-.8.6-1.2 0-.1.1-.3.1-.5s.1-.4.1-.6v-.2c0-.3.1-.5.3-.8.1-.2.3-.2.5-.2s.4.1.5.3c.1.2.1.3.2.5.1.4.3.7.5 1 .6.8 1.8 1 2.6.5 1.2-.7 1.6-3 1.1-4.4-.1-.3.1-.6.4-.7.3-.1.6.1.7.3.3.8 1.1 1.8 2.2 1.6.3 0 .5-.2.7-.5.3-.5.4-1.3.1-1.9-.1-.3 0-.6.3-.7.3-.1.6 0 .8.3.4.8.3 2-.2 2.8-.3.6-.9 1-1.5 1.1-.8.1-1.5-.1-2.2-.5-.1 1.4-.7 2.9-1.8 3.6-1.4.8-3.2.4-4.2-.8 0-.1-.1-.1-.1-.2 0 .1 0 .2-.1.3-.2.6-.6 1.2-.8 1.5-.3.4-.9 1.1-1.8 1.1.5.3.5.3.4.3"/><path class="st1" d="M91.3 355.1c-.3 0-.8-.1-1.3-.6-1.1-1.1-.3-3.4.2-5.1.1-.3.2-.6.2-.8.5-1.8.6-3.6.3-5-.3-1.3-.8-2.3-1.5-3.1-.8-.7-2-1-2.8-1.1-.1 0-.4 0-.8-.1h-.4c-1.7-.1-1.7-.1-1.9-.4-.1-.2-.1-.4 0-.5.3-.5 1.4-1.3 3.8-2.7.4-.2.7-.4 1-.6.3-.2.5-.4.8-.6 1.2-.9 2.9-2.1 5.3-2.1 3.2-.1 4.7 1.3 5.9 3.5 1.2 2.2 5.5 8.4 8.7 9.1.3.1.5.4.4.7-.1.3-.4.5-.7.4-3.9-.9-8.5-7.9-9.5-9.7-1.2-2.2-2.5-3-4.8-2.9-2 .1-3.5 1.1-4.7 1.9l-.9.6c-.3.2-.6.4-1 .6-.6.4-1.7 1-2.5 1.5h.5c.5 0 .7.1.8.1 1 .1 2.4.5 3.4 1.4.9 1 1.5 2.2 1.8 3.7.3 1.5.2 3.5-.3 5.5-.1.2-.2.5-.3.9-.4 1.1-1.1 3.3-.5 3.9.2.2.4.2.5.2.3 0 .6-.3.9-.7.3-.4.5-.8.6-1.2 0-.1.1-.3.1-.5s.1-.4.1-.6v-.2c0-.3.1-.5.3-.8.1-.2.3-.2.5-.2s.4.1.5.3c.1.2.1.3.2.5.1.4.3.7.5 1 .6.8 1.8 1 2.6.5 1.2-.7 1.6-3 1.1-4.4-.1-.3.1-.6.4-.7s.6.1.7.3c.3.8 1.1 1.8 2.2 1.6.3 0 .5-.2.7-.5.3-.5.4-1.3.1-1.9-.1-.3 0-.6.3-.7.3-.1.6 0 .8.3.4.8.3 2-.2 2.8-.3.6-.9 1-1.5 1.1-.8.1-1.5-.1-2.2-.5-.1 1.4-.7 2.9-1.8 3.6-1.4.8-3.2.4-4.2-.8 0-.1-.1-.1-.1-.2 0 .1 0 .2-.1.3-.2.6-.6 1.2-.8 1.5-.3.4-.9 1.1-1.8 1.1.5.3.5.3.4.3"/><path class="st0" d="M30.5 338.1c-.5.5-1.3.5-1.8 0s-.5-1.3 0-1.8 1.3-.5 1.8 0c.5.6.5 1.4 0 1.8"/><path class="st1" d="M92.5 338.1c-.5.5-1.3.5-1.8 0s-.5-1.3 0-1.8 1.3-.5 1.8 0c.5.6.5 1.4 0 1.8"/><path class="st0" d="M42.5 45.8H23.4c-.3 0-.5-.2-.5-.5V34.7c0-.3.2-.5.5-.5s.5.2.5.5v10H42v-10c0-.3.2-.5.5-.5s.5.2.5.5v10.5c0 .3-.2.6-.5.6M21.1 33.8c-.1 0-.3-.1-.4-.2-.2-.2-.2-.5 0-.7L32.5 22c.2-.2.5-.2.7 0 .2.2.2.5 0 .7L21.4 33.6c-.1.1-.2.2-.3.2"/><path class="st0" d="M44.9 33.8c-.1 0-.2 0-.3-.1L32.8 22.8c-.2-.2-.2-.5 0-.7.2-.2.5-.2.7 0L45.3 33c.2.2.2.5 0 .7-.1 0-.2.1-.4.1"/><path class="st1" d="M104.5 45.8H85.4c-.3 0-.5-.2-.5-.5V34.7c0-.3.2-.5.5-.5s.5.2.5.5v10H104v-10c0-.3.2-.5.5-.5s.5.2.5.5v10.5c0 .3-.2.6-.5.6M83.1 33.8c-.1 0-.3-.1-.4-.2-.2-.2-.2-.5 0-.7L94.5 22c.2-.2.5-.2.7 0 .2.2.2.5 0 .7L83.4 33.6c-.1.1-.2.2-.3.2"/><path class="st1" d="M106.9 33.8c-.1 0-.2 0-.3-.1L94.8 22.8c-.2-.2-.2-.5 0-.7.2-.2.5-.2.7 0L107.3 33c.2.2.2.5 0 .7-.1 0-.2.1-.4.1"/><path class="st0" d="M46.8 92.4h-9.7c.1.3.2.6.2.9h9.1l2.6 2.6-2.4 2.6-3-2.3-3 2.3-3-2.3-3.2 2.3h-4.1l-.1.2c-.3.5-.6 1-1 1.4-2.3 2.3-6.1 2.3-8.4 0-2.3-2.3-2.3-6.1 0-8.4 2.3-2.3 6.1-2.3 8.4 0 .4.4.8.9 1 1.4l.1.2H35c-.1-.3-.1-.6-.2-.9-.5-1.4-1.3-2.8-2.4-3.9-4.1-4.1-10.7-4.1-14.7 0-4.1 4.1-4.1 10.7 0 14.7 4.1 4.1 10.7 4.1 14.7 0 .6-.6 1.2-1.4 1.6-2.1h-1c-.3.5-.7 1-1.2 1.5-3.7 3.7-9.8 3.7-13.5 0-3.7-3.7-3.7-9.8 0-13.5 3.7-3.7 9.8-3.7 13.5 0 1 1 1.7 2.1 2.1 3.3h-3.1c-.3-.5-.7-1-1.1-1.4-2.7-2.7-7-2.7-9.6 0-2.7 2.7-2.7 7 0 9.6 2.7 2.7 7 2.7 9.6 0 .4-.4.8-.9 1.1-1.4h4l2.8-2.1 3 2.3 3-2.3 3 2.3 3.6-3.6-3.4-3.4z"/><path class="st1" d="M108.8 92.4h-9.7c.1.3.2.6.2.9h9.1l2.6 2.6-2.4 2.6-3-2.3-3 2.3-3-2.3-3.2 2.3h-4.1l-.1.2c-.3.5-.6 1-1 1.4-2.3 2.3-6.1 2.3-8.4 0-2.3-2.3-2.3-6.1 0-8.4 2.3-2.3 6.1-2.3 8.4 0 .4.4.8.9 1 1.4l.1.2H97c-.1-.3-.1-.6-.2-.9-.5-1.4-1.3-2.8-2.4-3.9-4.1-4.1-10.7-4.1-14.7 0-4.1 4.1-4.1 10.7 0 14.7 4.1 4.1 10.7 4.1 14.7 0 .6-.6 1.2-1.4 1.6-2.1h-1c-.3.5-.7 1-1.2 1.5-3.7 3.7-9.8 3.7-13.5 0-3.7-3.7-3.7-9.8 0-13.5 3.7-3.7 9.8-3.7 13.5 0 1 1 1.7 2.1 2.1 3.3h-3.1c-.3-.5-.7-1-1.1-1.4-2.7-2.7-7-2.7-9.6 0-2.7 2.7-2.7 7 0 9.6 2.7 2.7 7 2.7 9.6 0 .4-.4.8-.9 1.1-1.4h4l2.8-2.1 3 2.3 3-2.3 3 2.3 3.6-3.6-3.4-3.4z"/><path class="st0" d="M22 95.1c-.4.4-.4 1 0 1.4s1 .4 1.4 0c.4-.4.4-1 0-1.4-.4-.3-1-.3-1.4 0"/><path class="st1" d="M84 95.1c-.4.4-.4 1 0 1.4.4.4 1 .4 1.4 0 .4-.4.4-1 0-1.4-.4-.3-1-.3-1.4 0"/><path class="st0" d="M33 209.4c-.9 3-2.3 5.2-3.5 7.1-1.6 2.4-2.9 4.5-2.9 7.7 0 3.4 2.7 7.1 6.5 7.1 3.7 0 6.5-3.7 6.5-7.1 0-3.2-1.4-5.3-2.9-7.7-1.4-1.9-2.8-4.1-3.7-7.1m0 22.9c-4 0-7.5-3.8-7.5-8.1 0-3.5 1.5-5.8 3.1-8.3 1.5-2.2 3.1-4.7 3.9-8.7 0-.2.2-.3.5-.3.2 0 .4.1.5.3.7 4 2.3 6.4 3.9 8.7 1.6 2.4 3.1 4.7 3.1 8.2 0 4-3.2 8.2-7.5 8.2"/><path class="st0" d="M33.6 228.7c-.2 0-.4-.2-.5-.4 0-.3.1-.5.4-.6 1.8-.3 2.6-2.1 2.6-3.7 0-.3.2-.5.5-.5s.5.2.5.5c0 2-1.1 4.3-3.5 4.7.1 0 .1 0 0 0"/><path class="st1" d="M95 209.4c-.9 3-2.3 5.2-3.5 7.1-1.6 2.4-2.9 4.5-2.9 7.7 0 3.4 2.7 7.1 6.5 7.1 3.7 0 6.5-3.7 6.5-7.1 0-3.2-1.4-5.3-2.9-7.7-1.4-1.9-2.8-4.1-3.7-7.1m0 22.9c-4 0-7.5-3.8-7.5-8.1 0-3.5 1.5-5.8 3.1-8.3 1.5-2.2 3.1-4.7 3.9-8.7 0-.2.2-.3.5-.3.2 0 .4.1.5.3.7 4 2.3 6.4 3.9 8.7 1.6 2.4 3.1 4.7 3.1 8.2 0 4-3.2 8.2-7.5 8.2"/><path class="st1" d="M95.6 228.7c-.2 0-.4-.2-.5-.4 0-.3.1-.5.4-.6 1.8-.3 2.6-2.1 2.6-3.7 0-.3.2-.5.5-.5s.5.2.5.5c0 2-1.1 4.3-3.5 4.7.1 0 .1 0 0 0"/><path class="st0" d="M33 209.4c-.9 3-2.3 5.2-3.5 7.1-1.6 2.4-2.9 4.5-2.9 7.7 0 3.4 2.7 7.1 6.5 7.1 3.7 0 6.5-3.7 6.5-7.1 0-3.2-1.4-5.3-2.9-7.7-1.4-1.9-2.8-4.1-3.7-7.1m0 22.9c-4 0-7.5-3.8-7.5-8.1 0-3.5 1.5-5.8 3.1-8.3 1.5-2.2 3.1-4.7 3.9-8.7 0-.2.2-.3.5-.3.2 0 .4.1.5.3.7 4 2.3 6.4 3.9 8.7 1.6 2.4 3.1 4.7 3.1 8.2 0 4-3.2 8.2-7.5 8.2"/><path class="st0" d="M33.6 228.7c-.2 0-.4-.2-.5-.4 0-.3.1-.5.4-.6 1.8-.3 2.6-2.1 2.6-3.7 0-.3.2-.5.5-.5s.5.2.5.5c0 2-1.1 4.3-3.5 4.7.1 0 .1 0 0 0"/><path class="st1" d="M95 209.4c-.9 3-2.3 5.2-3.5 7.1-1.6 2.4-2.9 4.5-2.9 7.7 0 3.4 2.7 7.1 6.5 7.1 3.7 0 6.5-3.7 6.5-7.1 0-3.2-1.4-5.3-2.9-7.7-1.4-1.9-2.8-4.1-3.7-7.1m0 22.9c-4 0-7.5-3.8-7.5-8.1 0-3.5 1.5-5.8 3.1-8.3 1.5-2.2 3.1-4.7 3.9-8.7 0-.2.2-.3.5-.3.2 0 .4.1.5.3.7 4 2.3 6.4 3.9 8.7 1.6 2.4 3.1 4.7 3.1 8.2 0 4-3.2 8.2-7.5 8.2"/><path class="st1" d="M95.6 228.7c-.2 0-.4-.2-.5-.4 0-.3.1-.5.4-.6 1.8-.3 2.6-2.1 2.6-3.7 0-.3.2-.5.5-.5s.5.2.5.5c0 2-1.1 4.3-3.5 4.7.1 0 .1 0 0 0"/><path class="st0" d="M42.6 167.1c-.1 0-.2 0-.3-.1-.2-.2-.2-.5-.1-.7 1.9-2.3 3.1-5.1 3.2-8.1h-5.8c-.1 2.4-.4 4.8-1.1 7-.1.3-.3.4-.6.3-.3-.1-.4-.3-.3-.6.7-2.4 1-4.8 1.1-7.3 0-.3.2-.5.5-.5H46c.1 0 .3.1.3.1.1.1.1.2.1.3 0 3.4-1.3 6.6-3.5 9.2 0 .3-.1.4-.3.4"/><path class="st0" d="M46 158c-.3 0-.5-.2-.5-.5 0-3.1-1.1-6.1-3-8.4-1.2.5-2.5.9-3.8 1.2.6 2.3 1 4.8 1 7.2 0 .3-.2.5-.5.5s-.5-.2-.5-.5c0-2.5-.4-5-1.1-7.4v-.4c.1-.1.2-.2.3-.2 1.6-.3 3.1-.8 4.5-1.4.2-.1.4 0 .6.1 2.2 2.6 3.5 5.9 3.5 9.3 0 .3-.3.5-.5.5M21.7 167.1c-.1 0-.3-.1-.4-.2-2.2-2.6-3.5-5.9-3.5-9.3 0-3.4 1.2-6.7 3.5-9.3.2-.2.5-.2.7-.1.2.2.2.5.1.7-2.1 2.4-3.2 5.5-3.2 8.7 0 3.2 1.1 6.3 3.2 8.7.2.2.2.5-.1.7-.1 0-.2.1-.3.1"/><path class="st0" d="M26.2 150.5h-.1c-1.6-.4-3.2-.9-4.6-1.5-.2-.1-.4-.4-.3-.6.1-.2.4-.4.6-.3 1.4.6 2.9 1.1 4.5 1.4.3.1.4.3.4.6-.1.2-.3.4-.5.4M24.9 158.2h-6.5c-.3 0-.5-.2-.5-.5s.2-.5.5-.5h6.5c.3 0 .5.2.5.5s-.2.5-.5.5"/><path class="st0" d="M32.4 158.2h-7.3c-.3 0-.5-.2-.5-.5v-.2c0-2.6.4-5.2 1.1-7.7.1-.2.3-.4.6-.3 1.9.4 3.8.6 5.8.6.3 0 .5.2.5.5s-.2.5-.5.5c-1.9 0-3.8-.2-5.6-.6-.6 2.2-.9 4.4-.9 6.7h6.8c.3 0 .5.2.5.5s-.3.5-.5.5"/><path class="st0" d="M26.2 165.6c-.2 0-.4-.1-.5-.3-.7-2.4-1.1-5-1.1-7.5 0-.3.2-.5.5-.5s.5.3.5.5c0 2.3.3 4.6.9 6.8 1.7-.4 3.5-.5 5.2-.5V158c0-.3.2-.5.5-.5s.5.2.5.5v6.6c0 .2-.2.4-.4.5h-.2c-1.9 0-3.9.2-5.8.6 0-.1-.1-.1-.1-.1"/><path class="st0" d="M39.2 158.2h-7c-.3 0-.5-.2-.5-.5v-7.1c0-.3.2-.5.5-.5 2 0 3.9-.2 5.8-.6.3-.1.5.1.6.4s-.1.5-.4.6c-1.8.4-3.6.6-5.5.6v6.1h6.5c.3 0 .5.2.5.5s-.2.5-.5.5M42.6 149c-.1 0-.3-.1-.4-.2-1.8-2.1-4.2-3.6-6.8-4.2-.3-.1-.4-.3-.4-.6.1-.3.3-.4.6-.4 2.8.7 5.4 2.3 7.3 4.5.2.2.2.5-.1.7.1.2-.1.2-.2.2"/><path class="st0" d="M38.1 150.5c-.2 0-.4-.1-.5-.3-.6-2-1.4-3.9-2.5-5.7-.1-.2-.1-.5.2-.7.2-.1.5-.1.7.2 1.1 1.9 1.9 3.9 2.6 6 .1.3-.1.5-.3.6-.1-.1-.2-.1-.2-.1M21.7 149c-.1 0-.2 0-.3-.1-.2-.2-.2-.5-.1-.7 1.9-2.2 4.5-3.8 7.3-4.5.3-.1.5.1.6.4.1.3-.1.5-.4.6-2.7.7-5 2.1-6.8 4.2-.1.1-.2.1-.3.1"/><path class="st0" d="M26.2 150.5h-.1c-.3-.1-.4-.3-.3-.6.6-2.1 1.5-4.1 2.6-6 .1-.2.4-.3.7-.2.2.1.3.4.2.7-1 1.8-1.9 3.7-2.5 5.7-.2.2-.4.4-.6.4"/><path class="st0" d="M28.7 144.6c-.2 0-.4-.1-.5-.4-.1-.3.1-.5.4-.6 2.3-.6 4.8-.6 7.1 0 .3.1.4.3.4.6-.1.3-.3.4-.6.4-2.2-.5-4.5-.5-6.6 0h-.2"/><path class="st0" d="M32.2 151.2c-.3 0-.5-.2-.5-.5v-6.5c0-.3.2-.5.5-.5s.5.2.5.5v6.5c0 .3-.2.5-.5.5M35.6 171.4c-.2 0-.4-.1-.5-.4-.1-.3.1-.5.4-.6 2.7-.7 5-2.1 6.8-4.2.2-.2.5-.2.7-.1.2.2.2.5.1.7-1.9 2.2-4.5 3.8-7.3 4.5-.1.1-.2.1-.2.1"/><path class="st0" d="M35.6 171.4c-.1 0-.2 0-.2-.1-.2-.1-.3-.4-.2-.7 1-1.8 1.9-3.7 2.5-5.7.1-.2.3-.4.6-.3 1.6.4 3.2.9 4.6 1.5.2.1.4.4.3.6-.1.2-.4.4-.6.3-1.3-.6-2.6-1-4-1.3-.6 1.9-1.4 3.8-2.4 5.5-.3.2-.5.2-.6.2M28.7 171.4h-.1c-2.8-.7-5.4-2.3-7.3-4.5-.2-.2-.2-.5.1-.7.2-.2.5-.2.7.1 1.8 2.1 4.2 3.6 6.8 4.2.3.1.4.3.4.6-.2.2-.4.3-.6.3"/><path class="st0" d="M28.7 171.4c-.2 0-.3-.1-.4-.2-1-1.7-1.8-3.6-2.4-5.5-1.4.3-2.7.8-4 1.3-.2.1-.5 0-.6-.3-.1-.2 0-.5.2-.6 1.5-.6 3-1.1 4.6-1.5.3-.1.5.1.6.3.6 2 1.4 3.9 2.5 5.7.1.2.1.5-.2.7-.1.1-.2.1-.3.1"/><path class="st0" d="M32.1 171.9c-1.2 0-2.4-.1-3.5-.4-.3-.1-.4-.3-.4-.6.1-.3.3-.4.6-.4 2.2.5 4.5.5 6.6 0 .3-.1.5.1.6.4.1.3-.1.5-.4.6-1.1.2-2.3.4-3.5.4"/><path class="st0" d="M32.2 171.3c-.3 0-.5-.2-.5-.5v-6.4c0-.1.1-.3.1-.3.1-.1.2-.1.3-.1 2.2 0 4.2.2 6 .6.3.1.4.3.4.6-.1.3-.3.4-.6.4-1.6-.3-3.3-.5-5.3-.6v5.9c.1.2-.1.4-.4.4"/><path class="st1" d="M104.6 167.1c-.1 0-.2 0-.3-.1-.2-.2-.2-.5-.1-.7 1.9-2.3 3.1-5.1 3.2-8.1h-5.8c-.1 2.4-.4 4.8-1.1 7-.1.3-.3.4-.6.3-.3-.1-.4-.3-.3-.6.7-2.4 1-4.8 1.1-7.3 0-.3.2-.5.5-.5h6.8c.1 0 .3.1.3.1.1.1.1.2.1.3 0 3.4-1.3 6.6-3.5 9.2 0 .3-.1.4-.3.4"/><path class="st1" d="M108 158c-.3 0-.5-.2-.5-.5 0-3.1-1.1-6.1-3-8.4-1.2.5-2.5.9-3.8 1.2.6 2.3 1 4.8 1 7.2 0 .3-.2.5-.5.5s-.5-.2-.5-.5c0-2.5-.4-5-1.1-7.4v-.4c.1-.1.2-.2.3-.2 1.6-.3 3.1-.8 4.5-1.4.2-.1.4 0 .6.1 2.2 2.6 3.5 5.9 3.5 9.3 0 .3-.3.5-.5.5M83.7 167.1c-.1 0-.3-.1-.4-.2-2.2-2.6-3.5-5.9-3.5-9.3 0-3.4 1.2-6.7 3.5-9.3.2-.2.5-.2.7-.1.2.2.2.5.1.7-2.1 2.4-3.2 5.5-3.2 8.7 0 3.2 1.1 6.3 3.2 8.7.2.2.2.5-.1.7-.1 0-.2.1-.3.1"/><path class="st1" d="M88.2 150.5h-.1c-1.6-.4-3.2-.9-4.6-1.5-.2-.1-.4-.4-.3-.6.1-.2.4-.4.6-.3 1.4.6 2.9 1.1 4.5 1.4.3.1.4.3.4.6-.1.2-.3.4-.5.4M86.9 158.2h-6.5c-.3 0-.5-.2-.5-.5s.2-.5.5-.5h6.5c.3 0 .5.2.5.5s-.2.5-.5.5"/><path class="st1" d="M94.4 158.2h-7.3c-.3 0-.5-.2-.5-.5v-.2c0-2.6.4-5.2 1.1-7.7.1-.2.3-.4.6-.3 1.9.4 3.8.6 5.8.6.3 0 .5.2.5.5s-.2.5-.5.5c-1.9 0-3.8-.2-5.6-.6-.6 2.2-.9 4.4-.9 6.7h6.8c.3 0 .5.2.5.5s-.3.5-.5.5"/><path class="st1" d="M88.2 165.6c-.2 0-.4-.1-.5-.3-.7-2.4-1.1-5-1.1-7.5 0-.3.2-.5.5-.5s.5.3.5.5c0 2.3.3 4.6.9 6.8 1.7-.4 3.5-.5 5.2-.5V158c0-.3.2-.5.5-.5s.5.2.5.5v6.6c0 .2-.2.4-.4.5h-.2c-1.9 0-3.9.2-5.8.6 0-.1-.1-.1-.1-.1"/><path class="st1" d="M101.2 158.2h-7c-.3 0-.5-.2-.5-.5v-7.1c0-.3.2-.5.5-.5 2 0 3.9-.2 5.8-.6.3-.1.5.1.6.4s-.1.5-.4.6c-1.8.4-3.6.6-5.5.6v6.1h6.5c.3 0 .5.2.5.5s-.2.5-.5.5M104.6 149c-.1 0-.3-.1-.4-.2-1.8-2.1-4.2-3.6-6.8-4.2-.3-.1-.4-.3-.4-.6.1-.3.3-.4.6-.4 2.8.7 5.4 2.3 7.3 4.5.2.2.2.5-.1.7.1.2-.1.2-.2.2"/><path class="st1" d="M100.1 150.5c-.2 0-.4-.1-.5-.3-.6-2-1.4-3.9-2.5-5.7-.1-.2-.1-.5.2-.7.2-.1.5-.1.7.2 1.1 1.9 1.9 3.9 2.6 6 .1.3-.1.5-.3.6-.1-.1-.2-.1-.2-.1M83.7 149c-.1 0-.2 0-.3-.1-.2-.2-.2-.5-.1-.7 1.9-2.2 4.5-3.8 7.3-4.5.3-.1.5.1.6.4.1.3-.1.5-.4.6-2.7.7-5 2.1-6.8 4.2-.1.1-.2.1-.3.1"/><path class="st1" d="M88.2 150.5h-.1c-.3-.1-.4-.3-.3-.6.6-2.1 1.5-4.1 2.6-6 .1-.2.4-.3.7-.2.2.1.3.4.2.7-1 1.8-1.9 3.7-2.5 5.7-.2.2-.4.4-.6.4"/><path class="st1" d="M90.7 144.6c-.2 0-.4-.1-.5-.4-.1-.3.1-.5.4-.6 2.3-.6 4.8-.6 7.1 0 .3.1.4.3.4.6-.1.3-.3.4-.6.4-2.2-.5-4.5-.5-6.6 0h-.2"/><path class="st1" d="M94.2 151.2c-.3 0-.5-.2-.5-.5v-6.5c0-.3.2-.5.5-.5s.5.2.5.5v6.5c0 .3-.2.5-.5.5M97.6 171.4c-.2 0-.4-.1-.5-.4-.1-.3.1-.5.4-.6 2.7-.7 5-2.1 6.8-4.2.2-.2.5-.2.7-.1.2.2.2.5.1.7-1.9 2.2-4.5 3.8-7.3 4.5-.1.1-.2.1-.2.1"/><path class="st1" d="M97.6 171.4c-.1 0-.2 0-.2-.1-.2-.1-.3-.4-.2-.7 1-1.8 1.9-3.7 2.5-5.7.1-.2.3-.4.6-.3 1.6.4 3.2.9 4.6 1.5.2.1.4.4.3.6-.1.2-.4.4-.6.3-1.3-.6-2.6-1-4-1.3-.6 1.9-1.4 3.8-2.4 5.5-.3.2-.5.2-.6.2M90.7 171.4h-.1c-2.8-.7-5.4-2.3-7.3-4.5-.2-.2-.2-.5.1-.7.2-.2.5-.2.7.1 1.8 2.1 4.2 3.6 6.8 4.2.3.1.4.3.4.6-.2.2-.4.3-.6.3"/><path class="st1" d="M90.7 171.4c-.2 0-.3-.1-.4-.2-1-1.7-1.8-3.6-2.4-5.5-1.4.3-2.7.8-4 1.3-.2.1-.5 0-.6-.3-.1-.2 0-.5.2-.6 1.5-.6 3-1.1 4.6-1.5.3-.1.5.1.6.3.6 2 1.4 3.9 2.5 5.7.1.2.1.5-.2.7-.1.1-.2.1-.3.1"/><path class="st1" d="M94.1 171.9c-1.2 0-2.4-.1-3.5-.4-.3-.1-.4-.3-.4-.6.1-.3.3-.4.6-.4 2.2.5 4.5.5 6.6 0 .3-.1.5.1.6.4.1.3-.1.5-.4.6-1.1.2-2.3.4-3.5.4"/><path class="st1" d="M94.2 171.3c-.3 0-.5-.2-.5-.5v-6.4c0-.1.1-.3.1-.3.1-.1.2-.1.3-.1 2.2 0 4.2.2 6 .6.3.1.4.3.4.6-.1.3-.3.4-.6.4-1.6-.3-3.3-.5-5.3-.6v5.9c.1.2-.1.4-.4.4"/></svg>