<svg version="1.1" xmlns="http://www.w3.org/2000/svg" xmlns:xlink="http://www.w3.org/1999/xlink" x="0" y="0" viewBox="0 0 125 951.5" xml:space="preserve"><style type="text/css">.st0{display:none;} .st1{display:inline;fill:#B3B3B3;} .st2{fill:#FFFFFF;} .st3{fill:#010000;} .st4{display:inline;fill:#010101;} .st5{opacity:0.65;} .st6{opacity:0.65;fill:#4B4A4B;} .st7{fill:none;stroke:#000000;stroke-width:1.6;stroke-miterlimit:10;} .st8{fill:#4B4A4B;} .st9{fill:#4B4A4B;stroke:#4B4A4B;stroke-width:1.6;stroke-miterlimit:10;} .st10{clip-path:url(#SVGID_2_);fill:#FFFFFF;}</style><path class="st0 st1" d="M-6.2-4.8h135.7v997.2H-6.2z" id="See_the_white"/><g id="Layer_1"><path class="st2" d="M38 292c-1.6 0-3.1-.7-4.2-1.4-2.5-1.5-5.5-5.8-4.4-10.2.1-.3.3-.4.6-.4.3.1.4.3.4.6-1 4.2 2.1 8 4 9.1 1.1.6 2.4 1.3 3.9 1.2 1.7-.1 3-1.1 4.2-3.1 2.4-4.1 1.8-12.5 1.6-14.9-1.4.6-4.8 2.3-7.8 4.5-.2.2-.5.1-.7-.1-.2-.2-.1-.5.1-.7 3.9-2.8 8.6-4.9 8.6-4.9.1-.1.3-.1.4 0 .1.1.2.2.2.4.1.5 1.2 11.1-1.7 16.2-1.3 2.3-3 3.6-5 3.6-.1.1-.1.1-.2.1"/><path class="st2" d="M22.6 269.3c-.2 2.7-1 13.2 1.9 18.2 1.5 2.6 3.3 3.8 5.4 3.8 1.7 0 3.3-.8 4.5-1.5 3-1.7 6-4.4 2.9-9.8-2.8-5-12.2-9.6-14.7-10.7m7.4 23c-2.5 0-4.6-1.5-6.2-4.3-3.5-6.1-2.1-18.9-2-19.5 0-.2.1-.3.2-.4.1-.1.3-.1.4 0 .5.2 12.4 5.4 15.9 11.5 4 6.9-1.5 10.1-3.3 11.1-1.3.7-3.1 1.6-5 1.6"/><path class="st3" d="M100 292c-1.6 0-3.1-.7-4.2-1.4-2.5-1.5-5.5-5.8-4.4-10.2.1-.3.3-.4.6-.4.3.1.4.3.4.6-1 4.2 2.1 8 4 9.1 1.1.6 2.4 1.3 3.9 1.2 1.7-.1 3-1.1 4.2-3.1 2.4-4.1 1.8-12.5 1.6-14.9-1.4.6-4.8 2.3-7.8 4.5-.2.2-.5.1-.7-.1-.2-.2-.1-.5.1-.7 3.9-2.8 8.6-4.9 8.6-4.9.1-.1.3-.1.4 0 .1.1.2.2.2.4.1.5 1.2 11.1-1.7 16.2-1.3 2.3-3 3.6-5 3.6-.1.1-.1.1-.2.1"/><path class="st3" d="M84.6 269.3c-.2 2.7-1 13.2 1.9 18.2 1.5 2.6 3.3 3.8 5.4 3.8 1.7 0 3.3-.8 4.5-1.5 3-1.7 6-4.4 2.9-9.8-2.8-5-12.2-9.6-14.7-10.7m7.4 23c-2.5 0-4.6-1.5-6.2-4.3-3.5-6.1-2.1-18.9-2-19.5 0-.2.1-.3.2-.4.1-.1.3-.1.4 0 .5.2 12.4 5.4 15.9 11.5 4 6.9-1.5 10.1-3.3 11.1-1.3.7-3.1 1.6-5 1.6"/><path class="st2" d="M33 582.1c-.9 3-2.3 5.2-3.5 7.1-1.6 2.4-2.9 4.5-2.9 7.7 0 3.4 2.7 7.1 6.5 7.1 3.7 0 6.5-3.7 6.5-7.1 0-3.2-1.4-5.3-2.9-7.7-1.4-1.9-2.8-4.1-3.7-7.1m0 22.9c-4 0-7.5-3.8-7.5-8.1 0-3.5 1.5-5.8 3.1-8.3 1.5-2.2 3.1-4.7 3.9-8.7 0-.2.2-.3.5-.3.2 0 .4.1.5.3.7 4 2.3 6.4 3.9 8.7 1.6 2.4 3.1 4.7 3.1 8.2 0 4-3.2 8.2-7.5 8.2"/><path class="st2" d="M33.6 601.4c-.2 0-.4-.2-.5-.4 0-.3.1-.5.4-.6 1.8-.3 2.6-2.1 2.6-3.7 0-.3.2-.5.5-.5s.5.2.5.5c0 2.1-1.1 4.3-3.5 4.7.1 0 .1 0 0 0"/><path class="st3" d="M95 582.1c-.9 3-2.3 5.2-3.5 7.1-1.6 2.4-2.9 4.5-2.9 7.7 0 3.4 2.7 7.1 6.5 7.1 3.7 0 6.5-3.7 6.5-7.1 0-3.2-1.4-5.3-2.9-7.7-1.4-1.9-2.8-4.1-3.7-7.1m0 22.9c-4 0-7.5-3.8-7.5-8.1 0-3.5 1.5-5.8 3.1-8.3 1.5-2.2 3.1-4.7 3.9-8.7 0-.2.2-.3.5-.3.2 0 .4.1.5.3.7 4 2.3 6.4 3.9 8.7 1.6 2.4 3.1 4.7 3.1 8.2 0 4-3.2 8.2-7.5 8.2"/><path class="st3" d="M95.6 601.4c-.2 0-.4-.2-.5-.4 0-.3.1-.5.4-.6 1.8-.3 2.6-2.1 2.6-3.7 0-.3.2-.5.5-.5s.5.2.5.5c0 2.1-1.1 4.3-3.5 4.7.1 0 .1 0 0 0"/><path class="st2" d="M38 292c-1.6 0-3.1-.7-4.2-1.4-2.5-1.5-5.5-5.8-4.4-10.2.1-.3.3-.4.6-.4.3.1.4.3.4.6-1 4.2 2.1 8 4 9.1 1.1.6 2.4 1.3 3.9 1.2 1.7-.1 3-1.1 4.2-3.1 2.4-4.1 1.8-12.5 1.6-14.9-1.4.6-4.8 2.3-7.8 4.5-.2.2-.5.1-.7-.1-.2-.2-.1-.5.1-.7 3.9-2.8 8.6-4.9 8.6-4.9.1-.1.3-.1.4 0 .1.1.2.2.2.4.1.5 1.2 11.1-1.7 16.2-1.3 2.3-3 3.6-5 3.6-.1.1-.1.1-.2.1"/><path class="st2" d="M22.6 269.3c-.2 2.7-1 13.2 1.9 18.2 1.5 2.6 3.3 3.8 5.4 3.8 1.7 0 3.3-.8 4.5-1.5 3-1.7 6-4.4 2.9-9.8-2.8-5-12.2-9.6-14.7-10.7m7.4 23c-2.5 0-4.6-1.5-6.2-4.3-3.5-6.1-2.1-18.9-2-19.5 0-.2.1-.3.2-.4.1-.1.3-.1.4 0 .5.2 12.4 5.4 15.9 11.5 4 6.9-1.5 10.1-3.3 11.1-1.3.7-3.1 1.6-5 1.6"/><path class="st3" d="M100 292c-1.6 0-3.1-.7-4.2-1.4-2.5-1.5-5.5-5.8-4.4-10.2.1-.3.3-.4.6-.4.3.1.4.3.4.6-1 4.2 2.1 8 4 9.1 1.1.6 2.4 1.3 3.9 1.2 1.7-.1 3-1.1 4.2-3.1 2.4-4.1 1.8-12.5 1.6-14.9-1.4.6-4.8 2.3-7.8 4.5-.2.2-.5.1-.7-.1-.2-.2-.1-.5.1-.7 3.9-2.8 8.6-4.9 8.6-4.9.1-.1.3-.1.4 0 .1.1.2.2.2.4.1.5 1.2 11.1-1.7 16.2-1.3 2.3-3 3.6-5 3.6-.1.1-.1.1-.2.1"/><path class="st3" d="M84.6 269.3c-.2 2.7-1 13.2 1.9 18.2 1.5 2.6 3.3 3.8 5.4 3.8 1.7 0 3.3-.8 4.5-1.5 3-1.7 6-4.4 2.9-9.8-2.8-5-12.2-9.6-14.7-10.7m7.4 23c-2.5 0-4.6-1.5-6.2-4.3-3.5-6.1-2.1-18.9-2-19.5 0-.2.1-.3.2-.4.1-.1.3-.1.4 0 .5.2 12.4 5.4 15.9 11.5 4 6.9-1.5 10.1-3.3 11.1-1.3.7-3.1 1.6-5 1.6"/><path class="st2" d="M33.5 463.1c-1.7 0-3.1 1.4-3.1 3.1 0 1.7 1.4 3.1 3.1 3.1 1.7 0 3.1-1.4 3.1-3.1 0-1.8-1.3-3.1-3.1-3.1m0 7c-2.2 0-4-1.8-4-4s1.8-4 4-4 4 1.8 4 4-1.8 4-4 4"/><path class="st3" d="M95.5 463.1c-1.7 0-3.1 1.4-3.1 3.1 0 1.7 1.4 3.1 3.1 3.1 1.7 0 3.1-1.4 3.1-3.1 0-1.8-1.3-3.1-3.1-3.1m0 7c-2.2 0-4-1.8-4-4s1.8-4 4-4 4 1.8 4 4-1.8 4-4 4"/><path class="st2" d="M26.9 476.6c.9.6 1.9 1 2.9 1.4l3.4-4.1c.2-.2.5-.2.7 0l3.4 4.1c1-.3 2-.8 2.9-1.4l-1.1-5.3c0-.1 0-.3.1-.4.1-.1.2-.2.3-.2l5.5-.1c.4-1 .6-2 .8-3l-5-2.5c-.1-.1-.2-.2-.2-.3 0-.1 0-.3.1-.4l3.5-4.6c-.5-.9-1.1-1.7-1.8-2.4l-5.3 2.4c-.1.1-.3.1-.4 0-.1-.1-.2-.2-.2-.3l-1.4-5.7c-1-.1-2-.1-3 0l-1.4 5.7c0 .1-.1.2-.2.3-.1.1-.3.1-.4 0l-5.3-2.4c-.7.7-1.3 1.5-1.8 2.4l3.5 4.6c.1.1.1.2.1.4 0 .1-.1.2-.2.3l-5 2.5c.1 1 .4 2.1.8 3l5.5.1c.1 0 .3.1.3.2.1.1.1.2.1.4l-1.2 5.3zm10.3 2.3c-.1 0-.3-.1-.3-.2l-3.3-3.9-3.3 3.9c-.1.1-.3.2-.5.1-1.3-.4-2.6-1-3.7-1.7-.1-.1-.2-.3-.2-.5l1-5-5.3-.1c-.2 0-.3-.1-.4-.3-.5-1.2-.8-2.5-1-3.9 0-.2.1-.4.2-.4l4.8-2.4-3.3-4.4c-.1-.1-.1-.3 0-.5.6-1.1 1.4-2.2 2.4-3.1.1-.1.3-.2.5-.1l5.1 2.3 1.4-5.5c0-.2.2-.3.4-.3 1.3-.2 2.5-.2 3.8 0 .2 0 .3.2.4.3l1.4 5.5 5.1-2.3c.2-.1.4 0 .5.1.9.9 1.7 1.9 2.4 3.1.1.2.1.3 0 .5l-3.3 4.4 4.8 2.4c.2.1.3.3.2.4-.1 1.3-.4 2.6-1 3.9-.1.2-.2.3-.4.3l-5.3.1 1 5c0 .2 0 .4-.2.5-1.1.8-2.4 1.3-3.7 1.7-.1.1-.2.1-.2.1"/><path class="st3" d="M88.9 476.6c.9.6 1.9 1 2.9 1.4l3.4-4.1c.2-.2.5-.2.7 0l3.4 4.1c1-.3 2-.8 2.9-1.4l-1.1-5.3c0-.1 0-.3.1-.4.1-.1.2-.2.3-.2l5.5-.1c.4-1 .6-2 .8-3l-5-2.5c-.1-.1-.2-.2-.2-.3 0-.1 0-.3.1-.4l3.5-4.6c-.5-.9-1.1-1.7-1.8-2.4l-5.3 2.4c-.1.1-.3.1-.4 0-.1-.1-.2-.2-.2-.3l-1.4-5.7c-1-.1-2-.1-3 0l-1.4 5.7c0 .1-.1.2-.2.3-.1.1-.3.1-.4 0l-5.3-2.4c-.7.7-1.3 1.5-1.8 2.4l3.5 4.6c.1.1.1.2.1.4 0 .1-.1.2-.2.3l-5 2.5c.1 1 .4 2.1.8 3l5.5.1c.1 0 .3.1.3.2.1.1.1.2.1.4l-1.2 5.3zm10.3 2.3c-.1 0-.3-.1-.3-.2l-3.3-3.9-3.3 3.9c-.1.1-.3.2-.5.1-1.3-.4-2.6-1-3.7-1.7-.1-.1-.2-.3-.2-.5l1-5-5.3-.1c-.2 0-.3-.1-.4-.3-.5-1.2-.8-2.5-1-3.9 0-.2.1-.4.2-.4l4.8-2.4-3.3-4.4c-.1-.1-.1-.3 0-.5.6-1.1 1.4-2.2 2.4-3.1.1-.1.3-.2.5-.1l5.1 2.3 1.4-5.5c0-.2.2-.3.4-.3 1.3-.2 2.5-.2 3.8 0 .2 0 .3.2.4.3l1.4 5.5 5.1-2.3c.2-.1.4 0 .5.1.9.9 1.7 1.9 2.4 3.1.1.2.1.3 0 .5l-3.3 4.4 4.8 2.4c.2.1.3.3.2.4-.1 1.3-.4 2.6-1 3.9-.1.2-.2.3-.4.3l-5.3.1 1 5c0 .2 0 .4-.2.5-1.1.8-2.4 1.3-3.7 1.7-.1.1-.2.1-.2.1"/><path class="st2" d="M29.3 355.1c-.3 0-.8-.1-1.3-.6-1.1-1.1-.3-3.4.2-5.1.1-.3.2-.6.2-.8.5-1.8.6-3.6.3-5-.3-1.3-.8-2.3-1.5-3.1-.8-.7-2-1-2.8-1.1-.1 0-.4 0-.8-.1h-.4c-1.7-.1-1.7-.1-1.9-.4-.1-.2-.1-.4 0-.5.3-.5 1.4-1.3 3.8-2.7.4-.2.7-.4 1-.6.3-.2.5-.4.8-.6 1.2-.9 2.9-2.1 5.3-2.1 3.2-.1 4.7 1.3 5.9 3.5 1.2 2.2 5.5 8.4 8.7 9.1.3.1.5.4.4.7s-.4.5-.7.4c-3.9-.9-8.5-7.9-9.5-9.7-1.2-2.2-2.5-3-4.8-2.9-2 .1-3.5 1.1-4.7 1.9l-.9.6c-.3.2-.6.4-1 .6-.6.4-1.7 1-2.5 1.5h.5c.5 0 .7.1.8.1 1 .1 2.4.5 3.4 1.4.9 1 1.5 2.2 1.8 3.7.3 1.5.2 3.5-.3 5.5-.1.2-.2.5-.3.9-.4 1.1-1.1 3.3-.5 3.9.2.2.4.2.5.2.3 0 .6-.3.9-.7.3-.4.5-.8.6-1.2 0-.1.1-.3.1-.5s.1-.4.1-.6v-.2c0-.3.1-.5.3-.8.1-.2.3-.2.5-.2s.4.1.5.3c.1.2.1.3.2.5.1.4.3.7.5 1 .6.8 1.8 1 2.6.5 1.2-.7 1.6-3 1.1-4.4-.1-.3.1-.6.4-.7.3-.1.6.1.7.3.3.8 1.1 1.8 2.2 1.6.3 0 .5-.2.7-.5.3-.5.4-1.3.1-1.9-.1-.3 0-.6.3-.7.3-.1.6 0 .8.3.4.8.3 2-.2 2.8-.3.6-.9 1-1.5 1.1-.8.1-1.5-.1-2.2-.5-.1 1.4-.7 2.9-1.8 3.6-1.4.8-3.2.4-4.2-.8 0-.1-.1-.1-.1-.2 0 .1 0 .2-.1.3-.2.6-.6 1.2-.8 1.5-.3.4-.9 1.1-1.8 1.1.5.3.5.3.4.3"/><path class="st3" d="M91.3 355.1c-.3 0-.8-.1-1.3-.6-1.1-1.1-.3-3.4.2-5.1.1-.3.2-.6.2-.8.5-1.8.6-3.6.3-5-.3-1.3-.8-2.3-1.5-3.1-.8-.7-2-1-2.8-1.1-.1 0-.4 0-.8-.1h-.4c-1.7-.1-1.7-.1-1.9-.4-.1-.2-.1-.4 0-.5.3-.5 1.4-1.3 3.8-2.7.4-.2.7-.4 1-.6.3-.2.5-.4.8-.6 1.2-.9 2.9-2.1 5.3-2.1 3.2-.1 4.7 1.3 5.9 3.5 1.2 2.2 5.5 8.4 8.7 9.1.3.1.5.4.4.7-.1.3-.4.5-.7.4-3.9-.9-8.5-7.9-9.5-9.7-1.2-2.2-2.5-3-4.8-2.9-2 .1-3.5 1.1-4.7 1.9l-.9.6c-.3.2-.6.4-1 .6-.6.4-1.7 1-2.5 1.5h.5c.5 0 .7.1.8.1 1 .1 2.4.5 3.4 1.4.9 1 1.5 2.2 1.8 3.7.3 1.5.2 3.5-.3 5.5-.1.2-.2.5-.3.9-.4 1.1-1.1 3.3-.5 3.9.2.2.4.2.5.2.3 0 .6-.3.9-.7.3-.4.5-.8.6-1.2 0-.1.1-.3.1-.5s.1-.4.1-.6v-.2c0-.3.1-.5.3-.8.1-.2.3-.2.5-.2s.4.1.5.3c.1.2.1.3.2.5.1.4.3.7.5 1 .6.8 1.8 1 2.6.5 1.2-.7 1.6-3 1.1-4.4-.1-.3.1-.6.4-.7s.6.1.7.3c.3.8 1.1 1.8 2.2 1.6.3 0 .5-.2.7-.5.3-.5.4-1.3.1-1.9-.1-.3 0-.6.3-.7.3-.1.6 0 .8.3.4.8.3 2-.2 2.8-.3.6-.9 1-1.5 1.1-.8.1-1.5-.1-2.2-.5-.1 1.4-.7 2.9-1.8 3.6-1.4.8-3.2.4-4.2-.8 0-.1-.1-.1-.1-.2 0 .1 0 .2-.1.3-.2.6-.6 1.2-.8 1.5-.3.4-.9 1.1-1.8 1.1.5.3.5.3.4.3"/><path class="st2" d="M30.5 338.1c-.5.5-1.3.5-1.8 0s-.5-1.3 0-1.8 1.3-.5 1.8 0c.5.6.5 1.4 0 1.8"/><path class="st3" d="M92.5 338.1c-.5.5-1.3.5-1.8 0s-.5-1.3 0-1.8 1.3-.5 1.8 0c.5.6.5 1.4 0 1.8"/><path class="st2" d="M33 582.1c-.9 3-2.3 5.2-3.5 7.1-1.6 2.4-2.9 4.5-2.9 7.7 0 3.4 2.7 7.1 6.5 7.1 3.7 0 6.5-3.7 6.5-7.1 0-3.2-1.4-5.3-2.9-7.7-1.4-1.9-2.8-4.1-3.7-7.1m0 22.9c-4 0-7.5-3.8-7.5-8.1 0-3.5 1.5-5.8 3.1-8.3 1.5-2.2 3.1-4.7 3.9-8.7 0-.2.2-.3.5-.3.2 0 .4.1.5.3.7 4 2.3 6.4 3.9 8.7 1.6 2.4 3.1 4.7 3.1 8.2 0 4-3.2 8.2-7.5 8.2"/><path class="st2" d="M33.6 601.4c-.2 0-.4-.2-.5-.4 0-.3.1-.5.4-.6 1.8-.3 2.6-2.1 2.6-3.7 0-.3.2-.5.5-.5s.5.2.5.5c0 2.1-1.1 4.3-3.5 4.7.1 0 .1 0 0 0"/><path class="st3" d="M95 582.1c-.9 3-2.3 5.2-3.5 7.1-1.6 2.4-2.9 4.5-2.9 7.7 0 3.4 2.7 7.1 6.5 7.1 3.7 0 6.5-3.7 6.5-7.1 0-3.2-1.4-5.3-2.9-7.7-1.4-1.9-2.8-4.1-3.7-7.1m0 22.9c-4 0-7.5-3.8-7.5-8.1 0-3.5 1.5-5.8 3.1-8.3 1.5-2.2 3.1-4.7 3.9-8.7 0-.2.2-.3.5-.3.2 0 .4.1.5.3.7 4 2.3 6.4 3.9 8.7 1.6 2.4 3.1 4.7 3.1 8.2 0 4-3.2 8.2-7.5 8.2"/><path class="st3" d="M95.6 601.4c-.2 0-.4-.2-.5-.4 0-.3.1-.5.4-.6 1.8-.3 2.6-2.1 2.6-3.7 0-.3.2-.5.5-.5s.5.2.5.5c0 2.1-1.1 4.3-3.5 4.7.1 0 .1 0 0 0"/><path class="st2" d="M33.5 463.1c-1.7 0-3.1 1.4-3.1 3.1 0 1.7 1.4 3.1 3.1 3.1 1.7 0 3.1-1.4 3.1-3.1 0-1.8-1.3-3.1-3.1-3.1m0 7c-2.2 0-4-1.8-4-4s1.8-4 4-4 4 1.8 4 4-1.8 4-4 4"/><path class="st3" d="M95.5 463.1c-1.7 0-3.1 1.4-3.1 3.1 0 1.7 1.4 3.1 3.1 3.1 1.7 0 3.1-1.4 3.1-3.1 0-1.8-1.3-3.1-3.1-3.1m0 7c-2.2 0-4-1.8-4-4s1.8-4 4-4 4 1.8 4 4-1.8 4-4 4"/><path class="st2" d="M26.9 476.6c.9.6 1.9 1 2.9 1.4l3.4-4.1c.2-.2.5-.2.7 0l3.4 4.1c1-.3 2-.8 2.9-1.4l-1.1-5.3c0-.1 0-.3.1-.4.1-.1.2-.2.3-.2l5.5-.1c.4-1 .6-2 .8-3l-5-2.5c-.1-.1-.2-.2-.2-.3 0-.1 0-.3.1-.4l3.5-4.6c-.5-.9-1.1-1.7-1.8-2.4l-5.3 2.4c-.1.1-.3.1-.4 0-.1-.1-.2-.2-.2-.3l-1.4-5.7c-1-.1-2-.1-3 0l-1.4 5.7c0 .1-.1.2-.2.3-.1.1-.3.1-.4 0l-5.3-2.4c-.7.7-1.3 1.5-1.8 2.4l3.5 4.6c.1.1.1.2.1.4 0 .1-.1.2-.2.3l-5 2.5c.1 1 .4 2.1.8 3l5.5.1c.1 0 .3.1.3.2.1.1.1.2.1.4l-1.2 5.3zm10.3 2.3c-.1 0-.3-.1-.3-.2l-3.3-3.9-3.3 3.9c-.1.1-.3.2-.5.1-1.3-.4-2.6-1-3.7-1.7-.1-.1-.2-.3-.2-.5l1-5-5.3-.1c-.2 0-.3-.1-.4-.3-.5-1.2-.8-2.5-1-3.9 0-.2.1-.4.2-.4l4.8-2.4-3.3-4.4c-.1-.1-.1-.3 0-.5.6-1.1 1.4-2.2 2.4-3.1.1-.1.3-.2.5-.1l5.1 2.3 1.4-5.5c0-.2.2-.3.4-.3 1.3-.2 2.5-.2 3.8 0 .2 0 .3.2.4.3l1.4 5.5 5.1-2.3c.2-.1.4 0 .5.1.9.9 1.7 1.9 2.4 3.1.1.2.1.3 0 .5l-3.3 4.4 4.8 2.4c.2.1.3.3.2.4-.1 1.3-.4 2.6-1 3.9-.1.2-.2.3-.4.3l-5.3.1 1 5c0 .2 0 .4-.2.5-1.1.8-2.4 1.3-3.7 1.7-.1.1-.2.1-.2.1"/><path class="st3" d="M88.9 476.6c.9.6 1.9 1 2.9 1.4l3.4-4.1c.2-.2.5-.2.7 0l3.4 4.1c1-.3 2-.8 2.9-1.4l-1.1-5.3c0-.1 0-.3.1-.4.1-.1.2-.2.3-.2l5.5-.1c.4-1 .6-2 .8-3l-5-2.5c-.1-.1-.2-.2-.2-.3 0-.1 0-.3.1-.4l3.5-4.6c-.5-.9-1.1-1.7-1.8-2.4l-5.3 2.4c-.1.1-.3.1-.4 0-.1-.1-.2-.2-.2-.3l-1.4-5.7c-1-.1-2-.1-3 0l-1.4 5.7c0 .1-.1.2-.2.3-.1.1-.3.1-.4 0l-5.3-2.4c-.7.7-1.3 1.5-1.8 2.4l3.5 4.6c.1.1.1.2.1.4 0 .1-.1.2-.2.3l-5 2.5c.1 1 .4 2.1.8 3l5.5.1c.1 0 .3.1.3.2.1.1.1.2.1.4l-1.2 5.3zm10.3 2.3c-.1 0-.3-.1-.3-.2l-3.3-3.9-3.3 3.9c-.1.1-.3.2-.5.1-1.3-.4-2.6-1-3.7-1.7-.1-.1-.2-.3-.2-.5l1-5-5.3-.1c-.2 0-.3-.1-.4-.3-.5-1.2-.8-2.5-1-3.9 0-.2.1-.4.2-.4l4.8-2.4-3.3-4.4c-.1-.1-.1-.3 0-.5.6-1.1 1.4-2.2 2.4-3.1.1-.1.3-.2.5-.1l5.1 2.3 1.4-5.5c0-.2.2-.3.4-.3 1.3-.2 2.5-.2 3.8 0 .2 0 .3.2.4.3l1.4 5.5 5.1-2.3c.2-.1.4 0 .5.1.9.9 1.7 1.9 2.4 3.1.1.2.1.3 0 .5l-3.3 4.4 4.8 2.4c.2.1.3.3.2.4-.1 1.3-.4 2.6-1 3.9-.1.2-.2.3-.4.3l-5.3.1 1 5c0 .2 0 .4-.2.5-1.1.8-2.4 1.3-3.7 1.7-.1.1-.2.1-.2.1"/><path class="st2" d="M29.3 355.1c-.3 0-.8-.1-1.3-.6-1.1-1.1-.3-3.4.2-5.1.1-.3.2-.6.2-.8.5-1.8.6-3.6.3-5-.3-1.3-.8-2.3-1.5-3.1-.8-.7-2-1-2.8-1.1-.1 0-.4 0-.8-.1h-.4c-1.7-.1-1.7-.1-1.9-.4-.1-.2-.1-.4 0-.5.3-.5 1.4-1.3 3.8-2.7.4-.2.7-.4 1-.6.3-.2.5-.4.8-.6 1.2-.9 2.9-2.1 5.3-2.1 3.2-.1 4.7 1.3 5.9 3.5 1.2 2.2 5.5 8.4 8.7 9.1.3.1.5.4.4.7s-.4.5-.7.4c-3.9-.9-8.5-7.9-9.5-9.7-1.2-2.2-2.5-3-4.8-2.9-2 .1-3.5 1.1-4.7 1.9l-.9.6c-.3.2-.6.4-1 .6-.6.4-1.7 1-2.5 1.5h.5c.5 0 .7.1.8.1 1 .1 2.4.5 3.4 1.4.9 1 1.5 2.2 1.8 3.7.3 1.5.2 3.5-.3 5.5-.1.2-.2.5-.3.9-.4 1.1-1.1 3.3-.5 3.9.2.2.4.2.5.2.3 0 .6-.3.9-.7.3-.4.5-.8.6-1.2 0-.1.1-.3.1-.5s.1-.4.1-.6v-.2c0-.3.1-.5.3-.8.1-.2.3-.2.5-.2s.4.1.5.3c.1.2.1.3.2.5.1.4.3.7.5 1 .6.8 1.8 1 2.6.5 1.2-.7 1.6-3 1.1-4.4-.1-.3.1-.6.4-.7.3-.1.6.1.7.3.3.8 1.1 1.8 2.2 1.6.3 0 .5-.2.7-.5.3-.5.4-1.3.1-1.9-.1-.3 0-.6.3-.7.3-.1.6 0 .8.3.4.8.3 2-.2 2.8-.3.6-.9 1-1.5 1.1-.8.1-1.5-.1-2.2-.5-.1 1.4-.7 2.9-1.8 3.6-1.4.8-3.2.4-4.2-.8 0-.1-.1-.1-.1-.2 0 .1 0 .2-.1.3-.2.6-.6 1.2-.8 1.5-.3.4-.9 1.1-1.8 1.1.5.3.5.3.4.3"/><path class="st3" d="M91.3 355.1c-.3 0-.8-.1-1.3-.6-1.1-1.1-.3-3.4.2-5.1.1-.3.2-.6.2-.8.5-1.8.6-3.6.3-5-.3-1.3-.8-2.3-1.5-3.1-.8-.7-2-1-2.8-1.1-.1 0-.4 0-.8-.1h-.4c-1.7-.1-1.7-.1-1.9-.4-.1-.2-.1-.4 0-.5.3-.5 1.4-1.3 3.8-2.7.4-.2.7-.4 1-.6.3-.2.5-.4.8-.6 1.2-.9 2.9-2.1 5.3-2.1 3.2-.1 4.7 1.3 5.9 3.5 1.2 2.2 5.5 8.4 8.7 9.1.3.1.5.4.4.7-.1.3-.4.5-.7.4-3.9-.9-8.5-7.9-9.5-9.7-1.2-2.2-2.5-3-4.8-2.9-2 .1-3.5 1.1-4.7 1.9l-.9.6c-.3.2-.6.4-1 .6-.6.4-1.7 1-2.5 1.5h.5c.5 0 .7.1.8.1 1 .1 2.4.5 3.4 1.4.9 1 1.5 2.2 1.8 3.7.3 1.5.2 3.5-.3 5.5-.1.2-.2.5-.3.9-.4 1.1-1.1 3.3-.5 3.9.2.2.4.2.5.2.3 0 .6-.3.9-.7.3-.4.5-.8.6-1.2 0-.1.1-.3.1-.5s.1-.4.1-.6v-.2c0-.3.1-.5.3-.8.1-.2.3-.2.5-.2s.4.1.5.3c.1.2.1.3.2.5.1.4.3.7.5 1 .6.8 1.8 1 2.6.5 1.2-.7 1.6-3 1.1-4.4-.1-.3.1-.6.4-.7s.6.1.7.3c.3.8 1.1 1.8 2.2 1.6.3 0 .5-.2.7-.5.3-.5.4-1.3.1-1.9-.1-.3 0-.6.3-.7.3-.1.6 0 .8.3.4.8.3 2-.2 2.8-.3.6-.9 1-1.5 1.1-.8.1-1.5-.1-2.2-.5-.1 1.4-.7 2.9-1.8 3.6-1.4.8-3.2.4-4.2-.8 0-.1-.1-.1-.1-.2 0 .1 0 .2-.1.3-.2.6-.6 1.2-.8 1.5-.3.4-.9 1.1-1.8 1.1.5.3.5.3.4.3"/><path class="st2" d="M30.5 338.1c-.5.5-1.3.5-1.8 0s-.5-1.3 0-1.8 1.3-.5 1.8 0c.5.6.5 1.4 0 1.8"/><path class="st3" d="M92.5 338.1c-.5.5-1.3.5-1.8 0s-.5-1.3 0-1.8 1.3-.5 1.8 0c.5.6.5 1.4 0 1.8"/><path class="st2" d="M46.8 92.4h-9.7c.1.3.2.6.2.9h9.1l2.6 2.6-2.4 2.6-3-2.3-3 2.3-3-2.3-3.2 2.3h-4.1l-.1.2c-.3.5-.6 1-1 1.4-2.3 2.3-6.1 2.3-8.4 0-2.3-2.3-2.3-6.1 0-8.4 2.3-2.3 6.1-2.3 8.4 0 .4.4.8.9 1 1.4l.1.2H35c-.1-.3-.1-.6-.2-.9-.5-1.4-1.3-2.8-2.4-3.9-4.1-4.1-10.7-4.1-14.7 0-4.1 4.1-4.1 10.7 0 14.7 4.1 4.1 10.7 4.1 14.7 0 .6-.6 1.2-1.4 1.6-2.1h-1c-.3.5-.7 1-1.2 1.5-3.7 3.7-9.8 3.7-13.5 0-3.7-3.7-3.7-9.8 0-13.5 3.7-3.7 9.8-3.7 13.5 0 1 1 1.7 2.1 2.1 3.3h-3.1c-.3-.5-.7-1-1.1-1.4-2.7-2.7-7-2.7-9.6 0-2.7 2.7-2.7 7 0 9.6 2.7 2.7 7 2.7 9.6 0 .4-.4.8-.9 1.1-1.4h4l2.8-2.1 3 2.3 3-2.3 3 2.3 3.6-3.6-3.4-3.4z"/><path class="st3" d="M108.8 92.4h-9.7c.1.3.2.6.2.9h9.1l2.6 2.6-2.4 2.6-3-2.3-3 2.3-3-2.3-3.2 2.3h-4.1l-.1.2c-.3.5-.6 1-1 1.4-2.3 2.3-6.1 2.3-8.4 0-2.3-2.3-2.3-6.1 0-8.4 2.3-2.3 6.1-2.3 8.4 0 .4.4.8.9 1 1.4l.1.2H97c-.1-.3-.1-.6-.2-.9-.5-1.4-1.3-2.8-2.4-3.9-4.1-4.1-10.7-4.1-14.7 0-4.1 4.1-4.1 10.7 0 14.7 4.1 4.1 10.7 4.1 14.7 0 .6-.6 1.2-1.4 1.6-2.1h-1c-.3.5-.7 1-1.2 1.5-3.7 3.7-9.8 3.7-13.5 0-3.7-3.7-3.7-9.8 0-13.5 3.7-3.7 9.8-3.7 13.5 0 1 1 1.7 2.1 2.1 3.3h-3.1c-.3-.5-.7-1-1.1-1.4-2.7-2.7-7-2.7-9.6 0-2.7 2.7-2.7 7 0 9.6 2.7 2.7 7 2.7 9.6 0 .4-.4.8-.9 1.1-1.4h4l2.8-2.1 3 2.3 3-2.3 3 2.3 3.6-3.6-3.4-3.4z"/><path class="st2" d="M22 95.1c-.4.4-.4 1 0 1.4s1 .4 1.4 0c.4-.4.4-1 0-1.4-.4-.3-1-.3-1.4 0"/><path class="st3" d="M84 95.1c-.4.4-.4 1 0 1.4.4.4 1 .4 1.4 0 .4-.4.4-1 0-1.4-.4-.3-1-.3-1.4 0"/><path class="st2" d="M42.6 167.1c-.1 0-.2 0-.3-.1-.2-.2-.2-.5-.1-.7 1.9-2.3 3.1-5.1 3.2-8.1h-5.8c-.1 2.4-.4 4.8-1.1 7-.1.3-.3.4-.6.3-.3-.1-.4-.3-.3-.6.7-2.4 1-4.8 1.1-7.3 0-.3.2-.5.5-.5H46c.1 0 .3.1.3.1.1.1.1.2.1.3 0 3.4-1.3 6.6-3.5 9.2 0 .3-.1.4-.3.4"/><path class="st2" d="M46 158c-.3 0-.5-.2-.5-.5 0-3.1-1.1-6.1-3-8.4-1.2.5-2.5.9-3.8 1.2.6 2.3 1 4.8 1 7.2 0 .3-.2.5-.5.5s-.5-.2-.5-.5c0-2.5-.4-5-1.1-7.4v-.4c.1-.1.2-.2.3-.2 1.6-.3 3.1-.8 4.5-1.4.2-.1.4 0 .6.1 2.2 2.6 3.5 5.9 3.5 9.3 0 .3-.3.5-.5.5M21.7 167.1c-.1 0-.3-.1-.4-.2-2.2-2.6-3.5-5.9-3.5-9.3 0-3.4 1.2-6.7 3.5-9.3.2-.2.5-.2.7-.1.2.2.2.5.1.7-2.1 2.4-3.2 5.5-3.2 8.7 0 3.2 1.1 6.3 3.2 8.7.2.2.2.5-.1.7-.1 0-.2.1-.3.1"/><path class="st2" d="M26.2 150.5h-.1c-1.6-.4-3.2-.9-4.6-1.5-.2-.1-.4-.4-.3-.6.1-.2.4-.4.6-.3 1.4.6 2.9 1.1 4.5 1.4.3.1.4.3.4.6-.1.2-.3.4-.5.4M24.9 158.2h-6.5c-.3 0-.5-.2-.5-.5s.2-.5.5-.5h6.5c.3 0 .5.2.5.5s-.2.5-.5.5"/><path class="st2" d="M32.4 158.2h-7.3c-.3 0-.5-.2-.5-.5v-.2c0-2.6.4-5.2 1.1-7.7.1-.2.3-.4.6-.3 1.9.4 3.8.6 5.8.6.3 0 .5.2.5.5s-.2.5-.5.5c-1.9 0-3.8-.2-5.6-.6-.6 2.2-.9 4.4-.9 6.7h6.8c.3 0 .5.2.5.5s-.3.5-.5.5"/><path class="st2" d="M26.2 165.6c-.2 0-.4-.1-.5-.3-.7-2.4-1.1-5-1.1-7.5 0-.3.2-.5.5-.5s.5.3.5.5c0 2.3.3 4.6.9 6.8 1.7-.4 3.5-.5 5.2-.5V158c0-.3.2-.5.5-.5s.5.2.5.5v6.6c0 .2-.2.4-.4.5h-.2c-1.9 0-3.9.2-5.8.6 0-.1-.1-.1-.1-.1"/><path class="st2" d="M39.2 158.2h-7c-.3 0-.5-.2-.5-.5v-7.1c0-.3.2-.5.5-.5 2 0 3.9-.2 5.8-.6.3-.1.5.1.6.4s-.1.5-.4.6c-1.8.4-3.6.6-5.5.6v6.1h6.5c.3 0 .5.2.5.5s-.2.5-.5.5M42.6 149c-.1 0-.3-.1-.4-.2-1.8-2.1-4.2-3.6-6.8-4.2-.3-.1-.4-.3-.4-.6.1-.3.3-.4.6-.4 2.8.7 5.4 2.3 7.3 4.5.2.2.2.5-.1.7.1.2-.1.2-.2.2"/><path class="st2" d="M38.1 150.5c-.2 0-.4-.1-.5-.3-.6-2-1.4-3.9-2.5-5.7-.1-.2-.1-.5.2-.7.2-.1.5-.1.7.2 1.1 1.9 1.9 3.9 2.6 6 .1.3-.1.5-.3.6-.1-.1-.2-.1-.2-.1M21.7 149c-.1 0-.2 0-.3-.1-.2-.2-.2-.5-.1-.7 1.9-2.2 4.5-3.8 7.3-4.5.3-.1.5.1.6.4.1.3-.1.5-.4.6-2.7.7-5 2.1-6.8 4.2-.1.1-.2.1-.3.1"/><path class="st2" d="M26.2 150.5h-.1c-.3-.1-.4-.3-.3-.6.6-2.1 1.5-4.1 2.6-6 .1-.2.4-.3.7-.2.2.1.3.4.2.7-1 1.8-1.9 3.7-2.5 5.7-.2.2-.4.4-.6.4"/><path class="st2" d="M28.7 144.6c-.2 0-.4-.1-.5-.4-.1-.3.1-.5.4-.6 2.3-.6 4.8-.6 7.1 0 .3.1.4.3.4.6-.1.3-.3.4-.6.4-2.2-.5-4.5-.5-6.6 0h-.2"/><path class="st2" d="M32.2 151.2c-.3 0-.5-.2-.5-.5v-6.5c0-.3.2-.5.5-.5s.5.2.5.5v6.5c0 .3-.2.5-.5.5M35.6 171.4c-.2 0-.4-.1-.5-.4-.1-.3.1-.5.4-.6 2.7-.7 5-2.1 6.8-4.2.2-.2.5-.2.7-.1.2.2.2.5.1.7-1.9 2.2-4.5 3.8-7.3 4.5-.1.1-.2.1-.2.1"/><path class="st2" d="M35.6 171.4c-.1 0-.2 0-.2-.1-.2-.1-.3-.4-.2-.7 1-1.8 1.9-3.7 2.5-5.7.1-.2.3-.4.6-.3 1.6.4 3.2.9 4.6 1.5.2.1.4.4.3.6-.1.2-.4.4-.6.3-1.3-.6-2.6-1-4-1.3-.6 1.9-1.4 3.8-2.4 5.5-.3.2-.5.2-.6.2M28.7 171.4h-.1c-2.8-.7-5.4-2.3-7.3-4.5-.2-.2-.2-.5.1-.7.2-.2.5-.2.7.1 1.8 2.1 4.2 3.6 6.8 4.2.3.1.4.3.4.6-.2.2-.4.3-.6.3"/><path class="st2" d="M28.7 171.4c-.2 0-.3-.1-.4-.2-1-1.7-1.8-3.6-2.4-5.5-1.4.3-2.7.8-4 1.3-.2.1-.5 0-.6-.3-.1-.2 0-.5.2-.6 1.5-.6 3-1.1 4.6-1.5.3-.1.5.1.6.3.6 2 1.4 3.9 2.5 5.7.1.2.1.5-.2.7-.1.1-.2.1-.3.1"/><path class="st2" d="M32.1 171.9c-1.2 0-2.4-.1-3.5-.4-.3-.1-.4-.3-.4-.6.1-.3.3-.4.6-.4 2.2.5 4.5.5 6.6 0 .3-.1.5.1.6.4.1.3-.1.5-.4.6-1.1.2-2.3.4-3.5.4"/><path class="st2" d="M32.2 171.3c-.3 0-.5-.2-.5-.5v-6.4c0-.1.1-.3.1-.3.1-.1.2-.1.3-.1 2.2 0 4.2.2 6 .6.3.1.4.3.4.6-.1.3-.3.4-.6.4-1.6-.3-3.3-.5-5.3-.6v5.9c.1.2-.1.4-.4.4"/><path class="st3" d="M104.6 167.1c-.1 0-.2 0-.3-.1-.2-.2-.2-.5-.1-.7 1.9-2.3 3.1-5.1 3.2-8.1h-5.8c-.1 2.4-.4 4.8-1.1 7-.1.3-.3.4-.6.3-.3-.1-.4-.3-.3-.6.7-2.4 1-4.8 1.1-7.3 0-.3.2-.5.5-.5h6.8c.1 0 .3.1.3.1.1.1.1.2.1.3 0 3.4-1.3 6.6-3.5 9.2 0 .3-.1.4-.3.4"/><path class="st3" d="M108 158c-.3 0-.5-.2-.5-.5 0-3.1-1.1-6.1-3-8.4-1.2.5-2.5.9-3.8 1.2.6 2.3 1 4.8 1 7.2 0 .3-.2.5-.5.5s-.5-.2-.5-.5c0-2.5-.4-5-1.1-7.4v-.4c.1-.1.2-.2.3-.2 1.6-.3 3.1-.8 4.5-1.4.2-.1.4 0 .6.1 2.2 2.6 3.5 5.9 3.5 9.3 0 .3-.3.5-.5.5M83.7 167.1c-.1 0-.3-.1-.4-.2-2.2-2.6-3.5-5.9-3.5-9.3 0-3.4 1.2-6.7 3.5-9.3.2-.2.5-.2.7-.1.2.2.2.5.1.7-2.1 2.4-3.2 5.5-3.2 8.7 0 3.2 1.1 6.3 3.2 8.7.2.2.2.5-.1.7-.1 0-.2.1-.3.1"/><path class="st3" d="M88.2 150.5h-.1c-1.6-.4-3.2-.9-4.6-1.5-.2-.1-.4-.4-.3-.6.1-.2.4-.4.6-.3 1.4.6 2.9 1.1 4.5 1.4.3.1.4.3.4.6-.1.2-.3.4-.5.4M86.9 158.2h-6.5c-.3 0-.5-.2-.5-.5s.2-.5.5-.5h6.5c.3 0 .5.2.5.5s-.2.5-.5.5"/><path class="st3" d="M94.4 158.2h-7.3c-.3 0-.5-.2-.5-.5v-.2c0-2.6.4-5.2 1.1-7.7.1-.2.3-.4.6-.3 1.9.4 3.8.6 5.8.6.3 0 .5.2.5.5s-.2.5-.5.5c-1.9 0-3.8-.2-5.6-.6-.6 2.2-.9 4.4-.9 6.7h6.8c.3 0 .5.2.5.5s-.3.5-.5.5"/><path class="st3" d="M88.2 165.6c-.2 0-.4-.1-.5-.3-.7-2.4-1.1-5-1.1-7.5 0-.3.2-.5.5-.5s.5.3.5.5c0 2.3.3 4.6.9 6.8 1.7-.4 3.5-.5 5.2-.5V158c0-.3.2-.5.5-.5s.5.2.5.5v6.6c0 .2-.2.4-.4.5h-.2c-1.9 0-3.9.2-5.8.6 0-.1-.1-.1-.1-.1"/><path class="st3" d="M101.2 158.2h-7c-.3 0-.5-.2-.5-.5v-7.1c0-.3.2-.5.5-.5 2 0 3.9-.2 5.8-.6.3-.1.5.1.6.4s-.1.5-.4.6c-1.8.4-3.6.6-5.5.6v6.1h6.5c.3 0 .5.2.5.5s-.2.5-.5.5M104.6 149c-.1 0-.3-.1-.4-.2-1.8-2.1-4.2-3.6-6.8-4.2-.3-.1-.4-.3-.4-.6.1-.3.3-.4.6-.4 2.8.7 5.4 2.3 7.3 4.5.2.2.2.5-.1.7.1.2-.1.2-.2.2"/><path class="st3" d="M100.1 150.5c-.2 0-.4-.1-.5-.3-.6-2-1.4-3.9-2.5-5.7-.1-.2-.1-.5.2-.7.2-.1.5-.1.7.2 1.1 1.9 1.9 3.9 2.6 6 .1.3-.1.5-.3.6-.1-.1-.2-.1-.2-.1M83.7 149c-.1 0-.2 0-.3-.1-.2-.2-.2-.5-.1-.7 1.9-2.2 4.5-3.8 7.3-4.5.3-.1.5.1.6.4.1.3-.1.5-.4.6-2.7.7-5 2.1-6.8 4.2-.1.1-.2.1-.3.1"/><path class="st3" d="M88.2 150.5h-.1c-.3-.1-.4-.3-.3-.6.6-2.1 1.5-4.1 2.6-6 .1-.2.4-.3.7-.2.2.1.3.4.2.7-1 1.8-1.9 3.7-2.5 5.7-.2.2-.4.4-.6.4"/><path class="st3" d="M90.7 144.6c-.2 0-.4-.1-.5-.4-.1-.3.1-.5.4-.6 2.3-.6 4.8-.6 7.1 0 .3.1.4.3.4.6-.1.3-.3.4-.6.4-2.2-.5-4.5-.5-6.6 0h-.2"/><path class="st3" d="M94.2 151.2c-.3 0-.5-.2-.5-.5v-6.5c0-.3.2-.5.5-.5s.5.2.5.5v6.5c0 .3-.2.5-.5.5M97.6 171.4c-.2 0-.4-.1-.5-.4-.1-.3.1-.5.4-.6 2.7-.7 5-2.1 6.8-4.2.2-.2.5-.2.7-.1.2.2.2.5.1.7-1.9 2.2-4.5 3.8-7.3 4.5-.1.1-.2.1-.2.1"/><path class="st3" d="M97.6 171.4c-.1 0-.2 0-.2-.1-.2-.1-.3-.4-.2-.7 1-1.8 1.9-3.7 2.5-5.7.1-.2.3-.4.6-.3 1.6.4 3.2.9 4.6 1.5.2.1.4.4.3.6-.1.2-.4.4-.6.3-1.3-.6-2.6-1-4-1.3-.6 1.9-1.4 3.8-2.4 5.5-.3.2-.5.2-.6.2M90.7 171.4h-.1c-2.8-.7-5.4-2.3-7.3-4.5-.2-.2-.2-.5.1-.7.2-.2.5-.2.7.1 1.8 2.1 4.2 3.6 6.8 4.2.3.1.4.3.4.6-.2.2-.4.3-.6.3"/><path class="st3" d="M90.7 171.4c-.2 0-.3-.1-.4-.2-1-1.7-1.8-3.6-2.4-5.5-1.4.3-2.7.8-4 1.3-.2.1-.5 0-.6-.3-.1-.2 0-.5.2-.6 1.5-.6 3-1.1 4.6-1.5.3-.1.5.1.6.3.6 2 1.4 3.9 2.5 5.7.1.2.1.5-.2.7-.1.1-.2.1-.3.1"/><path class="st3" d="M94.1 171.9c-1.2 0-2.4-.1-3.5-.4-.3-.1-.4-.3-.4-.6.1-.3.3-.4.6-.4 2.2.5 4.5.5 6.6 0 .3-.1.5.1.6.4.1.3-.1.5-.4.6-1.1.2-2.3.4-3.5.4"/><path class="st3" d="M94.2 171.3c-.3 0-.5-.2-.5-.5v-6.4c0-.1.1-.3.1-.3.1-.1.2-.1.3-.1 2.2 0 4.2.2 6 .6.3.1.4.3.4.6-.1.3-.3.4-.6.4-1.6-.3-3.3-.5-5.3-.6v5.9c.1.2-.1.4-.4.4"/><path class="st5" d="M33.6 642.5c-3 0-7.6 1.4-7.6 6.9 0 2.7 6 12.4 7.6 15.1 1.5-2.7 7.6-12.4 7.6-15.1-.1-5.5-4.6-6.9-7.6-6.9zm0 9.3c-1.4 0-2.5-1.1-2.5-2.5s1.1-2.5 2.5-2.5 2.5 1.1 2.5 2.5c-.1 1.4-1.2 2.5-2.5 2.5z"/><path class="st6" d="M94.5 642.5c-3 0-7.6 1.4-7.6 6.9 0 2.7 6 12.4 7.6 15.1 1.5-2.7 7.6-12.4 7.6-15.1 0-5.5-4.6-6.9-7.6-6.9zm0 9.3c-1.4 0-2.5-1.1-2.5-2.5s1.1-2.5 2.5-2.5 2.5 1.1 2.5 2.5-1.1 2.5-2.5 2.5z"/><g class="st5"><path d="M30.2 710.9h5.3v5.3h-5.3zM30.2 704.1h5.3v5.3h-5.3zM30.2 717.8h5.3v5.3h-5.3zM37.1 710.9h5.3v5.3h-5.3zM37.1 704.1h5.3v5.3h-5.3zM37.1 717.8h5.3v5.3h-5.3zM23.4 710.9h5.3v5.3h-5.3zM23.4 704.1h5.3v5.3h-5.3zM23.4 717.8h5.3v5.3h-5.3z"/></g><g class="st5"><path d="M24.4 781.8V785.2h16.3V781.8zM24.4 776.6V780h17.4V776.6zM24.4 766.2V769.6h17.4V766.2zM24.4 771.4V774.8h14.7V771.4z"/></g><g class="st5"><path d="M35.7 844.1c-4.4 0-7.9-3.4-7.9-7.7 0-4.2 3.5-7.7 7.9-7.7s7.9 3.4 7.9 7.7c.1 4.3-3.5 7.7-7.9 7.7zm0-12.9c-3 0-5.4 2.3-5.4 5.2 0 2.9 2.4 5.2 5.4 5.2s5.4-2.3 5.4-5.2c.1-2.8-2.4-5.2-5.4-5.2z"/><path class="st7" d="M29.3 841.8l-4.9 4.7c-.3.3-.3.7 0 1 .1.1.3.2.5.2s.4-.1.5-.2l4.9-4.7c.3-.3.3-.7 0-1s-.7-.3-1 0z"/></g><g class="st5"><path class="st8" d="M92.2 710.9h5.3v5.3h-5.3zM92.2 704.1h5.3v5.3h-5.3zM92.2 717.8h5.3v5.3h-5.3zM99.1 710.9h5.3v5.3h-5.3zM99.1 704.1h5.3v5.3h-5.3zM99.1 717.8h5.3v5.3h-5.3zM85.4 710.9h5.3v5.3h-5.3zM85.4 704.1h5.3v5.3h-5.3zM85.4 717.8h5.3v5.3h-5.3z"/></g><g class="st5"><path class="st8" d="M86.4 781.8V785.2h16.3V781.8zM86.4 776.6V780h17.4V776.6zM86.4 766.2V769.6h17.4V766.2zM86.4 771.4V774.8h14.7V771.4z"/></g><path class="st8" d="M97.7 844.1c-4.4 0-7.9-3.4-7.9-7.7 0-4.2 3.5-7.7 7.9-7.7s7.9 3.4 7.9 7.7c.1 4.3-3.5 7.7-7.9 7.7zm0-12.9c-3 0-5.4 2.3-5.4 5.2 0 2.9 2.4 5.2 5.4 5.2s5.4-2.3 5.4-5.2c.1-2.8-2.4-5.2-5.4-5.2z"/><path class="st9" d="M91.3 841.8l-4.9 4.7c-.3.3-.3.7 0 1 .1.1.3.2.5.2s.4-.1.5-.2l4.9-4.7c.3-.3.3-.7 0-1-.3-.3-.7-.3-1 0z"/><path class="st2" d="M46.3 536.1l-11.7-11.7c-.2-.2-.6-.2-.8 0s-.2.6 0 .8L45 536.4l-1.9 1.9-10.4-10.4c-.2-.2-.6-.2-.8 0-.2.2-.2.6 0 .8l10.9 10.9c.1.1.2.2.4.2s.3-.1.4-.2l2.7-2.7c.2-.3.2-.6 0-.8z"/><path class="st2" d="M29.1 527.5l4.8-4.8c1.4-1.4 5.1-3.3 5.1-3.4.2-.1.3-.4.2-.7-.1-.2-.4-.3-.7-.2-.2.1-3.9 2.1-5.3 3.5l-5.2 5.2c-.2.2-.2.6 0 .8l.6.6-1.6 1.6-4.7-4.7 1.6-1.6.6.6c.2.2.6.2.8 0l4.7-4.7c1.9-1.9 5.8-1.7 7.3-2l.2-.1c.3-.1.4-.3.4-.6s-.3-.4-.6-.4l-.2.1c-1.6.3-5.8.2-7.8 2.3l-4.3 4.3-.7-.6c-.2-.2-.6-.2-.8 0l-2.3 2.3c-.1.1-.2.2-.2.4 0 .1.1.3.2.4l5.4 5.4c.1.1.2.2.4.2.1 0 .3-.1.4-.2l2.3-2.3c.1-.1.2-.2.2-.4 0-.1-.1-.3-.2-.4l-.6-.6z"/><path d="M107.1 536.1l-11.7-11.7c-.2-.2-.6-.2-.8 0-.2.2-.2.6 0 .8l11.2 11.2-1.9 1.9-10.4-10.4c-.2-.2-.6-.2-.8 0-.2.2-.2.6 0 .8l10.9 10.9c.1.1.2.2.4.2s.3-.1.4-.2l2.7-2.7c.2-.3.2-.6 0-.8z"/><path d="M89.9 527.5l4.8-4.8c1.4-1.4 5.1-3.3 5.1-3.4.2-.1.3-.4.2-.7-.1-.2-.4-.3-.7-.2-.2.1-3.9 2.1-5.3 3.5l-5.2 5.2c-.2.2-.2.6 0 .8l.6.6-1.6 1.6-4.7-4.7 1.6-1.6.6.6c.2.2.6.2.8 0l4.7-4.7c1.9-1.9 5.8-1.7 7.3-2l.2-.1c.3-.1.4-.3.4-.6s-.3-.4-.6-.4l-.2.1c-1.6.3-5.8.2-7.8 2.3l-4.3 4.3-.7-.6c-.2-.2-.6-.2-.8 0L82 525c-.1.1-.2.2-.2.4 0 .1.1.3.2.4l5.4 5.4c.1.1.2.2.4.2.1 0 .3-.1.4-.2l2.3-2.3c.1-.1.2-.2.2-.4 0-.1-.1-.3-.2-.4l-.6-.6z"/><path class="st2" d="M46.8 215.3c-1.8-2.7-4.4-4.7-7.5-5.7-1.3-.4-2.7-.4-3.9-.4-1.9 0-3.9.4-5.7 1.1l-3.8-1.6-.2.1c-.1.1-4.2 3.7-5 8.2 0 .3.1.5.4.5h.1c.2 0 .4-.2.5-.4.6-3.5 3.7-7 4.3-7.5l2.6 1.1c-.3.1-.5.3-.8.4-3.5 2-5.9 5.3-6.9 9.2-1 3.9-.4 7.9 1.6 11.4 1.9 3.2 4.9 5.6 8.4 6.7.2.1.4 0 .5-.2s.1-.4-.1-.6c-.6-.6-1.2-1.3-1.6-2-2.7-4.5-1.2-10.4 3.3-13 .2-.1.4-.2.5-.3l.4 2.1h-1.7c-.3 0-.5.2-.5.5s.2.5.5.5h2.1c.3 0 .5-.2.5-.5l-.5-3.2c0-.3-.2-.5-.5-.5h-.1H33.4c-.3.2-.7.3-1 .5-4.9 2.9-6.6 9.3-3.7 14.3l.5.8-.8-.4c-2.2-1.2-4-3-5.3-5.2-1.9-3.2-2.5-7-1.5-10.7.9-3.7 3.2-6.7 6.5-8.6 2.1-1.3 4.5-1.9 6.9-2 .1 0 1 0 2 .1.8.1 1.7.3 1.8.3 2.7.8 5.1 2.6 6.7 4.9l.1.2-.1.1c-1.7 2.3-4.2 4-7 4.7h-.1c-2.9 0-4.3-1.8-4.3-5.4 0-.2-.2-.4-.4-.4s-.4.2-.4.4c0 4.2 1.8 6.3 5.3 6.3h.2c3.2-.8 5.9-2.8 7.8-5.5.3.1.3-.1.2-.3z"/><circle class="st2" cx="40" cy="214.3" r=".7"/><path class="st2" d="M37.1 235.2c-.5-2.5-2.8-4.2-2.9-4.3-.1-.1-.3-.1-.4-.1-.1 0-.2.1-.3.3-1.9 4.6-.1 7.5-.1 7.6l.2.2c.1 0 1.2.4 3 .4 1.6 0 3.8-.3 6.3-1.4.2-.1.3-.2.3-.4s-.1-.3-.2-.4c-.1-.1-2.9-1.7-5.9-1.9zm-3 2.9c-.3-.6-1.2-2.7 0-6.1.7.7 1.9 2 2.1 3.7 0 .2.2.4.4.4 2 0 4 .8 5.1 1.3-3.8 1.5-6.9.9-7.6.7z"/><path d="M108.9 215.3c-1.8-2.7-4.4-4.7-7.5-5.7-1.3-.4-2.7-.4-3.9-.4-1.9 0-3.9.4-5.7 1.1l-3.8-1.6-.2.1c-.1.1-4.2 3.7-5 8.2 0 .3.1.5.4.5h.1c.2 0 .4-.2.5-.4.6-3.5 3.7-7 4.3-7.5l2.6 1.1c-.3.1-.5.3-.8.4-3.5 2-5.9 5.3-6.9 9.2-1 3.9-.4 7.9 1.6 11.4 1.9 3.2 4.9 5.6 8.4 6.7.2.1.4 0 .5-.2s.1-.4-.1-.6c-.6-.6-1.2-1.3-1.6-2-2.7-4.5-1.2-10.4 3.3-13 .2-.1.4-.2.5-.3l.4 2.1h-1.7c-.3 0-.5.2-.5.5s.2.5.5.5h2.1c.3 0 .5-.2.5-.5l-.5-3.2c0-.3-.2-.5-.5-.5h-.1H95.5c-.3.2-.7.3-1 .5-4.9 2.9-6.6 9.3-3.7 14.3l.5.8-.8-.4c-2.2-1.2-4-3-5.3-5.2-1.9-3.2-2.5-7-1.5-10.7.9-3.7 3.2-6.7 6.5-8.6 2.1-1.3 4.5-1.9 6.9-2 .1 0 1 0 2 .1.8.1 1.7.3 1.8.3 2.7.8 5.1 2.6 6.7 4.9l.1.2-.1.1c-1.7 2.3-4.2 4-7 4.7h-.1c-2.9 0-4.3-1.8-4.3-5.4 0-.2-.2-.4-.4-.4s-.4.2-.4.4c0 4.2 1.8 6.3 5.3 6.3h.2c3.2-.8 5.9-2.8 7.8-5.5.3.1.3-.1.2-.3z"/><circle cx="102.1" cy="214.3" r=".7"/><path d="M99.2 235.2c-.5-2.5-2.8-4.2-2.9-4.3-.1-.1-.3-.1-.4-.1s-.2.1-.3.3c-1.9 4.6-.1 7.5-.1 7.6l.2.2c.1 0 1.2.4 3 .4 1.6 0 3.8-.3 6.3-1.4.2-.1.3-.2.3-.4s-.1-.3-.2-.4c-.1-.1-2.9-1.7-5.9-1.9zm-3 2.9c-.3-.6-1.2-2.7 0-6.1.7.7 1.9 2 2.1 3.7 0 .2.2.4.4.4 2 0 4 .8 5.1 1.3-3.8 1.5-6.9.9-7.6.7z"/><g><path class="st2" d="M33.5 402.4c-1.4 0-2.5 1.1-2.5 2.4 0 1.3 1.1 2.4 2.5 2.4s2.5-1.1 2.5-2.4c-.1-1.3-1.2-2.4-2.5-2.4zm0 3.7c-.7 0-1.3-.6-1.3-1.3 0-.7.6-1.3 1.3-1.3.7 0 1.3.6 1.3 1.3 0 .7-.6 1.3-1.3 1.3z"/><path class="st2" d="M33.5 399.4c-3 0-5.5 2.4-5.5 5.4s2.5 5.4 5.5 5.4 5.5-2.4 5.5-5.4-2.5-5.4-5.5-5.4zm0 9.7c-2.4 0-4.4-1.9-4.4-4.3s2-4.3 4.4-4.3c2.4 0 4.4 1.9 4.4 4.3s-2 4.3-4.4 4.3z"/><path class="st2" d="M48.8 404.4c-4.1-4.8-9.6-7.5-15.3-7.5s-11.2 2.7-15.3 7.5l-.3.4.3.4c4.1 4.8 9.6 7.5 15.3 7.5s11.1-2.7 15.3-7.5l.3-.4-.3-.4zm-15.3 7.1c-5.2 0-10.2-2.4-14.1-6.7 3.9-4.3 8.9-6.7 14.1-6.7 5.2 0 10.2 2.4 14.1 6.7-3.9 4.3-8.9 6.7-14.1 6.7z"/></g><g><path d="M94.2 402.4c-1.4 0-2.5 1.1-2.5 2.4 0 1.3 1.1 2.4 2.5 2.4s2.5-1.1 2.5-2.4c-.1-1.3-1.2-2.4-2.5-2.4zm0 3.7c-.7 0-1.3-.6-1.3-1.3 0-.7.6-1.3 1.3-1.3.7 0 1.3.6 1.3 1.3 0 .7-.6 1.3-1.3 1.3z"/><path d="M94.2 399.4c-3 0-5.5 2.4-5.5 5.4s2.5 5.4 5.5 5.4 5.5-2.4 5.5-5.4-2.5-5.4-5.5-5.4zm0 9.7c-2.4 0-4.4-1.9-4.4-4.3s2-4.3 4.4-4.3c2.4 0 4.4 1.9 4.4 4.3s-2 4.3-4.4 4.3z"/><path d="M109.5 404.4c-4.1-4.8-9.6-7.5-15.3-7.5-5.7 0-11.2 2.7-15.3 7.5l-.3.4.3.4c4.1 4.8 9.6 7.5 15.3 7.5s11.1-2.7 15.3-7.5l.3-.4-.3-.4zm-15.3 7.1c-5.2 0-10.2-2.4-14.1-6.7 3.9-4.3 8.9-6.7 14.1-6.7 5.2 0 10.2 2.4 14.1 6.7-3.9 4.3-8.9 6.7-14.1 6.7z"/></g><g><path class="st2" d="M43.5 34c-.3 0-.5.2-.5.5v10H24.8v-10c0-.3-.2-.5-.5-.5s-.5.2-.5.5V45c0 .3.2.5.5.5h19.1c.3 0 .5-.2.5-.5V34.5c0-.3-.2-.5-.4-.5zM46.2 32.7L34.4 21.8c-.1-.1-.3-.1-.4-.1-.1 0-.3 0-.4.1L21.7 32.7c-.2.2-.2.5 0 .7.1.1.2.2.4.2.1 0 .2 0 .3-.1L34 22.8l11.6 10.6c.1.1.2.1.3.1s.3-.1.4-.2c.1-.1.1-.4-.1-.6z"/><path class="st2" d="M27.7 39.4h8.4c.3 0 .5-.2.5-.5s-.2-.5-.5-.5h-8.4c-.3 0-.5.2-.5.5s.3.5.5.5zM27.7 36.5h5.8c.3 0 .5-.2.5-.5s-.2-.5-.5-.5h-5.8c-.3 0-.5.2-.5.5 0 .2.3.5.5.5zM27.7 33.5H31c.3 0 .5-.2.5-.5s-.2-.5-.5-.5h-3.2c-.3 0-.5.2-.5.5-.1.3.2.5.4.5z"/></g><g><path d="M104 34c-.3 0-.5.2-.5.5v10H85.3v-10c0-.3-.2-.5-.5-.5s-.5.2-.5.5V45c0 .3.2.5.5.5h19.1c.3 0 .5-.2.5-.5V34.5c0-.3-.2-.5-.4-.5zM106.7 32.7L94.9 21.8c-.1-.1-.3-.1-.4-.1-.1 0-.3 0-.4.1L82.2 32.7c-.2.2-.2.5 0 .7.1.1.2.2.4.2.1 0 .2 0 .3-.1l11.6-10.7 11.6 10.6c.1.1.2.1.3.1s.3-.1.4-.2c.1-.1.1-.4-.1-.6z"/><path d="M88.2 39.4h8.4c.3 0 .5-.2.5-.5s-.2-.5-.5-.5h-8.4c-.3 0-.5.2-.5.5s.3.5.5.5zM88.2 36.5H94c.3 0 .5-.2.5-.5s-.2-.5-.5-.5h-5.8c-.3 0-.5.2-.5.5 0 .2.3.5.5.5zM88.2 33.5h3.3c.3 0 .5-.2.5-.5s-.2-.5-.5-.5h-3.2c-.3 0-.5.2-.5.5-.1.3.2.5.4.5z"/></g><g><defs><path id="SVGID_1_" d="M8 880.6h51.2v32.3H8z"/></defs><clipPath id="SVGID_2_"><use xlink:href="#SVGID_1_" overflow="visible"/></clipPath><path class="st10" d="M19.2 890.9c.1 0 .5.7.4 1.4-.1 0-.1 0-.2.1 0 0-.1 0-.1.1V893.4h.1v.1l.1.1v.4s.1 0 .1-.1c0 0 .1 0 0 .1h-.1v.1l-.1.1s0 .4-.1.5c0 0 .1 0 .1.1h.1s.1 0 0 .1v.1s0 .1.1.2c0 0 0 .1.1.1 0 0 0 .1-.1.1 0 0-.2 0-.3-.2v-.1-.1l-.1.4s-.1 0-.1.1v.1s.1.2.2.3v.1l-.1.1s0 .1 0 0v-.3-.1.3s0 .2-.1.2h.1v.3s.1 0 0 .1h-.1V897.2s0-.1.1-.1l.1.1v-.1l-.1.2s0 .3-.1.4v.4s-.1.4-.1.5v.1h.1s0 .1-.1.1 0-.1 0-.2c0 0-.1.3-.1.5V900s0 .2-.1.2h.1V900.5s.1 0 .1-.1c0 0 .1 0 .1.1s.1 0 .1.1v.1s-.1 0 0 0v1.1s0 .1 0 0l.1-.1s.1-.1.1 0c0 0 .1 0 0 .1v.1h0s0 .1 0 0v-.1h-.1l-.1.1s-.1.5-.1.6l-.1.1v1.5l-.1.8v.1s-.1 1-.2 1.1v.1s-.2 1.2-.5 1.7v-.1l.1-.1s.1 0 .1-.1c0 0 .1-.1.1 0h.1v-.2.1h.1l.1-.1v.2l-.1.1s.1 0 .1.1h.1s-.1.1 0 .1v.1h.1v.1s-.1 0-.1-.1h-.1s-.1 0 0-.1v-.1-.1s0-.1-.1 0v.1s-.1.1 0 0c0 0 0-.1 0 0l-.1.1s-.1 0 0 .1c0 0 0 .1-.1.1v.1s-.1 0-.1.1c0 0 0 .1 0 0 0 0 0-.1.1 0h-.1V908.3s0-.1-.1 0c0 0 0 .1-.1.1l-.1.2.1.2v.3s0 .4-.1.5l-.1.1V910l-.2.6s-.2.5-.2.4v.1l-.1.1.1.1s.1.4.1.5h.1s0-.1.1 0c0 0 .1.1.1.2s.1.2.1.2v.1l.1.1v.1s.1.1 0 .2l.1.2s-.1.3-.1.4V913.6s-.1.1 0 .2v.6s.1 0 .1.1v.3s0 .1 0 0l.1.1v.6s0 .1.1.1v.1h.1v.1h.1l.1.1s0 .1.1.1l.1.1h2.3l1.7-.1h20.6l4.8-.1v-9.6h-.2l-.1-.1v-.1c0-.1.1-.1.1-.1s.1 0 .1-.1v-.1-.1-.1-.1s-.1-.1 0-.1h.1v-.1s0-.1.1-.1c0 0 .1 0 .1-.1v-.1-.1s-.1-.1 0-.1v-.1s-.1 0 0-.1v-.1s0-.1 0 0v-.1s.1 0 0-.1.1 0 .1 0v-.1h.1s.1-.1 0-.2l-.1-.1v-.2s.1-.1.1 0v-.1s0-.1.1-.1c0 0 0-.1.1-.1v-.1l-.1-.1h-.1v-.1-.1-.1h-.2v.1h-.1s-.1 0-.1-.1l-.1-.1s-.1-.1-.1 0c0 0-.1.2-.1.1l-.2-.1-.1-.1s-.1-.1 0-.1l.1-.1s0-.1-.1-.2c0 0-.1-.1-.1-.2h.1v-.3s0-.1.1-.1c0 0 .1-.1.1-.2 0 0 .1 0 .1-.1l.1-.1s0-.2.1-.2v-.1-.1l.1-.1s0-.2.1-.2c0 0 0-.1.1-.2 0 0 0-.1.1-.2v-.1l.2-.1s.1-.1.2-.1l.1-.1v-.1l.1-.1v-.1s.1 0 .1-.1l.1-.1v-.1s0-.1.1-.1c0 0-.1-.1-.1-.2 0 0 0-.1.1-.1v-.1s-.1 0-.1.1c0 0-.1 0 0-.1 0 0 .1-.1 0-.1v-.1c.1 0 .1-.1.1-.1l.1-.1s0-.2.1-.2v-.1s0-.1.1-.1v-.1-.1-.1-.1-.1-.1l.1-.1v-.3l.2-.4s.1-.1.1-.2v-.1l.1-.1v-.1-.1-.1l.1-.1v-.1-.1h.1l.1-.1v-.1s.1 0 .1-.1v-.1-.2-.1l-.1-.1-.1-.1v-.2s0-.1-.1-.1l-.2-.2h-.1s0-.1-.1 0H50s-.1-.1-.1-.2v-.1s-.1-.1-.2 0c0 0-.1.1-.2-.1v-.2s-.1-.1-.2-.1c0 0-.2-.2-.2-.4 0 0-.1 0-.1-.1v-.1s-.1 0-.1-.1h-8.4s-.1.3-.3.3c-.1.1-.3.2-.4.2h-.4s-.3-.1-.3 0h-.2l-.4.1s-.2.1-.3.1c-.1 0-.2-.1-.2-.1h-.1s0 .1-.1.1c0 0-.1.1-.2.1 0 0-.1.1-.2.1 0 0-.1.1-.1 0l-.2.1h-.4l-.3.1h-.2s-.4.2-.5.2c0 0-.4.1-.4.2l-.1.1s-.1.1-.2 0h-.2s-.2.1-.3.1c0 0-.2.1-.3.1h-.3s-.2-.1-.3-.2c0 0-.3-.1-.3 0 0 0-.2.2-.4.2-.1.1-.3.1-.4.1-.1 0-.2.1-.3.2h-.1s-.1-.1-.2-.1h-.4l-.1.1s-.1.2-.2.2-.2.1-.2 0 0-.3-.2-.3c0 0-.1 0-.1-.1h-.1-.1-.3l-.2-.6h-.2-.1s-.1 0-.1-.1c0 0-.1-.1-.2 0h-.3s-.3.1-.4.1c0 0-.1.1-.2.1H28s-.1 0 0 .1l-.2.1s0 .1-.1.1l-.1.1s-.1.1-.2.1h-.1s-.1 0-.1.1l-.1.1h-.2c-.1 0-.1 0-.2.1l-.1.1h-.1s-.3.1-.5 0c0 0-.1-.2-.2-.1h-.1-.1s-.3 0-.4-.1c0 0-.2-.2-.3-.2h-.2s-.2-.1-.4-.3c0 0-.1-.2-.1-.3 0-.1.1-.2 0-.3v-.1l-.1-.2v-.2s-.1-.1 0-.2c0 0 0-.2-.1-.2v-.1-.2s-.1-.2-.2-.2v-.2s-.1-.1-.1-.3c0 0-.1-.1-.3-.2-.1 0-.3-.2-.3-.2s-.1-.2-.3-.2c-.1 0-.2 0-.3-.1 0 0-.1 0-.2.3h-.5s-.2 0-.3-.1c0 0-.1-.1-.1-.2l-.2-.1s0-.1-.1-.1H21s0 .1-.1.1l-.1.1v.1h-.2s0 .1-.1.1h-.2-.2l-.1-.1v-.1s-.1 0-.1.1h-.2s-.2 0-.1.1h.1s.1 0 .1.1v.2s0 .1.1.1v.1s.1 0 0 .1v-.1s0-.1-.1-.1v-.1-.1-.1h-.1-.1s0 .1-.1.1v.1h.1v0h-.1v-.1s.1-.1 0-.1h-.1v-.1s0 .1-.1.1v-.1-.1s-.1-.1-.2-.1-.1-.1 0-.1c.2-.1.2-.2.1-.1.1 0 0 0 0 0"/></g></g></svg>